<mxfile host="app.diagrams.net" modified="2022-01-24T21:22:19.388Z" agent="5.0 (Macintosh; Intel Mac OS X 10_15_7) AppleWebKit/605.1.15 (KHTML, like Gecko) Version/15.1 Safari/605.1.15" etag="NEzI3U6BdoALTKBqf3Bh" version="16.4.5" type="github" pages="2">
  <diagram id="frB2AARtGY0DQCCk_Cin" name="Page-1">
    <mxGraphModel dx="1188" dy="1579" grid="1" gridSize="10" guides="1" tooltips="1" connect="1" arrows="1" fold="1" page="1" pageScale="1" pageWidth="1100" pageHeight="850" math="0" shadow="0">
      <root>
        <mxCell id="0" />
        <mxCell id="1" parent="0" />
        <mxCell id="76j5sk3wCB9ZU_lOgHT8-6" value="" style="rounded=1;whiteSpace=wrap;html=1;strokeColor=#666666;fontColor=#333333;fillColor=#CCCCCC;" parent="1" vertex="1">
          <mxGeometry x="135" y="10" width="300" height="180" as="geometry" />
        </mxCell>
        <mxCell id="M235wbPJO0eQFkBtWyqc-88" value="" style="endArrow=none;html=1;fillColor=#f8cecc;strokeColor=#B85450;entryX=0.5;entryY=1;entryDx=0;entryDy=0;strokeWidth=3;exitX=0.5;exitY=1;exitDx=0;exitDy=0;rounded=1;" parent="1" source="76j5sk3wCB9ZU_lOgHT8-17" target="1uxTvB8G4I0eHR2gSPLV-1" edge="1">
          <mxGeometry width="50" height="50" relative="1" as="geometry">
            <mxPoint x="849.0749999999998" y="618.4250000000002" as="sourcePoint" />
            <mxPoint x="837" y="515" as="targetPoint" />
            <Array as="points">
              <mxPoint x="317" y="200" />
              <mxPoint x="30" y="200" />
              <mxPoint x="30" y="660" />
              <mxPoint x="848" y="660" />
            </Array>
          </mxGeometry>
        </mxCell>
        <mxCell id="OBH05SYVjdOEQUbnL4dN-43" value="&lt;div style=&quot;text-align: left ; font-size: 22px&quot;&gt;&lt;font style=&quot;font-size: 22px&quot; color=&quot;#999900&quot;&gt;VIDEO ZONE &amp;nbsp;- TOSLINK &amp;nbsp; &amp;nbsp; &amp;nbsp; &amp;nbsp;&amp;nbsp;&lt;/font&gt;&lt;/div&gt;&lt;div style=&quot;font-size: 22px&quot;&gt;&lt;font style=&quot;font-size: 22px&quot; color=&quot;#999900&quot;&gt;&lt;br&gt;&lt;/font&gt;&lt;/div&gt;&lt;div&gt;&lt;font style=&quot;font-size: 29px&quot; color=&quot;#666600&quot;&gt;&lt;br&gt;&lt;/font&gt;&lt;/div&gt;&lt;div&gt;&lt;font style=&quot;font-size: 29px&quot; color=&quot;#666600&quot;&gt;&lt;br&gt;&lt;/font&gt;&lt;/div&gt;" style="rounded=1;whiteSpace=wrap;html=1;strokeColor=#d6b656;strokeWidth=2;fillColor=#fff2cc;opacity=75;align=center;" parent="1" vertex="1">
          <mxGeometry x="190" y="233" width="290" height="149.25" as="geometry" />
        </mxCell>
        <mxCell id="OBH05SYVjdOEQUbnL4dN-46" value="&lt;font style=&quot;font-size: 29px&quot;&gt;&lt;span style=&quot;color: rgb(0 , 127 , 255)&quot;&gt;&amp;nbsp; &amp;nbsp; &amp;nbsp; &amp;nbsp; &amp;nbsp;DIGITAL ZONE&lt;br&gt;&lt;/span&gt;&lt;br&gt;&lt;br&gt;&lt;br&gt;&lt;div&gt;&lt;div&gt;&lt;br&gt;&lt;/div&gt;&lt;/div&gt;&lt;/font&gt;" style="rounded=1;whiteSpace=wrap;html=1;strokeColor=default;strokeWidth=2;opacity=25;align=left;fillColor=#99CCFF;" parent="1" vertex="1">
          <mxGeometry x="160" y="399.5" width="760" height="240.5" as="geometry" />
        </mxCell>
        <mxCell id="OBH05SYVjdOEQUbnL4dN-44" value="&lt;font style=&quot;font-size: 18px&quot; color=&quot;#b5739d&quot;&gt;TURNTABLE&lt;br&gt;ZONE&lt;br&gt;SINGLE-ENDED&lt;/font&gt;" style="rounded=1;whiteSpace=wrap;html=1;strokeColor=#B85450;strokeWidth=2;gradientColor=none;opacity=75;fillColor=#E6D0DE;" parent="1" vertex="1">
          <mxGeometry x="930" width="170" height="740" as="geometry" />
        </mxCell>
        <mxCell id="53s6JgEZ6me2CBDkBuSd-2" value="&lt;font color=&quot;#000000&quot; style=&quot;font-size: 10px&quot;&gt;Power only&lt;br&gt;JCAT ref. USB&lt;/font&gt;" style="edgeLabel;html=1;align=center;verticalAlign=middle;resizable=0;points=[];fontColor=#A8A8A8;fontSize=10;rotation=-90;" parent="1" vertex="1" connectable="0">
          <mxGeometry x="667.0038089397067" y="475.99789010259053" as="geometry">
            <mxPoint x="-20" y="-34" as="offset" />
          </mxGeometry>
        </mxCell>
        <mxCell id="M235wbPJO0eQFkBtWyqc-112" value="" style="rounded=1;whiteSpace=wrap;html=1;arcSize=50;fillColor=#dae8fc;strokeColor=#6c8ebf;" parent="1" vertex="1">
          <mxGeometry x="491" y="178" width="400" height="60" as="geometry" />
        </mxCell>
        <mxCell id="76j5sk3wCB9ZU_lOgHT8-92" value="" style="shape=parallelogram;perimeter=parallelogramPerimeter;whiteSpace=wrap;html=1;strokeColor=#FF00FF;strokeWidth=2;" parent="1" vertex="1">
          <mxGeometry x="791" y="198" width="50" height="20" as="geometry" />
        </mxCell>
        <mxCell id="M235wbPJO0eQFkBtWyqc-65" value="" style="rounded=1;whiteSpace=wrap;html=1;" parent="1" vertex="1">
          <mxGeometry x="789" y="405" width="111" height="85" as="geometry" />
        </mxCell>
        <mxCell id="M235wbPJO0eQFkBtWyqc-36" value="" style="rounded=1;whiteSpace=wrap;html=1;fillColor=#f8cecc;strokeColor=#b85450;" parent="1" vertex="1">
          <mxGeometry x="407" y="283" width="50" height="20" as="geometry" />
        </mxCell>
        <mxCell id="M235wbPJO0eQFkBtWyqc-1" value="&lt;span&gt;Switch 5V / 1A&lt;/span&gt;" style="rounded=1;whiteSpace=wrap;html=1;fillColor=default;strokeColor=#6c8ebf;" parent="1" vertex="1">
          <mxGeometry x="170" y="507.5" width="84" height="26.5" as="geometry" />
        </mxCell>
        <mxCell id="M235wbPJO0eQFkBtWyqc-3" value="" style="rounded=1;whiteSpace=wrap;html=1;" parent="1" vertex="1">
          <mxGeometry x="337" y="312.25" width="120" height="60" as="geometry" />
        </mxCell>
        <mxCell id="M235wbPJO0eQFkBtWyqc-5" value="LPS&lt;br&gt;1,5A" style="text;html=1;strokeColor=none;fillColor=none;align=center;verticalAlign=middle;whiteSpace=wrap;rounded=0;" parent="1" vertex="1">
          <mxGeometry x="377" y="332.25" width="40" height="20" as="geometry" />
        </mxCell>
        <mxCell id="M235wbPJO0eQFkBtWyqc-6" value="12V" style="ellipse;whiteSpace=wrap;html=1;aspect=fixed;fillColor=#00FF00;" parent="1" vertex="1">
          <mxGeometry x="347" y="327.25" width="30" height="30" as="geometry" />
        </mxCell>
        <mxCell id="M235wbPJO0eQFkBtWyqc-7" value="5V" style="ellipse;whiteSpace=wrap;html=1;aspect=fixed;fillColor=none;" parent="1" vertex="1">
          <mxGeometry x="417" y="327.25" width="30" height="30" as="geometry" />
        </mxCell>
        <mxCell id="M235wbPJO0eQFkBtWyqc-12" value="" style="rounded=1;whiteSpace=wrap;html=1;fillColor=#f8cecc;strokeColor=#b85450;" parent="1" vertex="1">
          <mxGeometry x="171" y="564" width="120" height="60" as="geometry" />
        </mxCell>
        <mxCell id="M235wbPJO0eQFkBtWyqc-13" value="LPS&lt;br&gt;1,5A" style="text;html=1;strokeColor=none;fillColor=none;align=center;verticalAlign=middle;whiteSpace=wrap;rounded=0;" parent="1" vertex="1">
          <mxGeometry x="206" y="579" width="50" height="30" as="geometry" />
        </mxCell>
        <mxCell id="M235wbPJO0eQFkBtWyqc-14" value="5V" style="ellipse;whiteSpace=wrap;html=1;aspect=fixed;fillColor=#f8cecc;strokeColor=#b85450;" parent="1" vertex="1">
          <mxGeometry x="176" y="579" width="30" height="30" as="geometry" />
        </mxCell>
        <mxCell id="M235wbPJO0eQFkBtWyqc-15" value="5V" style="ellipse;whiteSpace=wrap;html=1;aspect=fixed;fillColor=#00FF00;" parent="1" vertex="1">
          <mxGeometry x="251" y="579" width="30" height="30" as="geometry" />
        </mxCell>
        <mxCell id="M235wbPJO0eQFkBtWyqc-16" value="" style="rounded=1;whiteSpace=wrap;html=1;" parent="1" vertex="1">
          <mxGeometry x="1620" y="441" width="120" height="60" as="geometry" />
        </mxCell>
        <mxCell id="M235wbPJO0eQFkBtWyqc-17" value="LPS&lt;br&gt;0,6A" style="text;html=1;strokeColor=none;fillColor=none;align=center;verticalAlign=middle;whiteSpace=wrap;rounded=0;" parent="1" vertex="1">
          <mxGeometry x="1655" y="456" width="50" height="30" as="geometry" />
        </mxCell>
        <mxCell id="M235wbPJO0eQFkBtWyqc-18" value="9V" style="ellipse;whiteSpace=wrap;html=1;aspect=fixed;fillColor=#00FF00;" parent="1" vertex="1">
          <mxGeometry x="1625" y="456" width="30" height="30" as="geometry" />
        </mxCell>
        <mxCell id="M235wbPJO0eQFkBtWyqc-19" value="9V" style="ellipse;whiteSpace=wrap;html=1;aspect=fixed;fillColor=#00FF00;" parent="1" vertex="1">
          <mxGeometry x="1700" y="456" width="30" height="30" as="geometry" />
        </mxCell>
        <mxCell id="M235wbPJO0eQFkBtWyqc-25" value="" style="rounded=1;whiteSpace=wrap;html=1;opacity=80;" parent="1" vertex="1">
          <mxGeometry x="260" y="666" width="840" height="70" as="geometry" />
        </mxCell>
        <mxCell id="M235wbPJO0eQFkBtWyqc-26" value="" style="ellipse;whiteSpace=wrap;html=1;aspect=fixed;rotation=0;direction=south;" parent="1" vertex="1">
          <mxGeometry x="374" y="676" width="50" height="50" as="geometry" />
        </mxCell>
        <mxCell id="M235wbPJO0eQFkBtWyqc-27" value="" style="ellipse;whiteSpace=wrap;html=1;aspect=fixed;rotation=0;direction=south;" parent="1" vertex="1">
          <mxGeometry x="514" y="676" width="50" height="50" as="geometry" />
        </mxCell>
        <mxCell id="M235wbPJO0eQFkBtWyqc-28" value="" style="ellipse;whiteSpace=wrap;html=1;aspect=fixed;rotation=0;direction=south;" parent="1" vertex="1">
          <mxGeometry x="825.5" y="676" width="50" height="50" as="geometry" />
        </mxCell>
        <mxCell id="M235wbPJO0eQFkBtWyqc-29" value="" style="ellipse;whiteSpace=wrap;html=1;aspect=fixed;rotation=0;direction=south;" parent="1" vertex="1">
          <mxGeometry x="687" y="676" width="50" height="50" as="geometry" />
        </mxCell>
        <mxCell id="M235wbPJO0eQFkBtWyqc-30" value="" style="ellipse;whiteSpace=wrap;html=1;aspect=fixed;rotation=0;direction=south;" parent="1" vertex="1">
          <mxGeometry x="940" y="676" width="50" height="50" as="geometry" />
        </mxCell>
        <mxCell id="M235wbPJO0eQFkBtWyqc-31" value="" style="ellipse;whiteSpace=wrap;html=1;aspect=fixed;rotation=0;direction=south;" parent="1" vertex="1">
          <mxGeometry x="1035" y="676" width="50" height="50" as="geometry" />
        </mxCell>
        <mxCell id="M235wbPJO0eQFkBtWyqc-34" value="" style="endArrow=none;html=1;fillColor=#f8cecc;strokeColor=#B85450;exitX=0;exitY=0.5;exitDx=0;exitDy=0;entryX=0.5;entryY=1;entryDx=0;entryDy=0;" parent="1" target="M235wbPJO0eQFkBtWyqc-16" edge="1">
          <mxGeometry width="50" height="50" relative="1" as="geometry">
            <mxPoint x="1680" y="611" as="sourcePoint" />
            <mxPoint x="1560" y="511" as="targetPoint" />
          </mxGeometry>
        </mxCell>
        <mxCell id="M235wbPJO0eQFkBtWyqc-35" value="" style="endArrow=none;html=1;fillColor=#f8cecc;strokeColor=#B85450;strokeWidth=3;entryX=0.5;entryY=1;entryDx=0;entryDy=0;" parent="1" target="_X-WQwoRXDPAYax9laIT-1" edge="1">
          <mxGeometry width="50" height="50" relative="1" as="geometry">
            <mxPoint x="270" y="170" as="sourcePoint" />
            <mxPoint x="712" y="605" as="targetPoint" />
            <Array as="points">
              <mxPoint x="270" y="220" />
              <mxPoint x="40" y="220" />
              <mxPoint x="40" y="650" />
              <mxPoint x="652" y="650" />
            </Array>
          </mxGeometry>
        </mxCell>
        <mxCell id="M235wbPJO0eQFkBtWyqc-87" style="edgeStyle=orthogonalEdgeStyle;rounded=0;orthogonalLoop=1;jettySize=auto;html=1;exitX=0.75;exitY=1;exitDx=0;exitDy=0;entryX=1;entryY=0.75;entryDx=0;entryDy=0;strokeColor=#7EA6E0;" parent="1" source="M235wbPJO0eQFkBtWyqc-39" target="M235wbPJO0eQFkBtWyqc-48" edge="1">
          <mxGeometry relative="1" as="geometry" />
        </mxCell>
        <mxCell id="M235wbPJO0eQFkBtWyqc-39" value="" style="rounded=1;whiteSpace=wrap;html=1;arcSize=50;opacity=50;dashed=1;fillColor=#FFFF00;" parent="1" vertex="1">
          <mxGeometry x="1600" y="351" width="100" height="40" as="geometry" />
        </mxCell>
        <mxCell id="M235wbPJO0eQFkBtWyqc-40" value="" style="rounded=1;whiteSpace=wrap;html=1;arcSize=50;opacity=50;dashed=1;fillColor=#FFFF00;" parent="1" vertex="1">
          <mxGeometry x="1640" y="291" width="95" height="40" as="geometry" />
        </mxCell>
        <mxCell id="M235wbPJO0eQFkBtWyqc-41" value="" style="ellipse;whiteSpace=wrap;html=1;aspect=fixed;" parent="1" vertex="1">
          <mxGeometry x="1632.5" y="368.5" width="15" height="15" as="geometry" />
        </mxCell>
        <mxCell id="M235wbPJO0eQFkBtWyqc-42" value="" style="ellipse;whiteSpace=wrap;html=1;aspect=fixed;" parent="1" vertex="1">
          <mxGeometry x="1705" y="308.5" width="15" height="15" as="geometry" />
        </mxCell>
        <mxCell id="M235wbPJO0eQFkBtWyqc-43" value="" style="endArrow=none;html=1;fillColor=#f8cecc;strokeColor=#B85450;exitX=0.5;exitY=0;exitDx=0;exitDy=0;" parent="1" source="M235wbPJO0eQFkBtWyqc-18" edge="1">
          <mxGeometry width="50" height="50" relative="1" as="geometry">
            <mxPoint x="1865" y="466" as="sourcePoint" />
            <mxPoint x="1640" y="381" as="targetPoint" />
          </mxGeometry>
        </mxCell>
        <mxCell id="M235wbPJO0eQFkBtWyqc-44" value="" style="endArrow=none;html=1;fillColor=#f8cecc;strokeColor=#B85450;exitX=0.625;exitY=0.2;exitDx=0;exitDy=0;entryX=0.5;entryY=1;entryDx=0;entryDy=0;exitPerimeter=0;" parent="1" source="76j5sk3wCB9ZU_lOgHT8-69" target="M235wbPJO0eQFkBtWyqc-42" edge="1">
          <mxGeometry width="50" height="50" relative="1" as="geometry">
            <mxPoint x="1650" y="466" as="sourcePoint" />
            <mxPoint x="1650" y="391" as="targetPoint" />
          </mxGeometry>
        </mxCell>
        <mxCell id="M235wbPJO0eQFkBtWyqc-45" value="" style="rhombus;whiteSpace=wrap;html=1;rotation=-180;" parent="1" vertex="1">
          <mxGeometry x="1670" y="368.5" width="20" height="17.5" as="geometry" />
        </mxCell>
        <mxCell id="M235wbPJO0eQFkBtWyqc-46" value="" style="rhombus;whiteSpace=wrap;html=1;rotation=-180;" parent="1" vertex="1">
          <mxGeometry x="1670" y="308.5" width="20" height="17.5" as="geometry" />
        </mxCell>
        <mxCell id="M235wbPJO0eQFkBtWyqc-47" value="" style="endArrow=none;html=1;fillColor=#f8cecc;entryX=0.5;entryY=0;entryDx=0;entryDy=0;strokeColor=#FFD966;strokeWidth=3;" parent="1" target="M235wbPJO0eQFkBtWyqc-46" edge="1">
          <mxGeometry width="50" height="50" relative="1" as="geometry">
            <mxPoint x="1680" y="371" as="sourcePoint" />
            <mxPoint x="1722.5" y="333.5" as="targetPoint" />
          </mxGeometry>
        </mxCell>
        <mxCell id="M235wbPJO0eQFkBtWyqc-48" value="OPT" style="text;html=1;strokeColor=none;fillColor=none;align=center;verticalAlign=middle;whiteSpace=wrap;rounded=0;rotation=0;opacity=50;" parent="1" vertex="1">
          <mxGeometry x="1635" y="351" width="50" height="30" as="geometry" />
        </mxCell>
        <mxCell id="M235wbPJO0eQFkBtWyqc-49" value="OPT" style="text;html=1;strokeColor=none;fillColor=none;align=center;verticalAlign=middle;whiteSpace=wrap;rounded=0;opacity=50;" parent="1" vertex="1">
          <mxGeometry x="1670" y="286" width="50" height="30" as="geometry" />
        </mxCell>
        <mxCell id="M235wbPJO0eQFkBtWyqc-51" value="" style="rounded=1;whiteSpace=wrap;html=1;" parent="1" vertex="1">
          <mxGeometry x="475" y="421" width="135" height="60" as="geometry" />
        </mxCell>
        <mxCell id="M235wbPJO0eQFkBtWyqc-52" value="UP &amp;nbsp;board" style="text;html=1;strokeColor=none;fillColor=none;align=center;verticalAlign=middle;whiteSpace=wrap;rounded=0;" parent="1" vertex="1">
          <mxGeometry x="503" y="426" width="62" height="20" as="geometry" />
        </mxCell>
        <mxCell id="M235wbPJO0eQFkBtWyqc-53" value="" style="ellipse;whiteSpace=wrap;html=1;aspect=fixed;" parent="1" vertex="1">
          <mxGeometry x="596" y="469" width="10" height="10" as="geometry" />
        </mxCell>
        <mxCell id="M235wbPJO0eQFkBtWyqc-55" value="" style="rounded=0;whiteSpace=wrap;html=1;strokeColor=#007FFF;" parent="1" vertex="1">
          <mxGeometry x="548" y="469" width="13" height="10" as="geometry" />
        </mxCell>
        <mxCell id="M235wbPJO0eQFkBtWyqc-56" value="" style="rounded=0;whiteSpace=wrap;html=1;" parent="1" vertex="1">
          <mxGeometry x="1650" y="308.5" width="10" height="10" as="geometry" />
        </mxCell>
        <mxCell id="M235wbPJO0eQFkBtWyqc-60" value="" style="rounded=0;whiteSpace=wrap;html=1;" parent="1" vertex="1">
          <mxGeometry x="1610" y="368.5" width="10" height="12.5" as="geometry" />
        </mxCell>
        <mxCell id="M235wbPJO0eQFkBtWyqc-64" value="" style="endArrow=none;html=1;strokeColor=#7EA6E0;entryX=0;entryY=0.75;entryDx=0;entryDy=0;strokeWidth=3;" parent="1" target="M235wbPJO0eQFkBtWyqc-60" edge="1">
          <mxGeometry width="50" height="50" relative="1" as="geometry">
            <mxPoint x="1556" y="378" as="sourcePoint" />
            <mxPoint x="527" y="400" as="targetPoint" />
          </mxGeometry>
        </mxCell>
        <mxCell id="M235wbPJO0eQFkBtWyqc-67" value="USB" style="rounded=0;whiteSpace=wrap;html=1;" parent="1" vertex="1">
          <mxGeometry x="789.25" y="441" width="26.75" height="16" as="geometry" />
        </mxCell>
        <mxCell id="M235wbPJO0eQFkBtWyqc-69" value="" style="endArrow=none;html=1;fillColor=#e1d5e7;exitX=1;exitY=0.5;exitDx=0;exitDy=0;strokeWidth=2;entryX=0;entryY=0.5;entryDx=0;entryDy=0;" parent="1" source="jf7ATLeE-LSNP4t4z8-3-1" target="XdRA2iNh4uvHcI7RJy0W-1" edge="1">
          <mxGeometry width="50" height="50" relative="1" as="geometry">
            <mxPoint x="739" y="445.5" as="sourcePoint" />
            <mxPoint x="670" y="449" as="targetPoint" />
          </mxGeometry>
        </mxCell>
        <mxCell id="jf7ATLeE-LSNP4t4z8-3-12" value="&lt;font color=&quot;#000000&quot; style=&quot;font-size: 10px&quot;&gt;Data only&lt;/font&gt;" style="edgeLabel;html=1;align=center;verticalAlign=middle;resizable=0;points=[];fontColor=#A8A8A8;fontSize=10;" parent="M235wbPJO0eQFkBtWyqc-69" vertex="1" connectable="0">
          <mxGeometry x="0.4016" y="-3" relative="1" as="geometry">
            <mxPoint x="-14" y="-19" as="offset" />
          </mxGeometry>
        </mxCell>
        <mxCell id="M235wbPJO0eQFkBtWyqc-74" value="Supra MD 06-EU/SP&amp;nbsp;" style="text;html=1;strokeColor=none;fillColor=none;align=center;verticalAlign=middle;whiteSpace=wrap;rounded=0;" parent="1" vertex="1">
          <mxGeometry x="569" y="696" width="120" height="10" as="geometry" />
        </mxCell>
        <mxCell id="mm1vFh-hCThWvfkdCHbw-8" style="edgeStyle=orthogonalEdgeStyle;rounded=1;jumpStyle=arc;jumpSize=12;orthogonalLoop=1;jettySize=auto;html=1;exitX=0.5;exitY=0;exitDx=0;exitDy=0;entryX=0.5;entryY=1;entryDx=0;entryDy=0;dashed=1;endArrow=none;endFill=0;fontSize=10;strokeWidth=4;fillColor=#d80073;strokeColor=#A50040;" parent="1" source="M235wbPJO0eQFkBtWyqc-83" target="mm1vFh-hCThWvfkdCHbw-6" edge="1">
          <mxGeometry relative="1" as="geometry">
            <mxPoint x="732.66" y="464.25" as="sourcePoint" />
          </mxGeometry>
        </mxCell>
        <mxCell id="M235wbPJO0eQFkBtWyqc-83" value="&lt;b style=&quot;font-size: 8px&quot;&gt;UpTone LPS1.2&lt;/b&gt;&lt;br style=&quot;font-size: 8px&quot;&gt;&lt;span style=&quot;font-size: 8px&quot;&gt;Out: 5 / &lt;b&gt;&lt;u&gt;7&lt;/u&gt;&lt;/b&gt; /9V &amp;nbsp;- 1,1A&lt;br&gt;&lt;/span&gt;&lt;font style=&quot;font-size: 8px&quot; color=&quot;#4d4d4d&quot;&gt;&lt;b&gt;&lt;span&gt;In:7 - 24V &amp;gt;=&amp;nbsp;&lt;/span&gt;&lt;span&gt;35W&lt;/span&gt;&lt;/b&gt;&lt;/font&gt;&lt;span style=&quot;font-size: 8px&quot;&gt;&lt;br&gt;&lt;/span&gt;" style="rounded=1;whiteSpace=wrap;html=1;arcSize=50;fontSize=10;fillColor=#fff2cc;strokeColor=#d6b656;gradientColor=#FFD966;" parent="1" vertex="1">
          <mxGeometry x="660.66" y="469.25" width="100" height="35.75" as="geometry" />
        </mxCell>
        <mxCell id="M235wbPJO0eQFkBtWyqc-100" value="" style="shape=parallelogram;perimeter=parallelogramPerimeter;whiteSpace=wrap;html=1;strokeColor=#FF00FF;strokeWidth=2;" parent="1" vertex="1">
          <mxGeometry x="829" y="412" width="52" height="14" as="geometry" />
        </mxCell>
        <mxCell id="M235wbPJO0eQFkBtWyqc-101" value="I2S" style="text;html=1;strokeColor=none;fillColor=none;align=center;verticalAlign=middle;whiteSpace=wrap;rounded=0;" parent="1" vertex="1">
          <mxGeometry x="829" y="409" width="45" height="17.25" as="geometry" />
        </mxCell>
        <mxCell id="M235wbPJO0eQFkBtWyqc-66" value="Matrix" style="text;html=1;strokeColor=none;fillColor=none;align=center;verticalAlign=middle;whiteSpace=wrap;rounded=0;" parent="1" vertex="1">
          <mxGeometry x="823.5" y="424" width="40" height="30" as="geometry" />
        </mxCell>
        <mxCell id="M235wbPJO0eQFkBtWyqc-78" value="" style="ellipse;whiteSpace=wrap;html=1;aspect=fixed;" parent="1" vertex="1">
          <mxGeometry x="863.5" y="413" width="10" height="10" as="geometry" />
        </mxCell>
        <mxCell id="M235wbPJO0eQFkBtWyqc-105" value="" style="endArrow=none;html=1;fillColor=#f8cecc;strokeColor=#B85450;strokeWidth=3;exitX=0.674;exitY=-0.002;exitDx=0;exitDy=0;exitPerimeter=0;" parent="1" source="1uxTvB8G4I0eHR2gSPLV-1" target="M235wbPJO0eQFkBtWyqc-78" edge="1">
          <mxGeometry width="50" height="50" relative="1" as="geometry">
            <mxPoint x="929.5" y="530" as="sourcePoint" />
            <mxPoint x="885" y="300" as="targetPoint" />
          </mxGeometry>
        </mxCell>
        <mxCell id="M235wbPJO0eQFkBtWyqc-113" value="DirectStream DAC" style="text;html=1;strokeColor=none;fillColor=none;align=center;verticalAlign=middle;whiteSpace=wrap;rounded=0;" parent="1" vertex="1">
          <mxGeometry x="626" y="188" width="100" height="20" as="geometry" />
        </mxCell>
        <mxCell id="M235wbPJO0eQFkBtWyqc-114" value="" style="endArrow=none;html=1;strokeColor=#FF33FF;strokeWidth=5;exitX=0;exitY=0.25;exitDx=0;exitDy=0;entryX=1;entryY=0.25;entryDx=0;entryDy=0;" parent="1" source="M235wbPJO0eQFkBtWyqc-100" target="76j5sk3wCB9ZU_lOgHT8-90" edge="1">
          <mxGeometry width="50" height="50" relative="1" as="geometry">
            <mxPoint x="657" y="430" as="sourcePoint" />
            <mxPoint x="707" y="380" as="targetPoint" />
            <Array as="points" />
          </mxGeometry>
        </mxCell>
        <mxCell id="4km1vffhdAZKjgbEBgEC-2" value="W4W Silver Sphere&amp;nbsp;HDMI2.1" style="edgeLabel;html=1;align=center;verticalAlign=middle;resizable=0;points=[];rotation=-90;" parent="M235wbPJO0eQFkBtWyqc-114" vertex="1" connectable="0">
          <mxGeometry x="-0.0439" y="-1" relative="1" as="geometry">
            <mxPoint x="7" y="3" as="offset" />
          </mxGeometry>
        </mxCell>
        <mxCell id="76j5sk3wCB9ZU_lOgHT8-7" value="P10" style="text;html=1;strokeColor=none;fillColor=none;align=center;verticalAlign=middle;whiteSpace=wrap;rounded=0;" parent="1" vertex="1">
          <mxGeometry x="295" width="40" height="60" as="geometry" />
        </mxCell>
        <mxCell id="76j5sk3wCB9ZU_lOgHT8-10" value="" style="ellipse;whiteSpace=wrap;html=1;aspect=fixed;" parent="1" vertex="1">
          <mxGeometry x="191" y="70" width="40" height="40" as="geometry" />
        </mxCell>
        <mxCell id="76j5sk3wCB9ZU_lOgHT8-11" value="" style="ellipse;whiteSpace=wrap;html=1;aspect=fixed;" parent="1" vertex="1">
          <mxGeometry x="239" y="70" width="40" height="40" as="geometry" />
        </mxCell>
        <mxCell id="cdXIdKlyyr9PJ7xX7_ld-2" style="edgeStyle=orthogonalEdgeStyle;rounded=0;orthogonalLoop=1;jettySize=auto;html=1;exitX=0;exitY=0.5;exitDx=0;exitDy=0;strokeWidth=3;strokeColor=#FF0000;jumpStyle=arc;entryX=0;entryY=0.5;entryDx=0;entryDy=0;" parent="1" source="76j5sk3wCB9ZU_lOgHT8-15" target="M235wbPJO0eQFkBtWyqc-25" edge="1">
          <mxGeometry relative="1" as="geometry">
            <Array as="points">
              <mxPoint x="10" y="150" />
              <mxPoint x="10" y="701" />
            </Array>
            <mxPoint x="210" y="701" as="targetPoint" />
          </mxGeometry>
        </mxCell>
        <mxCell id="76j5sk3wCB9ZU_lOgHT8-15" value="" style="ellipse;whiteSpace=wrap;html=1;aspect=fixed;" parent="1" vertex="1">
          <mxGeometry x="204" y="130" width="40" height="40" as="geometry" />
        </mxCell>
        <mxCell id="76j5sk3wCB9ZU_lOgHT8-16" value="" style="ellipse;whiteSpace=wrap;html=1;aspect=fixed;" parent="1" vertex="1">
          <mxGeometry x="250" y="130" width="40" height="40" as="geometry" />
        </mxCell>
        <mxCell id="76j5sk3wCB9ZU_lOgHT8-17" value="" style="ellipse;whiteSpace=wrap;html=1;aspect=fixed;" parent="1" vertex="1">
          <mxGeometry x="297" y="130" width="40" height="40" as="geometry" />
        </mxCell>
        <mxCell id="76j5sk3wCB9ZU_lOgHT8-18" value="" style="ellipse;whiteSpace=wrap;html=1;aspect=fixed;" parent="1" vertex="1">
          <mxGeometry x="343" y="130" width="40" height="40" as="geometry" />
        </mxCell>
        <mxCell id="76j5sk3wCB9ZU_lOgHT8-19" value="" style="ellipse;whiteSpace=wrap;html=1;aspect=fixed;" parent="1" vertex="1">
          <mxGeometry x="385" y="130" width="40" height="40" as="geometry" />
        </mxCell>
        <mxCell id="76j5sk3wCB9ZU_lOgHT8-20" value="" style="endArrow=none;html=1;strokeWidth=2;entryX=0.675;entryY=0.958;entryDx=0;entryDy=0;strokeColor=#FF3333;exitX=0;exitY=0.5;exitDx=0;exitDy=0;entryPerimeter=0;" parent="1" source="M235wbPJO0eQFkBtWyqc-112" target="76j5sk3wCB9ZU_lOgHT8-10" edge="1">
          <mxGeometry width="50" height="50" relative="1" as="geometry">
            <mxPoint x="462" y="200" as="sourcePoint" />
            <mxPoint x="447" y="390" as="targetPoint" />
            <Array as="points">
              <mxPoint x="248" y="209" />
              <mxPoint x="247" y="119" />
            </Array>
          </mxGeometry>
        </mxCell>
        <mxCell id="76j5sk3wCB9ZU_lOgHT8-21" value="AW400" style="rounded=1;whiteSpace=wrap;html=1;fillColor=#e1d5e7;strokeColor=#9673a6;" parent="1" vertex="1">
          <mxGeometry x="526" width="120" height="60" as="geometry" />
        </mxCell>
        <mxCell id="76j5sk3wCB9ZU_lOgHT8-22" value="AW400" style="rounded=1;whiteSpace=wrap;html=1;fillColor=#e1d5e7;strokeColor=#9673a6;" parent="1" vertex="1">
          <mxGeometry x="727" width="120" height="60" as="geometry" />
        </mxCell>
        <mxCell id="76j5sk3wCB9ZU_lOgHT8-23" value="&lt;br&gt;Ref5SE" style="rounded=1;whiteSpace=wrap;html=1;arcSize=50;fillColor=#e1d5e7;strokeColor=#9673a6;" parent="1" vertex="1">
          <mxGeometry x="486" y="80" width="400" height="69" as="geometry" />
        </mxCell>
        <mxCell id="76j5sk3wCB9ZU_lOgHT8-24" value="" style="endArrow=none;html=1;strokeColor=#FF3333;strokeWidth=2;entryX=0;entryY=0.75;entryDx=0;entryDy=0;exitX=1;exitY=0.5;exitDx=0;exitDy=0;" parent="1" source="76j5sk3wCB9ZU_lOgHT8-19" target="76j5sk3wCB9ZU_lOgHT8-22" edge="1">
          <mxGeometry width="50" height="50" relative="1" as="geometry">
            <mxPoint x="517" y="400" as="sourcePoint" />
            <mxPoint x="567" y="350" as="targetPoint" />
            <Array as="points">
              <mxPoint x="470" y="150" />
              <mxPoint x="470" y="70" />
              <mxPoint x="700" y="70" />
              <mxPoint x="700" y="45" />
            </Array>
          </mxGeometry>
        </mxCell>
        <mxCell id="76j5sk3wCB9ZU_lOgHT8-25" value="" style="endArrow=none;html=1;strokeColor=#FF3333;strokeWidth=2;entryX=0;entryY=0.5;entryDx=0;entryDy=0;exitX=0.5;exitY=1;exitDx=0;exitDy=0;" parent="1" source="76j5sk3wCB9ZU_lOgHT8-18" target="76j5sk3wCB9ZU_lOgHT8-21" edge="1">
          <mxGeometry width="50" height="50" relative="1" as="geometry">
            <mxPoint x="347" y="100" as="sourcePoint" />
            <mxPoint x="720" y="60" as="targetPoint" />
            <Array as="points">
              <mxPoint x="363" y="200" />
              <mxPoint x="450" y="200" />
              <mxPoint x="450" y="30" />
            </Array>
          </mxGeometry>
        </mxCell>
        <mxCell id="76j5sk3wCB9ZU_lOgHT8-26" value="" style="endArrow=none;html=1;strokeColor=#FF3333;strokeWidth=2;entryX=0;entryY=0.5;entryDx=0;entryDy=0;exitX=0.5;exitY=1;exitDx=0;exitDy=0;" parent="1" source="76j5sk3wCB9ZU_lOgHT8-12" target="76j5sk3wCB9ZU_lOgHT8-23" edge="1">
          <mxGeometry width="50" height="50" relative="1" as="geometry">
            <mxPoint x="357" y="90" as="sourcePoint" />
            <mxPoint x="752" y="70" as="targetPoint" />
            <Array as="points">
              <mxPoint x="330" y="120" />
              <mxPoint x="380" y="120" />
            </Array>
          </mxGeometry>
        </mxCell>
        <mxCell id="76j5sk3wCB9ZU_lOgHT8-30" value="" style="endArrow=none;html=1;strokeWidth=2;entryX=0.5;entryY=1;entryDx=0;entryDy=0;exitX=0.5;exitY=0;exitDx=0;exitDy=0;fillColor=#b0e3e6;strokeColor=#97D077;" parent="1" source="76j5sk3wCB9ZU_lOgHT8-32" target="76j5sk3wCB9ZU_lOgHT8-31" edge="1">
          <mxGeometry width="50" height="50" relative="1" as="geometry">
            <mxPoint x="556" y="180" as="sourcePoint" />
            <mxPoint x="556" y="150" as="targetPoint" />
          </mxGeometry>
        </mxCell>
        <mxCell id="76j5sk3wCB9ZU_lOgHT8-31" value="CD" style="ellipse;whiteSpace=wrap;html=1;aspect=fixed;" parent="1" vertex="1">
          <mxGeometry x="503" y="120" width="20" height="20" as="geometry" />
        </mxCell>
        <mxCell id="76j5sk3wCB9ZU_lOgHT8-32" value="" style="ellipse;whiteSpace=wrap;html=1;aspect=fixed;" parent="1" vertex="1">
          <mxGeometry x="505" y="198" width="20" height="20" as="geometry" />
        </mxCell>
        <mxCell id="76j5sk3wCB9ZU_lOgHT8-33" value="" style="ellipse;whiteSpace=wrap;html=1;aspect=fixed;" parent="1" vertex="1">
          <mxGeometry x="857" y="198" width="20" height="20" as="geometry" />
        </mxCell>
        <mxCell id="76j5sk3wCB9ZU_lOgHT8-34" value="CD" style="ellipse;whiteSpace=wrap;html=1;aspect=fixed;" parent="1" vertex="1">
          <mxGeometry x="857" y="120" width="20" height="20" as="geometry" />
        </mxCell>
        <mxCell id="76j5sk3wCB9ZU_lOgHT8-35" value="" style="endArrow=none;html=1;strokeWidth=2;entryX=0.5;entryY=1;entryDx=0;entryDy=0;exitX=0.5;exitY=0;exitDx=0;exitDy=0;strokeColor=#97D077;" parent="1" source="76j5sk3wCB9ZU_lOgHT8-33" target="76j5sk3wCB9ZU_lOgHT8-34" edge="1">
          <mxGeometry width="50" height="50" relative="1" as="geometry">
            <mxPoint x="566" y="200" as="sourcePoint" />
            <mxPoint x="566" y="130" as="targetPoint" />
          </mxGeometry>
        </mxCell>
        <mxCell id="76j5sk3wCB9ZU_lOgHT8-36" value="" style="endArrow=none;html=1;strokeWidth=2;entryX=0.5;entryY=1;entryDx=0;entryDy=0;fillColor=#b0e3e6;strokeColor=#97D077;exitX=0.5;exitY=0;exitDx=0;exitDy=0;entryPerimeter=0;" parent="1" source="73kRBJL7OHnVRC0ZUZlv-14" target="76j5sk3wCB9ZU_lOgHT8-37" edge="1">
          <mxGeometry width="50" height="50" relative="1" as="geometry">
            <mxPoint x="723" y="109.99999999999977" as="sourcePoint" />
            <mxPoint x="640" y="131" as="targetPoint" />
          </mxGeometry>
        </mxCell>
        <mxCell id="76j5sk3wCB9ZU_lOgHT8-37" value="" style="ellipse;whiteSpace=wrap;html=1;aspect=fixed;" parent="1" vertex="1">
          <mxGeometry x="615" y="31" width="20" height="20" as="geometry" />
        </mxCell>
        <mxCell id="76j5sk3wCB9ZU_lOgHT8-38" value="" style="ellipse;whiteSpace=wrap;html=1;aspect=fixed;" parent="1" vertex="1">
          <mxGeometry x="738" y="30" width="20" height="20" as="geometry" />
        </mxCell>
        <mxCell id="76j5sk3wCB9ZU_lOgHT8-39" value="PH" style="ellipse;whiteSpace=wrap;html=1;aspect=fixed;" parent="1" vertex="1">
          <mxGeometry x="548" y="120" width="20" height="20" as="geometry" />
        </mxCell>
        <mxCell id="76j5sk3wCB9ZU_lOgHT8-40" value="PH" style="ellipse;whiteSpace=wrap;html=1;aspect=fixed;" parent="1" vertex="1">
          <mxGeometry x="811" y="120" width="20" height="20" as="geometry" />
        </mxCell>
        <mxCell id="76j5sk3wCB9ZU_lOgHT8-41" value="" style="endArrow=none;html=1;strokeWidth=2;fillColor=#b0e3e6;strokeColor=#97D077;exitX=0.5;exitY=0;exitDx=0;exitDy=0;entryX=0.5;entryY=1;entryDx=0;entryDy=0;" parent="1" source="73kRBJL7OHnVRC0ZUZlv-15" target="76j5sk3wCB9ZU_lOgHT8-38" edge="1">
          <mxGeometry width="50" height="50" relative="1" as="geometry">
            <mxPoint x="707" y="108.99999999999977" as="sourcePoint" />
            <mxPoint x="727" y="50" as="targetPoint" />
          </mxGeometry>
        </mxCell>
        <mxCell id="76j5sk3wCB9ZU_lOgHT8-51" value="" style="endArrow=none;html=1;fillColor=#f8cecc;entryX=0.5;entryY=0;entryDx=0;entryDy=0;jumpStyle=arc;jumpSize=12;exitX=0.5;exitY=1;exitDx=0;exitDy=0;strokeWidth=2;strokeColor=#FF0000;" parent="1" source="M235wbPJO0eQFkBtWyqc-37" target="M235wbPJO0eQFkBtWyqc-7" edge="1">
          <mxGeometry width="50" height="50" relative="1" as="geometry">
            <mxPoint x="385" y="333" as="sourcePoint" />
            <mxPoint x="402" y="393" as="targetPoint" />
          </mxGeometry>
        </mxCell>
        <mxCell id="M235wbPJO0eQFkBtWyqc-37" value="Vero4k" style="text;html=1;align=center;verticalAlign=middle;whiteSpace=wrap;rounded=0;" parent="1" vertex="1">
          <mxGeometry x="412" y="283" width="40" height="20" as="geometry" />
        </mxCell>
        <mxCell id="76j5sk3wCB9ZU_lOgHT8-59" value="" style="endArrow=none;html=1;strokeWidth=1;exitX=1;exitY=0.5;exitDx=0;exitDy=0;entryX=0;entryY=0.5;entryDx=0;entryDy=0;" parent="1" target="M235wbPJO0eQFkBtWyqc-36" edge="1">
          <mxGeometry width="50" height="50" relative="1" as="geometry">
            <mxPoint x="322" y="293" as="sourcePoint" />
            <mxPoint x="375" y="323" as="targetPoint" />
          </mxGeometry>
        </mxCell>
        <mxCell id="4km1vffhdAZKjgbEBgEC-1" value="&amp;nbsp;HDMI&amp;nbsp;" style="edgeLabel;html=1;align=center;verticalAlign=middle;resizable=0;points=[];" parent="76j5sk3wCB9ZU_lOgHT8-59" vertex="1" connectable="0">
          <mxGeometry x="-0.2745" y="-2" relative="1" as="geometry">
            <mxPoint as="offset" />
          </mxGeometry>
        </mxCell>
        <mxCell id="76j5sk3wCB9ZU_lOgHT8-60" value="PJ&lt;br&gt;int. SMPS" style="rounded=1;whiteSpace=wrap;html=1;fillColor=#f8cecc;arcSize=50;strokeColor=#b85450;" parent="1" vertex="1">
          <mxGeometry x="202" y="275" width="120" height="34" as="geometry" />
        </mxCell>
        <mxCell id="76j5sk3wCB9ZU_lOgHT8-61" value="" style="endArrow=none;html=1;strokeWidth=5;strokeColor=#CC0000;exitX=0;exitY=0.5;exitDx=0;exitDy=0;" parent="1" source="76j5sk3wCB9ZU_lOgHT8-60" edge="1">
          <mxGeometry width="50" height="50" relative="1" as="geometry">
            <mxPoint x="537" y="170" as="sourcePoint" />
            <mxPoint x="90" y="292" as="targetPoint" />
          </mxGeometry>
        </mxCell>
        <mxCell id="76j5sk3wCB9ZU_lOgHT8-67" value="" style="endArrow=none;html=1;fillColor=#f8cecc;strokeColor=#B85450;exitX=0.478;exitY=0.025;exitDx=0;exitDy=0;strokeWidth=2;entryX=0.5;entryY=1;entryDx=0;entryDy=0;exitPerimeter=0;" parent="1" source="_X-WQwoRXDPAYax9laIT-1" target="M235wbPJO0eQFkBtWyqc-53" edge="1">
          <mxGeometry width="50" height="50" relative="1" as="geometry">
            <mxPoint x="600" y="560" as="sourcePoint" />
            <mxPoint x="601.5" y="516.1999999999998" as="targetPoint" />
            <Array as="points">
              <mxPoint x="633" y="530" />
              <mxPoint x="601" y="530" />
            </Array>
          </mxGeometry>
        </mxCell>
        <mxCell id="76j5sk3wCB9ZU_lOgHT8-69" value="SuperCap?" style="ellipse;shape=cloud;whiteSpace=wrap;html=1;fillColor=#FFFF66;dashed=1;opacity=25;textOpacity=25;" parent="1" vertex="1">
          <mxGeometry x="1667.5" y="383.5" width="90" height="50" as="geometry" />
        </mxCell>
        <mxCell id="76j5sk3wCB9ZU_lOgHT8-70" value="" style="endArrow=none;html=1;fillColor=#f8cecc;strokeColor=#B85450;exitX=0.75;exitY=0;exitDx=0;exitDy=0;entryX=0.5;entryY=1;entryDx=0;entryDy=0;" parent="1" source="M235wbPJO0eQFkBtWyqc-16" target="76j5sk3wCB9ZU_lOgHT8-69" edge="1">
          <mxGeometry width="50" height="50" relative="1" as="geometry">
            <mxPoint x="1710" y="441" as="sourcePoint" />
            <mxPoint x="1712.5" y="323.5" as="targetPoint" />
          </mxGeometry>
        </mxCell>
        <mxCell id="76j5sk3wCB9ZU_lOgHT8-89" value="" style="rounded=0;whiteSpace=wrap;html=1;" parent="1" vertex="1">
          <mxGeometry x="591" y="203" width="10" height="10" as="geometry" />
        </mxCell>
        <mxCell id="76j5sk3wCB9ZU_lOgHT8-90" value="I2S" style="text;html=1;fillColor=none;align=center;verticalAlign=middle;whiteSpace=wrap;rounded=0;" parent="1" vertex="1">
          <mxGeometry x="786" y="190.5" width="50" height="35" as="geometry" />
        </mxCell>
        <mxCell id="76j5sk3wCB9ZU_lOgHT8-93" value="Toslink" style="text;html=1;strokeColor=none;fillColor=none;align=center;verticalAlign=middle;whiteSpace=wrap;rounded=0;" parent="1" vertex="1">
          <mxGeometry x="571" y="178" width="50" height="35" as="geometry" />
        </mxCell>
        <mxCell id="76j5sk3wCB9ZU_lOgHT8-101" value="" style="endArrow=classic;html=1;entryX=0.5;entryY=1;entryDx=0;entryDy=0;fillColor=#fad7ac;rounded=1;strokeWidth=3;exitX=1;exitY=0.5;exitDx=0;exitDy=0;strokeColor=#FF9933;" parent="1" source="M235wbPJO0eQFkBtWyqc-36" target="76j5sk3wCB9ZU_lOgHT8-93" edge="1">
          <mxGeometry width="50" height="50" relative="1" as="geometry">
            <mxPoint x="467" y="243" as="sourcePoint" />
            <mxPoint x="362" y="300" as="targetPoint" />
            <Array as="points">
              <mxPoint x="596" y="293" />
            </Array>
          </mxGeometry>
        </mxCell>
        <mxCell id="jf7ATLeE-LSNP4t4z8-3-1" value="&lt;font style=&quot;font-size: 10px&quot;&gt;JTBG&lt;/font&gt;" style="rounded=1;whiteSpace=wrap;html=1;strokeWidth=1;" parent="1" vertex="1">
          <mxGeometry x="595" y="443" width="40" height="13" as="geometry" />
        </mxCell>
        <mxCell id="jf7ATLeE-LSNP4t4z8-3-5" value="&lt;font color=&quot;#000000&quot;&gt;ECP-1&lt;br&gt;&lt;/font&gt;40V / 200mA AC&lt;br&gt;(36V?)&lt;font color=&quot;#000000&quot;&gt;&lt;br&gt;&lt;/font&gt;" style="rounded=1;whiteSpace=wrap;html=1;strokeColor=#9673a6;fillColor=#e1d5e7;" parent="1" vertex="1">
          <mxGeometry x="940" y="166.75" width="60" height="63.25" as="geometry" />
        </mxCell>
        <mxCell id="jf7ATLeE-LSNP4t4z8-3-6" value="" style="endArrow=none;html=1;fillColor=#f8cecc;strokeColor=#B85450;exitX=0.5;exitY=0;exitDx=0;exitDy=0;curved=1;strokeWidth=2;" parent="1" source="-6cQfzMzyGC51tP0Eqjj-2" edge="1">
          <mxGeometry width="50" height="50" relative="1" as="geometry">
            <mxPoint x="791.25" y="652.5" as="sourcePoint" />
            <mxPoint x="977" y="230" as="targetPoint" />
            <Array as="points" />
          </mxGeometry>
        </mxCell>
        <mxCell id="jf7ATLeE-LSNP4t4z8-3-7" value="" style="endArrow=none;html=1;strokeWidth=4;entryX=0.5;entryY=1;entryDx=0;entryDy=0;exitX=0;exitY=0.25;exitDx=0;exitDy=0;strokeColor=#97D077;dashed=1;dashPattern=1 1;" parent="1" source="jf7ATLeE-LSNP4t4z8-3-5" target="76j5sk3wCB9ZU_lOgHT8-40" edge="1">
          <mxGeometry width="50" height="50" relative="1" as="geometry">
            <mxPoint x="802" y="200" as="sourcePoint" />
            <mxPoint x="802" y="130" as="targetPoint" />
            <Array as="points">
              <mxPoint x="910" y="160" />
              <mxPoint x="821" y="160" />
            </Array>
          </mxGeometry>
        </mxCell>
        <mxCell id="1uxTvB8G4I0eHR2gSPLV-5" style="rounded=1;orthogonalLoop=1;jettySize=auto;html=1;exitX=1;exitY=1;exitDx=0;exitDy=0;entryX=0.5;entryY=0;entryDx=0;entryDy=0;strokeColor=#FF0000;endArrow=none;endFill=0;strokeWidth=2;" parent="1" source="jf7ATLeE-LSNP4t4z8-3-9" target="1uxTvB8G4I0eHR2gSPLV-2" edge="1">
          <mxGeometry relative="1" as="geometry" />
        </mxCell>
        <mxCell id="jf7ATLeE-LSNP4t4z8-3-9" value="&lt;font color=&quot;#000000&quot;&gt;Xpression-III&lt;br&gt;&lt;/font&gt;&lt;span style=&quot;color: rgb(0 , 0 , 0)&quot;&gt;16V/500mA AC&lt;/span&gt;&lt;font color=&quot;#000000&quot;&gt;&lt;br&gt;Pro-Ject 8,2C&lt;br&gt;Ortofon&lt;br&gt;2M Black&lt;br&gt;&lt;/font&gt;" style="ellipse;whiteSpace=wrap;html=1;aspect=fixed;strokeColor=#9673a6;fillColor=#e1d5e7;" parent="1" vertex="1">
          <mxGeometry x="958" y="24" width="100" height="100" as="geometry" />
        </mxCell>
        <mxCell id="jf7ATLeE-LSNP4t4z8-3-10" value="" style="endArrow=none;html=1;fillColor=#d80073;exitX=0;exitY=0.5;exitDx=0;exitDy=0;strokeWidth=4;entryX=0.5;entryY=1;entryDx=0;entryDy=0;strokeColor=#A50040;" parent="1" source="M235wbPJO0eQFkBtWyqc-31" target="1uxTvB8G4I0eHR2gSPLV-6" edge="1">
          <mxGeometry width="50" height="50" relative="1" as="geometry">
            <mxPoint x="1007" y="735" as="sourcePoint" />
            <mxPoint x="1110" y="260" as="targetPoint" />
          </mxGeometry>
        </mxCell>
        <mxCell id="jf7ATLeE-LSNP4t4z8-3-11" value="" style="endArrow=none;html=1;strokeWidth=3;entryX=0;entryY=1;entryDx=0;entryDy=0;exitX=0.5;exitY=0;exitDx=0;exitDy=0;strokeColor=#97D077;" parent="1" source="jf7ATLeE-LSNP4t4z8-3-5" target="jf7ATLeE-LSNP4t4z8-3-9" edge="1">
          <mxGeometry width="50" height="50" relative="1" as="geometry">
            <mxPoint x="925" y="195" as="sourcePoint" />
            <mxPoint x="845" y="135" as="targetPoint" />
          </mxGeometry>
        </mxCell>
        <mxCell id="53s6JgEZ6me2CBDkBuSd-1" value="" style="endArrow=none;html=1;fillColor=#f8cecc;strokeColor=#B85450;exitX=0.475;exitY=-0.006;exitDx=0;exitDy=0;strokeWidth=2;jumpStyle=arc;jumpSize=12;curved=1;exitPerimeter=0;entryX=0;entryY=0.5;entryDx=0;entryDy=0;" parent="1" source="_X-WQwoRXDPAYax9laIT-1" target="XdRA2iNh4uvHcI7RJy0W-1" edge="1">
          <mxGeometry width="50" height="50" relative="1" as="geometry">
            <mxPoint x="683" y="564" as="sourcePoint" />
            <mxPoint x="670" y="457" as="targetPoint" />
            <Array as="points">
              <mxPoint x="649" y="489" />
              <mxPoint x="649" y="460" />
            </Array>
          </mxGeometry>
        </mxCell>
        <mxCell id="53s6JgEZ6me2CBDkBuSd-7" value="" style="endArrow=none;html=1;fillColor=#dae8fc;exitX=0.5;exitY=0;exitDx=0;exitDy=0;entryX=0.5;entryY=1;entryDx=0;entryDy=0;strokeWidth=3;strokeColor=#7EA6E0;" parent="1" source="M235wbPJO0eQFkBtWyqc-56" edge="1">
          <mxGeometry width="50" height="50" relative="1" as="geometry">
            <mxPoint x="1655" y="308.5" as="sourcePoint" />
            <mxPoint x="1656" y="286" as="targetPoint" />
          </mxGeometry>
        </mxCell>
        <mxCell id="M235wbPJO0eQFkBtWyqc-11" value="" style="endArrow=none;html=1;exitX=0.5;exitY=0;exitDx=0;exitDy=0;entryX=0.25;entryY=1;entryDx=0;entryDy=0;strokeColor=#FF0000;strokeWidth=2;jumpStyle=arc;jumpSize=8;" parent="1" source="M235wbPJO0eQFkBtWyqc-14" target="M235wbPJO0eQFkBtWyqc-1" edge="1">
          <mxGeometry width="50" height="50" relative="1" as="geometry">
            <mxPoint x="167" y="480" as="sourcePoint" />
            <mxPoint x="152" y="490" as="targetPoint" />
          </mxGeometry>
        </mxCell>
        <mxCell id="-6cQfzMzyGC51tP0Eqjj-2" value="&lt;span&gt;&lt;font style=&quot;font-size: 13px&quot;&gt;ECP-1 PSU Upgrade MacKenzie&lt;/font&gt;&lt;/span&gt;&lt;span&gt;&lt;font style=&quot;font-size: 13px&quot;&gt;&lt;br&gt;&lt;/font&gt;&lt;/span&gt;" style="rounded=1;whiteSpace=wrap;html=1;fillColor=#E1D5E7;" parent="1" vertex="1">
          <mxGeometry x="935" y="530" width="80" height="60" as="geometry" />
        </mxCell>
        <mxCell id="1uxTvB8G4I0eHR2gSPLV-1" value="Farad Super 3&lt;br&gt;7V / 3A&lt;br&gt;+ 1m level 2DC cable&lt;br&gt;" style="rounded=1;whiteSpace=wrap;html=1;arcSize=50;fillColor=#fff2cc;strokeColor=#d6b656;gradientColor=#FFD966;" parent="1" vertex="1">
          <mxGeometry x="781" y="548" width="134" height="53" as="geometry" />
        </mxCell>
        <mxCell id="1uxTvB8G4I0eHR2gSPLV-2" value="SpeedBox S2&lt;br&gt;18V / 500mA DC" style="rounded=0;whiteSpace=wrap;html=1;fillColor=#e1d5e7;strokeColor=#9673a6;" parent="1" vertex="1">
          <mxGeometry x="1009" y="166.75" width="71" height="63.25" as="geometry" />
        </mxCell>
        <mxCell id="mm1vFh-hCThWvfkdCHbw-2" style="edgeStyle=orthogonalEdgeStyle;rounded=1;jumpStyle=arc;jumpSize=12;orthogonalLoop=1;jettySize=auto;html=1;exitX=0.25;exitY=0;exitDx=0;exitDy=0;entryX=0.25;entryY=1;entryDx=0;entryDy=0;strokeColor=none;" parent="1" source="1uxTvB8G4I0eHR2gSPLV-6" target="M235wbPJO0eQFkBtWyqc-83" edge="1">
          <mxGeometry relative="1" as="geometry" />
        </mxCell>
        <mxCell id="mm1vFh-hCThWvfkdCHbw-4" style="edgeStyle=orthogonalEdgeStyle;rounded=1;jumpStyle=arc;jumpSize=12;orthogonalLoop=1;jettySize=auto;html=1;exitX=0.421;exitY=-0.001;exitDx=0;exitDy=0;entryX=0.5;entryY=1;entryDx=0;entryDy=0;endArrow=none;endFill=0;fillColor=#d80073;strokeColor=#A50040;strokeWidth=4;exitPerimeter=0;dashed=1;dashPattern=1 1;" parent="1" source="1uxTvB8G4I0eHR2gSPLV-6" target="M235wbPJO0eQFkBtWyqc-83" edge="1">
          <mxGeometry relative="1" as="geometry">
            <Array as="points">
              <mxPoint x="1053" y="511" />
              <mxPoint x="890" y="511" />
              <mxPoint x="711" y="512" />
            </Array>
          </mxGeometry>
        </mxCell>
        <mxCell id="1uxTvB8G4I0eHR2gSPLV-6" value="&lt;font size=&quot;2&quot;&gt;BOTW II&lt;br&gt;SBooster&lt;br&gt;18-19V 36W&lt;br&gt;&lt;/font&gt;" style="rounded=1;whiteSpace=wrap;html=1;fillColor=#E1D5E7;" parent="1" vertex="1">
          <mxGeometry x="1020" y="531" width="79" height="59" as="geometry" />
        </mxCell>
        <mxCell id="1uxTvB8G4I0eHR2gSPLV-7" value="" style="endArrow=none;html=1;strokeColor=#A50040;strokeWidth=4;fillColor=#d80073;dashed=1;dashPattern=1 1;" parent="1" edge="1">
          <mxGeometry width="50" height="50" relative="1" as="geometry">
            <mxPoint x="1054" y="531" as="sourcePoint" />
            <mxPoint x="1054" y="230" as="targetPoint" />
          </mxGeometry>
        </mxCell>
        <mxCell id="mm1vFh-hCThWvfkdCHbw-1" value="" style="endArrow=none;html=1;strokeColor=none;jumpStyle=arc;jumpSize=12;" parent="1" edge="1">
          <mxGeometry width="50" height="50" relative="1" as="geometry">
            <mxPoint x="638" y="429" as="sourcePoint" />
            <mxPoint x="688" y="379" as="targetPoint" />
          </mxGeometry>
        </mxCell>
        <mxCell id="mm1vFh-hCThWvfkdCHbw-6" value="&lt;font style=&quot;font-size: 8px&quot;&gt;&lt;b&gt;USB Regen &lt;font style=&quot;font-size: 8px&quot;&gt;Amber&lt;span style=&quot;background-color: rgb(248 , 249 , 250)&quot;&gt;&lt;br&gt;&lt;/span&gt;&lt;/font&gt;&lt;/b&gt;&lt;span style=&quot;color: rgb(68 , 68 , 68) ; font-family: &amp;#34;helvetica&amp;#34; , &amp;#34;arial&amp;#34; , sans-serif ; background-color: rgb(255 , 255 , 255)&quot;&gt;6-9V/1.5A&lt;/span&gt;&lt;/font&gt;" style="rounded=1;whiteSpace=wrap;html=1;fontSize=10;" parent="1" vertex="1">
          <mxGeometry x="672.66" y="420" width="75" height="40" as="geometry" />
        </mxCell>
        <mxCell id="aQYm6t_41G4kme0ODkEK-2" value="LAN" style="rounded=0;whiteSpace=wrap;html=1;strokeColor=#007FFF;" parent="1" vertex="1">
          <mxGeometry x="195" y="27" width="33" height="17" as="geometry" />
        </mxCell>
        <mxCell id="ypcxiQf_RE1Gg7YUXVHt-1" value="&lt;p style=&quot;line-height: 100%&quot;&gt;&lt;font face=&quot;Courier New&quot;&gt;Coppermine Software details:&lt;br&gt;Linux piCorePlayer 4.14.26-pcpCore_v7 #1 SMP&lt;br&gt;&lt;br&gt;&lt;/font&gt;&lt;/p&gt;&lt;div&gt;&lt;font face=&quot;Courier New&quot;&gt;init-+-busybox-httpd&lt;/font&gt;&lt;/div&gt;&lt;div&gt;&lt;font face=&quot;Courier New&quot;&gt;&amp;nbsp; &amp;nbsp; &amp;nbsp;|-mpd-+-{decoder}&lt;/font&gt;&lt;/div&gt;&lt;div&gt;&lt;font face=&quot;Courier New&quot;&gt;&amp;nbsp; &amp;nbsp; &amp;nbsp;| &amp;nbsp; &amp;nbsp; |-{io}&lt;/font&gt;&lt;/div&gt;&lt;div&gt;&lt;font face=&quot;Courier New&quot;&gt;&amp;nbsp; &amp;nbsp; &amp;nbsp;| &amp;nbsp; &amp;nbsp; |-{output:alsa}&lt;/font&gt;&lt;/div&gt;&lt;div&gt;&lt;font face=&quot;Courier New&quot;&gt;&amp;nbsp; &amp;nbsp; &amp;nbsp;| &amp;nbsp; &amp;nbsp; `-{player}&lt;/font&gt;&lt;/div&gt;&lt;div&gt;&lt;font face=&quot;Courier New&quot;&gt;&amp;nbsp; &amp;nbsp; &amp;nbsp;|-start.sh---mono-sgen-+-mono-sgen-+-{Finalizer}&lt;/font&gt;&lt;/div&gt;&lt;div&gt;&lt;font face=&quot;Courier New&quot;&gt;&amp;nbsp; &amp;nbsp; &amp;nbsp;| &amp;nbsp; &amp;nbsp; &amp;nbsp; &amp;nbsp; &amp;nbsp; &amp;nbsp; &amp;nbsp; &amp;nbsp; &amp;nbsp; &amp;nbsp; &amp;nbsp;| &amp;nbsp; &amp;nbsp; &amp;nbsp; &amp;nbsp; &amp;nbsp; |-3*[{RoonBridgeHelpe}]&lt;/font&gt;&lt;/div&gt;&lt;div&gt;&lt;font face=&quot;Courier New&quot;&gt;&amp;nbsp; &amp;nbsp; &amp;nbsp;| &amp;nbsp; &amp;nbsp; &amp;nbsp; &amp;nbsp; &amp;nbsp; &amp;nbsp; &amp;nbsp; &amp;nbsp; &amp;nbsp; &amp;nbsp; &amp;nbsp;| &amp;nbsp; &amp;nbsp; &amp;nbsp; &amp;nbsp; &amp;nbsp; |-{SGen worker}&lt;/font&gt;&lt;/div&gt;&lt;div&gt;&lt;font face=&quot;Courier New&quot;&gt;&amp;nbsp; &amp;nbsp; &amp;nbsp;| &amp;nbsp; &amp;nbsp; &amp;nbsp; &amp;nbsp; &amp;nbsp; &amp;nbsp; &amp;nbsp; &amp;nbsp; &amp;nbsp; &amp;nbsp; &amp;nbsp;| &amp;nbsp; &amp;nbsp; &amp;nbsp; &amp;nbsp; &amp;nbsp; |-{Timer-Scheduler}&lt;/font&gt;&lt;/div&gt;&lt;div&gt;&lt;font face=&quot;Courier New&quot;&gt;&amp;nbsp; &amp;nbsp; &amp;nbsp;| &amp;nbsp; &amp;nbsp; &amp;nbsp; &amp;nbsp; &amp;nbsp; &amp;nbsp; &amp;nbsp; &amp;nbsp; &amp;nbsp; &amp;nbsp; &amp;nbsp;| &amp;nbsp; &amp;nbsp; &amp;nbsp; &amp;nbsp; &amp;nbsp; `-2*[{Worker (2)}]&lt;/font&gt;&lt;/div&gt;&lt;div&gt;&lt;font face=&quot;Courier New&quot;&gt;&amp;nbsp; &amp;nbsp; &amp;nbsp;| &amp;nbsp; &amp;nbsp; &amp;nbsp; &amp;nbsp; &amp;nbsp; &amp;nbsp; &amp;nbsp; &amp;nbsp; &amp;nbsp; &amp;nbsp; &amp;nbsp;|-mono-sgen-+-{Finalizer}&lt;/font&gt;&lt;/div&gt;&lt;div&gt;&lt;font face=&quot;Courier New&quot;&gt;&amp;nbsp; &amp;nbsp; &amp;nbsp;| &amp;nbsp; &amp;nbsp; &amp;nbsp; &amp;nbsp; &amp;nbsp; &amp;nbsp; &amp;nbsp; &amp;nbsp; &amp;nbsp; &amp;nbsp; &amp;nbsp;| &amp;nbsp; &amp;nbsp; &amp;nbsp; &amp;nbsp; &amp;nbsp; |-{SGen worker}&lt;/font&gt;&lt;/div&gt;&lt;div&gt;&lt;font face=&quot;Courier New&quot;&gt;&amp;nbsp; &amp;nbsp; &amp;nbsp;| &amp;nbsp; &amp;nbsp; &amp;nbsp; &amp;nbsp; &amp;nbsp; &amp;nbsp; &amp;nbsp; &amp;nbsp; &amp;nbsp; &amp;nbsp; &amp;nbsp;| &amp;nbsp; &amp;nbsp; &amp;nbsp; &amp;nbsp; &amp;nbsp; |-{Timer-Scheduler}&lt;/font&gt;&lt;/div&gt;&lt;div&gt;&lt;font face=&quot;Courier New&quot;&gt;&amp;nbsp; &amp;nbsp; &amp;nbsp;| &amp;nbsp; &amp;nbsp; &amp;nbsp; &amp;nbsp; &amp;nbsp; &amp;nbsp; &amp;nbsp; &amp;nbsp; &amp;nbsp; &amp;nbsp; &amp;nbsp;| &amp;nbsp; &amp;nbsp; &amp;nbsp; &amp;nbsp; &amp;nbsp; `-7*[{mono-sgen}]&lt;/font&gt;&lt;/div&gt;&lt;div&gt;&lt;font face=&quot;Courier New&quot;&gt;&amp;nbsp; &amp;nbsp; &amp;nbsp;| &amp;nbsp; &amp;nbsp; &amp;nbsp; &amp;nbsp; &amp;nbsp; &amp;nbsp; &amp;nbsp; &amp;nbsp; &amp;nbsp; &amp;nbsp; &amp;nbsp;|-processreaper&lt;/font&gt;&lt;/div&gt;&lt;div&gt;&lt;font face=&quot;Courier New&quot;&gt;&amp;nbsp; &amp;nbsp; &amp;nbsp;| &amp;nbsp; &amp;nbsp; &amp;nbsp; &amp;nbsp; &amp;nbsp; &amp;nbsp; &amp;nbsp; &amp;nbsp; &amp;nbsp; &amp;nbsp; &amp;nbsp;|-{Finalizer}&lt;/font&gt;&lt;/div&gt;&lt;div&gt;&lt;font face=&quot;Courier New&quot;&gt;&amp;nbsp; &amp;nbsp; &amp;nbsp;| &amp;nbsp; &amp;nbsp; &amp;nbsp; &amp;nbsp; &amp;nbsp; &amp;nbsp; &amp;nbsp; &amp;nbsp; &amp;nbsp; &amp;nbsp; &amp;nbsp;|-{SGen worker}&lt;/font&gt;&lt;/div&gt;&lt;div&gt;&lt;font face=&quot;Courier New&quot;&gt;&amp;nbsp; &amp;nbsp; &amp;nbsp;| &amp;nbsp; &amp;nbsp; &amp;nbsp; &amp;nbsp; &amp;nbsp; &amp;nbsp; &amp;nbsp; &amp;nbsp; &amp;nbsp; &amp;nbsp; &amp;nbsp;`-2*[{Threadpool work}]&lt;/font&gt;&lt;/div&gt;&lt;div&gt;&lt;font face=&quot;Courier New&quot;&gt;&amp;nbsp; &amp;nbsp; &amp;nbsp;|-udevd---2*[udevd]&lt;/font&gt;&lt;/div&gt;&lt;div&gt;&lt;font face=&quot;Courier New&quot;&gt;&amp;nbsp; &amp;nbsp; &amp;nbsp;|-udhcpc&lt;/font&gt;&lt;/div&gt;&lt;div&gt;&lt;font face=&quot;Courier New&quot;&gt;&amp;nbsp; &amp;nbsp; &amp;nbsp;`-upmpdcli---8*[{upmpdcli}]&lt;/font&gt;&lt;/div&gt;&lt;div&gt;&lt;font face=&quot;Courier New&quot;&gt;&lt;br&gt;&lt;/font&gt;&lt;/div&gt;&lt;div&gt;&lt;font face=&quot;Courier New&quot;&gt;&lt;br&gt;&lt;/font&gt;&lt;/div&gt;&lt;div&gt;&lt;div&gt;&lt;font face=&quot;Courier New&quot;&gt;cat /proc/interrupts&lt;/font&gt;&lt;/div&gt;&lt;div&gt;&lt;font face=&quot;Courier New&quot;&gt;&amp;nbsp; &amp;nbsp; &amp;nbsp; &amp;nbsp; &amp;nbsp; &amp;nbsp;CPU0 &amp;nbsp; &amp;nbsp; &amp;nbsp; CPU1 &amp;nbsp; &amp;nbsp; &amp;nbsp; CPU2 &amp;nbsp; &amp;nbsp; &amp;nbsp; CPU3&lt;/font&gt;&lt;/div&gt;&lt;div&gt;&lt;font face=&quot;Courier New&quot;&gt;&amp;nbsp;16: &amp;nbsp; &amp;nbsp; &amp;nbsp; &amp;nbsp; &amp;nbsp;0 &amp;nbsp; &amp;nbsp; &amp;nbsp; &amp;nbsp; &amp;nbsp;0 &amp;nbsp; &amp;nbsp; &amp;nbsp; &amp;nbsp; &amp;nbsp;0 &amp;nbsp; &amp;nbsp; &amp;nbsp; &amp;nbsp; &amp;nbsp;0 &amp;nbsp;bcm2836-timer &amp;nbsp; 0 Edge &amp;nbsp; &amp;nbsp; &amp;nbsp;arch_timer&lt;/font&gt;&lt;/div&gt;&lt;div&gt;&lt;font face=&quot;Courier New&quot;&gt;&lt;b&gt;&amp;nbsp;17: &amp;nbsp; 25188191 &amp;nbsp; 10966781 &amp;nbsp; 14950586 &amp;nbsp; &amp;nbsp;2698014 &amp;nbsp;bcm2836-timer &amp;nbsp; 1 Edge &amp;nbsp; &amp;nbsp; &amp;nbsp;arch_timer&lt;/b&gt;&lt;/font&gt;&lt;/div&gt;&lt;div&gt;&lt;font face=&quot;Courier New&quot;&gt;&amp;nbsp;21: &amp;nbsp; &amp;nbsp; &amp;nbsp; &amp;nbsp; &amp;nbsp;0 &amp;nbsp; &amp;nbsp; &amp;nbsp; &amp;nbsp; &amp;nbsp;0 &amp;nbsp; &amp;nbsp; &amp;nbsp; &amp;nbsp; &amp;nbsp;0 &amp;nbsp; &amp;nbsp; &amp;nbsp; &amp;nbsp; &amp;nbsp;0 &amp;nbsp;bcm2836-pmu &amp;nbsp; 9 Edge &amp;nbsp; &amp;nbsp; &amp;nbsp;arm-pmu&lt;/font&gt;&lt;/div&gt;&lt;div&gt;&lt;font face=&quot;Courier New&quot;&gt;&lt;b&gt;&amp;nbsp;23: &amp;nbsp; &amp;nbsp; 758928 &amp;nbsp; &amp;nbsp; &amp;nbsp; &amp;nbsp; &amp;nbsp;0 &amp;nbsp; &amp;nbsp; &amp;nbsp; &amp;nbsp; &amp;nbsp;0 &amp;nbsp; &amp;nbsp; &amp;nbsp; &amp;nbsp; &amp;nbsp;0 &amp;nbsp;ARMCTRL-level &amp;nbsp; 1 Edge &amp;nbsp; &amp;nbsp; &amp;nbsp;3f00b880.mailbox&lt;/b&gt;&lt;/font&gt;&lt;/div&gt;&lt;div&gt;&lt;font face=&quot;Courier New&quot;&gt;&amp;nbsp;24: &amp;nbsp; &amp;nbsp; &amp;nbsp; &amp;nbsp; &amp;nbsp;2 &amp;nbsp; &amp;nbsp; &amp;nbsp; &amp;nbsp; &amp;nbsp;0 &amp;nbsp; &amp;nbsp; &amp;nbsp; &amp;nbsp; &amp;nbsp;0 &amp;nbsp; &amp;nbsp; &amp;nbsp; &amp;nbsp; &amp;nbsp;0 &amp;nbsp;ARMCTRL-level &amp;nbsp; 2 Edge &amp;nbsp; &amp;nbsp; &amp;nbsp;VCHIQ doorbell&lt;/font&gt;&lt;/div&gt;&lt;div&gt;&lt;font face=&quot;Courier New&quot;&gt;&amp;nbsp;46: &amp;nbsp; &amp;nbsp; &amp;nbsp; &amp;nbsp; &amp;nbsp;0 &amp;nbsp; &amp;nbsp; &amp;nbsp; &amp;nbsp; &amp;nbsp;0 &amp;nbsp; &amp;nbsp; &amp;nbsp; &amp;nbsp; &amp;nbsp;0 &amp;nbsp; &amp;nbsp; &amp;nbsp; &amp;nbsp; &amp;nbsp;0 &amp;nbsp;ARMCTRL-level &amp;nbsp;48 Edge &amp;nbsp; &amp;nbsp; &amp;nbsp;bcm2708_fb dma&lt;/font&gt;&lt;/div&gt;&lt;div&gt;&lt;font face=&quot;Courier New&quot;&gt;&amp;nbsp;48: &amp;nbsp; &amp;nbsp; &amp;nbsp; &amp;nbsp; &amp;nbsp;0 &amp;nbsp; &amp;nbsp; &amp;nbsp; &amp;nbsp; &amp;nbsp;0 &amp;nbsp; &amp;nbsp; &amp;nbsp; &amp;nbsp; &amp;nbsp;0 &amp;nbsp; &amp;nbsp; &amp;nbsp; &amp;nbsp; &amp;nbsp;0 &amp;nbsp;ARMCTRL-level &amp;nbsp;50 Edge &amp;nbsp; &amp;nbsp; &amp;nbsp;DMA IRQ&lt;/font&gt;&lt;/div&gt;&lt;div&gt;&lt;font face=&quot;Courier New&quot;&gt;&amp;nbsp;50: &amp;nbsp; &amp;nbsp; &amp;nbsp; 1762 &amp;nbsp; &amp;nbsp; &amp;nbsp; &amp;nbsp; &amp;nbsp;0 &amp;nbsp; &amp;nbsp; &amp;nbsp; &amp;nbsp; &amp;nbsp;0 &amp;nbsp; &amp;nbsp; &amp;nbsp; &amp;nbsp; &amp;nbsp;0 &amp;nbsp;ARMCTRL-level &amp;nbsp;52 Edge &amp;nbsp; &amp;nbsp; &amp;nbsp;DMA IRQ&lt;/font&gt;&lt;/div&gt;&lt;div&gt;&lt;font face=&quot;Courier New&quot;&gt;&amp;nbsp;59: &amp;nbsp; &amp;nbsp; &amp;nbsp; &amp;nbsp; &amp;nbsp;0 &amp;nbsp; &amp;nbsp; &amp;nbsp; &amp;nbsp; &amp;nbsp;0 &amp;nbsp; &amp;nbsp; &amp;nbsp; &amp;nbsp; &amp;nbsp;0 &amp;nbsp; &amp;nbsp; &amp;nbsp; &amp;nbsp; &amp;nbsp;0 &amp;nbsp;ARMCTRL-level &amp;nbsp;61 Edge &amp;nbsp; &amp;nbsp; &amp;nbsp;bcm2835-auxirq&lt;/font&gt;&lt;/div&gt;&lt;div&gt;&lt;font face=&quot;Courier New&quot;&gt;&lt;b&gt;&amp;nbsp;62: 1935384204 &amp;nbsp; &amp;nbsp; &amp;nbsp; &amp;nbsp; &amp;nbsp;0 &amp;nbsp; &amp;nbsp; &amp;nbsp; &amp;nbsp; &amp;nbsp;0 &amp;nbsp; &amp;nbsp; &amp;nbsp; &amp;nbsp; &amp;nbsp;0 &amp;nbsp;ARMCTRL-level &amp;nbsp;64 Edge &amp;nbsp; &amp;nbsp; &amp;nbsp;dwc_otg, dwc_otg_pcd, dwc_otg_hcd:usb1&lt;/b&gt;&lt;/font&gt;&lt;/div&gt;&lt;div&gt;&lt;font face=&quot;Courier New&quot;&gt;&amp;nbsp;86: &amp;nbsp; &amp;nbsp; &amp;nbsp; &amp;nbsp; 69 &amp;nbsp; &amp;nbsp; &amp;nbsp; &amp;nbsp; &amp;nbsp;0 &amp;nbsp; &amp;nbsp; &amp;nbsp; &amp;nbsp; &amp;nbsp;0 &amp;nbsp; &amp;nbsp; &amp;nbsp; &amp;nbsp; &amp;nbsp;0 &amp;nbsp;ARMCTRL-level &amp;nbsp;88 Edge &amp;nbsp; &amp;nbsp; &amp;nbsp;mmc0&lt;/font&gt;&lt;/div&gt;&lt;div&gt;&lt;font face=&quot;Courier New&quot;&gt;FIQ: &amp;nbsp; &amp;nbsp; &amp;nbsp; &amp;nbsp; &amp;nbsp; &amp;nbsp; &amp;nbsp;usb_fiq&lt;/font&gt;&lt;/div&gt;&lt;div&gt;&lt;font face=&quot;Courier New&quot;&gt;IPI0: &amp;nbsp; &amp;nbsp; &amp;nbsp; &amp;nbsp; &amp;nbsp;0 &amp;nbsp; &amp;nbsp; &amp;nbsp; &amp;nbsp; &amp;nbsp;0 &amp;nbsp; &amp;nbsp; &amp;nbsp; &amp;nbsp; &amp;nbsp;0 &amp;nbsp; &amp;nbsp; &amp;nbsp; &amp;nbsp; &amp;nbsp;0 &amp;nbsp;CPU wakeup interrupts&lt;/font&gt;&lt;/div&gt;&lt;div&gt;&lt;font face=&quot;Courier New&quot;&gt;IPI1: &amp;nbsp; &amp;nbsp; &amp;nbsp; &amp;nbsp; &amp;nbsp;0 &amp;nbsp; &amp;nbsp; &amp;nbsp; &amp;nbsp; &amp;nbsp;0 &amp;nbsp; &amp;nbsp; &amp;nbsp; &amp;nbsp; &amp;nbsp;0 &amp;nbsp; &amp;nbsp; &amp;nbsp; &amp;nbsp; &amp;nbsp;0 &amp;nbsp;Timer broadcast interrupts&lt;/font&gt;&lt;/div&gt;&lt;div&gt;&lt;font face=&quot;Courier New&quot;&gt;&lt;b&gt;IPI2: &amp;nbsp; &amp;nbsp; 909973 &amp;nbsp; 56401701 &amp;nbsp; 15388630 &amp;nbsp; &amp;nbsp;4430473 &amp;nbsp;Rescheduling interrupts&lt;/b&gt;&lt;/font&gt;&lt;/div&gt;&lt;div&gt;&lt;font face=&quot;Courier New&quot;&gt;IPI3: &amp;nbsp; &amp;nbsp; &amp;nbsp; 3899 &amp;nbsp; &amp;nbsp; &amp;nbsp; 3784 &amp;nbsp; &amp;nbsp; &amp;nbsp; 6043 &amp;nbsp; &amp;nbsp; &amp;nbsp; 3481 &amp;nbsp;Function call interrupts&lt;/font&gt;&lt;/div&gt;&lt;div&gt;&lt;font face=&quot;Courier New&quot;&gt;IPI4: &amp;nbsp; &amp;nbsp; &amp;nbsp; &amp;nbsp; &amp;nbsp;0 &amp;nbsp; &amp;nbsp; &amp;nbsp; &amp;nbsp; &amp;nbsp;0 &amp;nbsp; &amp;nbsp; &amp;nbsp; &amp;nbsp; &amp;nbsp;0 &amp;nbsp; &amp;nbsp; &amp;nbsp; &amp;nbsp; &amp;nbsp;0 &amp;nbsp;CPU stop interrupts&lt;/font&gt;&lt;/div&gt;&lt;div&gt;&lt;font face=&quot;Courier New&quot;&gt;&lt;b&gt;IPI5: &amp;nbsp; 16041554 &amp;nbsp; 10058440 &amp;nbsp; &amp;nbsp;9373573 &amp;nbsp; &amp;nbsp;1425426 &amp;nbsp;IRQ work interrupts&lt;/b&gt;&lt;/font&gt;&lt;/div&gt;&lt;div&gt;&lt;font face=&quot;Courier New&quot;&gt;IPI6: &amp;nbsp; &amp;nbsp; &amp;nbsp; &amp;nbsp; &amp;nbsp;0 &amp;nbsp; &amp;nbsp; &amp;nbsp; &amp;nbsp; &amp;nbsp;0 &amp;nbsp; &amp;nbsp; &amp;nbsp; &amp;nbsp; &amp;nbsp;0 &amp;nbsp; &amp;nbsp; &amp;nbsp; &amp;nbsp; &amp;nbsp;0 &amp;nbsp;completion interrupts&lt;/font&gt;&lt;/div&gt;&lt;div&gt;&lt;font face=&quot;Courier New&quot;&gt;Err: &amp;nbsp; &amp;nbsp; &amp;nbsp; &amp;nbsp; &amp;nbsp;0&lt;/font&gt;&lt;/div&gt;&lt;/div&gt;&lt;div&gt;&lt;font face=&quot;Courier New&quot;&gt;&lt;br&gt;&lt;/font&gt;&lt;/div&gt;&lt;div&gt;&lt;div&gt;&lt;font face=&quot;Courier New&quot;&gt;ifconfig&lt;/font&gt;&lt;/div&gt;&lt;div&gt;&lt;font face=&quot;Courier New&quot;&gt;eth0 &amp;nbsp; &amp;nbsp; &amp;nbsp;Link encap:Ethernet &amp;nbsp;HWaddr B8:27:EB:66:5B:27&lt;/font&gt;&lt;/div&gt;&lt;div&gt;&lt;font face=&quot;Courier New&quot;&gt;&amp;nbsp; &amp;nbsp; &amp;nbsp; &amp;nbsp; &amp;nbsp; inet addr:192.168.0.155 &amp;nbsp;Bcast:192.168.0.255 &amp;nbsp;Mask:255.255.255.0&lt;/font&gt;&lt;/div&gt;&lt;div&gt;&lt;font face=&quot;Courier New&quot;&gt;&amp;nbsp; &amp;nbsp; &amp;nbsp; &amp;nbsp; &amp;nbsp; UP BROADCAST RUNNING MULTICAST &amp;nbsp;MTU:1500 &amp;nbsp;Metric:1&lt;/font&gt;&lt;/div&gt;&lt;div&gt;&lt;font face=&quot;Courier New&quot;&gt;&amp;nbsp; &amp;nbsp; &amp;nbsp; &amp;nbsp; &amp;nbsp; &lt;b&gt;RX&lt;/b&gt; packets:105956500 errors:0 &lt;b&gt;dropped:40481 &lt;/b&gt;overruns:0 frame:0&lt;/font&gt;&lt;/div&gt;&lt;div&gt;&lt;font face=&quot;Courier New&quot;&gt;&amp;nbsp; &amp;nbsp; &amp;nbsp; &amp;nbsp; &amp;nbsp; TX packets:70725758 errors:0 dropped:0 overruns:0 carrier:0&lt;/font&gt;&lt;/div&gt;&lt;div&gt;&lt;font face=&quot;Courier New&quot;&gt;&amp;nbsp; &amp;nbsp; &amp;nbsp; &amp;nbsp; &amp;nbsp; collisions:0 txqueuelen:1000&lt;/font&gt;&lt;/div&gt;&lt;div&gt;&lt;font face=&quot;Courier New&quot;&gt;&amp;nbsp; &amp;nbsp; &amp;nbsp; &amp;nbsp; &amp;nbsp; RX bytes:126424873146 (117.7 GiB) &amp;nbsp;TX bytes:7533633311 (7.0 GiB)&lt;/font&gt;&lt;/div&gt;&lt;/div&gt;&lt;div&gt;&lt;font face=&quot;Courier New&quot;&gt;&lt;br&gt;&lt;/font&gt;&lt;/div&gt;&lt;div&gt;&lt;div&gt;&lt;font face=&quot;Courier New&quot;&gt;cat /proc/softirqs&lt;/font&gt;&lt;/div&gt;&lt;div&gt;&lt;font face=&quot;Courier New&quot;&gt;&amp;nbsp; &amp;nbsp; &amp;nbsp; &amp;nbsp; &amp;nbsp; &amp;nbsp; &amp;nbsp; &amp;nbsp; &amp;nbsp; &amp;nbsp; CPU0 &amp;nbsp; &amp;nbsp; &amp;nbsp; CPU1 &amp;nbsp; &amp;nbsp; &amp;nbsp; CPU2 &amp;nbsp; &amp;nbsp; &amp;nbsp; CPU3&lt;/font&gt;&lt;/div&gt;&lt;div&gt;&lt;font face=&quot;Courier New&quot;&gt;&amp;nbsp; &amp;nbsp; &amp;nbsp; &amp;nbsp; &amp;nbsp; &lt;b&gt;HI: 1217978215 &lt;/b&gt;&amp;nbsp; &amp;nbsp; &amp;nbsp; &amp;nbsp; &amp;nbsp;0 &amp;nbsp; &amp;nbsp; &amp;nbsp; &amp;nbsp; &amp;nbsp;0 &amp;nbsp; &amp;nbsp; &amp;nbsp; &amp;nbsp; &amp;nbsp;0&lt;/font&gt;&lt;/div&gt;&lt;div&gt;&lt;font face=&quot;Courier New&quot;&gt;&amp;nbsp; &amp;nbsp; &amp;nbsp;&lt;b&gt; &amp;nbsp;TIMER: &amp;nbsp; 22787177 &amp;nbsp; &amp;nbsp;9204790 &amp;nbsp; 11624127 &amp;nbsp; &amp;nbsp;2283256&lt;/b&gt;&lt;/font&gt;&lt;/div&gt;&lt;div&gt;&lt;font face=&quot;Courier New&quot;&gt;&amp;nbsp; &amp;nbsp; &amp;nbsp; NET_TX: &amp;nbsp; &amp;nbsp; 315320 &amp;nbsp; &amp;nbsp; &amp;nbsp; &amp;nbsp; &amp;nbsp;2 &amp;nbsp; &amp;nbsp; &amp;nbsp; &amp;nbsp; &amp;nbsp;2 &amp;nbsp; &amp;nbsp; &amp;nbsp; &amp;nbsp; &amp;nbsp;0&lt;/font&gt;&lt;/div&gt;&lt;div&gt;&lt;font face=&quot;Courier New&quot;&gt;&amp;nbsp; &amp;nbsp; &amp;nbsp;&lt;b&gt; NET_RX: &amp;nbsp;105456706 &amp;nbsp; &amp;nbsp; &amp;nbsp; 1702 &amp;nbsp; &amp;nbsp;2387536 &amp;nbsp; &amp;nbsp;2417759&lt;/b&gt;&lt;/font&gt;&lt;/div&gt;&lt;div&gt;&lt;font face=&quot;Courier New&quot;&gt;&amp;nbsp; &amp;nbsp; &amp;nbsp; &amp;nbsp;BLOCK: &amp;nbsp; &amp;nbsp; &amp;nbsp; &amp;nbsp; &amp;nbsp;0 &amp;nbsp; &amp;nbsp; &amp;nbsp; &amp;nbsp; &amp;nbsp;0 &amp;nbsp; &amp;nbsp; &amp;nbsp; &amp;nbsp; &amp;nbsp;0 &amp;nbsp; &amp;nbsp; &amp;nbsp; &amp;nbsp; &amp;nbsp;0&lt;/font&gt;&lt;/div&gt;&lt;div&gt;&lt;font face=&quot;Courier New&quot;&gt;&amp;nbsp; &amp;nbsp; IRQ_POLL: &amp;nbsp; &amp;nbsp; &amp;nbsp; &amp;nbsp; &amp;nbsp;0 &amp;nbsp; &amp;nbsp; &amp;nbsp; &amp;nbsp; &amp;nbsp;0 &amp;nbsp; &amp;nbsp; &amp;nbsp; &amp;nbsp; &amp;nbsp;0 &amp;nbsp; &amp;nbsp; &amp;nbsp; &amp;nbsp; &amp;nbsp;0&lt;/font&gt;&lt;/div&gt;&lt;div&gt;&lt;font face=&quot;Courier New&quot;&gt;&amp;nbsp; &amp;nbsp; &amp;nbsp;&lt;b&gt;TASKLET: &amp;nbsp;178577793 &lt;/b&gt;&amp;nbsp; &amp;nbsp; &amp;nbsp; &amp;nbsp; &amp;nbsp;0 &amp;nbsp; &amp;nbsp; &amp;nbsp; &amp;nbsp; &amp;nbsp;4 &amp;nbsp; &amp;nbsp; &amp;nbsp; &amp;nbsp; &amp;nbsp;0&lt;/font&gt;&lt;/div&gt;&lt;div&gt;&lt;font face=&quot;Courier New&quot;&gt;&amp;nbsp; &amp;nbsp; &amp;nbsp; &lt;b&gt;&amp;nbsp;SCHED: &amp;nbsp; 22684301 &amp;nbsp; &amp;nbsp;9015072 &amp;nbsp; 10698963 &amp;nbsp; &amp;nbsp;2284439&lt;/b&gt;&lt;/font&gt;&lt;/div&gt;&lt;div&gt;&lt;font face=&quot;Courier New&quot;&gt;&amp;nbsp; &amp;nbsp; &amp;nbsp;HRTIMER: &amp;nbsp; &amp;nbsp; &amp;nbsp; &amp;nbsp; &amp;nbsp;0 &amp;nbsp; &amp;nbsp; &amp;nbsp; &amp;nbsp; &amp;nbsp;0 &amp;nbsp; &amp;nbsp; &amp;nbsp; &amp;nbsp; &amp;nbsp;0 &amp;nbsp; &amp;nbsp; &amp;nbsp; &amp;nbsp; &amp;nbsp;0&lt;/font&gt;&lt;/div&gt;&lt;div&gt;&lt;font face=&quot;Courier New&quot;&gt;&amp;nbsp; &amp;nbsp; &amp;nbsp; &amp;nbsp; &amp;nbsp;&lt;b&gt;RCU: &amp;nbsp; 11131666 &amp;nbsp; &amp;nbsp;5270931 &amp;nbsp; &amp;nbsp;6173860 &amp;nbsp; &amp;nbsp;1905670&lt;/b&gt;&lt;/font&gt;&lt;/div&gt;&lt;/div&gt;&lt;div&gt;&lt;font face=&quot;Courier New&quot;&gt;&lt;b&gt;&lt;br&gt;&lt;/b&gt;&lt;/font&gt;&lt;/div&gt;&lt;div&gt;&lt;font face=&quot;Courier New&quot;&gt;&lt;div&gt;mount | egrep -v &#39;tcloop&#39;&lt;/div&gt;&lt;div&gt;&amp;nbsp; tmpfs on / type tmpfs (rw,relatime,size=900188k)&lt;/div&gt;&lt;div&gt;&amp;nbsp; proc on /proc type proc (rw,relatime)&lt;/div&gt;&lt;div&gt;&amp;nbsp; sysfs on /sys type sysfs (rw,relatime)&lt;/div&gt;&lt;div&gt;&amp;nbsp; devpts on /dev/pts type devpts (rw,relatime,mode=600,ptmxmode=000)&lt;/div&gt;&lt;div&gt;&amp;nbsp; tmpfs on /dev/shm type tmpfs (rw,relatime)&lt;/div&gt;&lt;div&gt;&lt;br&gt;&lt;/div&gt;&lt;div&gt;cat tweaks.sh&lt;/div&gt;&lt;div&gt;&lt;div&gt;echo -n performance &amp;gt; /sys/devices/system/cpu/cpu0/cpufreq/scaling_governor&lt;/div&gt;&lt;div&gt;echo 0 &amp;gt; /proc/sys/vm/swappiness&lt;/div&gt;&lt;div&gt;/usr/local/bin/taskset -c -p 3 $(pidof mpd)&lt;/div&gt;&lt;div&gt;/usr/local/bin/taskset -c -p 2 $(pidof upmpdcli)&lt;/div&gt;&lt;div&gt;/usr/local/bin/taskset -c -p 1 $(pidof RAATServer)&lt;/div&gt;&lt;div&gt;/usr/local/bin/renice -19 -p $(pidof mpd)&lt;/div&gt;&lt;div&gt;/usr/local/bin/renice -19 -p $(pidof RAATServer)&lt;/div&gt;&lt;div&gt;/usr/local/bin/renice -18 -p $(pidof upmpdcli)&lt;/div&gt;&lt;div&gt;&lt;br&gt;&lt;/div&gt;&lt;div&gt;/home/tc/roon-realtime.sh -p 99 -m FIFO -b y -r y&lt;/div&gt;&lt;/div&gt;&lt;div&gt;&lt;br&gt;&lt;/div&gt;&lt;div&gt;&lt;div&gt;echo 1 &amp;gt; /proc/sys/kernel/hung_task_check_count&lt;/div&gt;&lt;div&gt;echo 20 &amp;gt; /proc/sys/vm/stat_interval&lt;/div&gt;&lt;div&gt;echo 3 &amp;gt; /proc/sys/vm/dirty_background_ratio&lt;/div&gt;&lt;div&gt;echo 10 &amp;gt; /proc/sys/vm/dirty_ratio&lt;/div&gt;&lt;div&gt;echo 225000 &amp;gt; /proc/sys/kernel/sched_min_granularity_ns&lt;/div&gt;&lt;div&gt;echo 5000000 &amp;gt; /proc/sys/kernel/sched_migration_cost_ns&lt;/div&gt;&lt;div&gt;echo 1 &amp;gt; /sys/bus/workqueue/devices/writeback/cpumask&lt;/div&gt;&lt;div&gt;killall crond squeezelite busybox-httpd&lt;/div&gt;&lt;div&gt;sleep 10&lt;/div&gt;&lt;div&gt;/usr/local/bin/taskset -c -p 1 $(pidof RAATServer)&lt;/div&gt;&lt;div&gt;/usr/local/bin/renice -19 -p $(pidof RAATServer)&lt;/div&gt;&lt;div&gt;echo noop &amp;gt; /sys/block/mmcblk0/queue/scheduler&lt;/div&gt;&lt;div&gt;echo 0 &amp;gt; /proc/sys/vm/swappiness&lt;/div&gt;&lt;div&gt;echo 1000000 &amp;gt; /proc/sys/kernel/sched_latency_ns&lt;/div&gt;&lt;div&gt;echo 100000 &amp;gt; /proc/sys/kernel/sched_min_granularity_ns&lt;/div&gt;&lt;div&gt;echo 25000 &amp;gt; /proc/sys/kernel/sched_wakeup_granularity_ns&lt;/div&gt;&lt;div&gt;echo 1 &amp;gt; /proc/sys/kernel/hung_task_check_count&lt;/div&gt;&lt;div&gt;echo 20 &amp;gt; /proc/sys/vm/stat_interval&lt;/div&gt;&lt;div&gt;echo -1 &amp;gt; /proc/sys/kernel/sched_rt_runtime_us&lt;/div&gt;&lt;div&gt;echo 5 &amp;gt; /proc/sys/vm/dirty_background_ratio&lt;/div&gt;&lt;div&gt;echo -n performance &amp;gt; /sys/devices/system/cpu/cpu0/cpufreq/scaling_governor&lt;/div&gt;&lt;div&gt;echo -n performance &amp;gt; /sys/devices/system/cpu/cpu1/cpufreq/scaling_governor&lt;/div&gt;&lt;div&gt;echo -n performance &amp;gt; /sys/devices/system/cpu/cpu2/cpufreq/scaling_governor&lt;/div&gt;&lt;div&gt;echo -n performance &amp;gt; /sys/devices/system/cpu/cpu3/cpufreq/scaling_governor&lt;/div&gt;&lt;/div&gt;&lt;div&gt;&lt;br&gt;&lt;/div&gt;&lt;div&gt;&lt;div&gt;rmmod i2c_bcm2835&lt;/div&gt;&lt;div&gt;rmmod spi_bcm2835&lt;/div&gt;&lt;div&gt;rmmod bcm2835_gpiomem&lt;/div&gt;&lt;div&gt;rmmod snd_soc_bcm2835_i2s&lt;/div&gt;&lt;div&gt;rmmod snd_soc_core&lt;/div&gt;&lt;div&gt;rmmod snd_pcm_dmaengine&lt;/div&gt;&lt;div&gt;rmmod snd_compress&lt;/div&gt;&lt;div&gt;rmmod uio_pdrv_genirq&lt;/div&gt;&lt;div&gt;rmmod uio&lt;/div&gt;&lt;div&gt;rmmod fixed&lt;/div&gt;&lt;div&gt;rmmod spidev&lt;/div&gt;&lt;/div&gt;&lt;/font&gt;&lt;/div&gt;&lt;p&gt;&lt;/p&gt;" style="shape=note;whiteSpace=wrap;html=1;backgroundOutline=1;darkOpacity=0.05;align=left;" parent="1" vertex="1">
          <mxGeometry x="1770" y="1" width="850" height="1850" as="geometry" />
        </mxCell>
        <mxCell id="OBH05SYVjdOEQUbnL4dN-9" value="oM Deluxe" style="rounded=1;whiteSpace=wrap;html=1;fillColor=#FFFFFF;" parent="1" vertex="1">
          <mxGeometry x="343" y="501" width="73" height="40" as="geometry" />
        </mxCell>
        <mxCell id="OBH05SYVjdOEQUbnL4dN-16" value="&lt;p style=&quot;line-height: 100%&quot;&gt;&lt;font face=&quot;Courier New&quot;&gt;Roon Server nuc2 Software details:&lt;br&gt;Linux nuc2 4.15.0-128-generic #131-Ubuntu SMP&lt;br&gt;&lt;br&gt;&lt;/font&gt;&lt;/p&gt;&lt;div&gt;&lt;div&gt;&lt;font face=&quot;Courier New&quot;&gt;systemd─┬─dhclient&lt;/font&gt;&lt;/div&gt;&lt;div&gt;&lt;font face=&quot;Courier New&quot;&gt;&amp;nbsp; &amp;nbsp; &amp;nbsp; &amp;nbsp; ├─sshd─┬─sshd───sshd───bash───sudo───su───bash&lt;/font&gt;&lt;/div&gt;&lt;div&gt;&lt;font face=&quot;Courier New&quot;&gt;&amp;nbsp; &amp;nbsp; &amp;nbsp; &amp;nbsp; │ &amp;nbsp; &amp;nbsp; &amp;nbsp;└─sshd───sshd───bash───pstree&lt;/font&gt;&lt;/div&gt;&lt;div&gt;&lt;font face=&quot;Courier New&quot;&gt;&amp;nbsp; &amp;nbsp; &amp;nbsp; &amp;nbsp; ├─start.sh───RoonServer─┬─RoonAppliance─┬─RAATServer───8*[{RAATServer}]&lt;/font&gt;&lt;/div&gt;&lt;div&gt;&lt;font face=&quot;Courier New&quot;&gt;&amp;nbsp; &amp;nbsp; &amp;nbsp; &amp;nbsp; │ &amp;nbsp; &amp;nbsp; &amp;nbsp; &amp;nbsp; &amp;nbsp; &amp;nbsp; &amp;nbsp; &amp;nbsp; &amp;nbsp; &amp;nbsp; &amp;nbsp; │ &amp;nbsp; &amp;nbsp; &amp;nbsp; &amp;nbsp; &amp;nbsp; &amp;nbsp; &amp;nbsp; └─69*[{RoonAppliance}]&lt;/font&gt;&lt;/div&gt;&lt;div&gt;&lt;font face=&quot;Courier New&quot;&gt;&amp;nbsp; &amp;nbsp; &amp;nbsp; &amp;nbsp; │ &amp;nbsp; &amp;nbsp; &amp;nbsp; &amp;nbsp; &amp;nbsp; &amp;nbsp; &amp;nbsp; &amp;nbsp; &amp;nbsp; &amp;nbsp; &amp;nbsp; ├─processreaper&lt;/font&gt;&lt;/div&gt;&lt;div&gt;&lt;font face=&quot;Courier New&quot;&gt;&amp;nbsp; &amp;nbsp; &amp;nbsp; &amp;nbsp; │ &amp;nbsp; &amp;nbsp; &amp;nbsp; &amp;nbsp; &amp;nbsp; &amp;nbsp; &amp;nbsp; &amp;nbsp; &amp;nbsp; &amp;nbsp; &amp;nbsp; └─6*[{RoonServer}]&lt;/font&gt;&lt;/div&gt;&lt;div&gt;&lt;font face=&quot;Courier New&quot;&gt;&amp;nbsp; &amp;nbsp; &amp;nbsp; &amp;nbsp; ├─systemd───(sd-pam)&lt;/font&gt;&lt;/div&gt;&lt;div&gt;&lt;font face=&quot;Courier New&quot;&gt;&amp;nbsp; &amp;nbsp; &amp;nbsp; &amp;nbsp; └─systemd-udevd&lt;/font&gt;&lt;/div&gt;&lt;/div&gt;&lt;div&gt;&lt;font face=&quot;Courier New&quot;&gt;&lt;br&gt;&lt;/font&gt;&lt;/div&gt;&lt;div&gt;&lt;font face=&quot;Courier New&quot;&gt;&lt;br&gt;&lt;/font&gt;&lt;/div&gt;&lt;div&gt;&lt;div&gt;&lt;font face=&quot;Courier New&quot;&gt;linux kernel command line:&amp;nbsp;threadirqs&lt;/font&gt;&lt;/div&gt;&lt;/div&gt;&lt;div&gt;&lt;font face=&quot;Courier New&quot;&gt;&lt;div&gt;&lt;br&gt;&lt;/div&gt;&lt;div&gt;cat audiophilize.sh&lt;/div&gt;&lt;div&gt;#!/bin/sh&lt;/div&gt;&lt;div&gt;# upper limit&lt;br&gt;&lt;/div&gt;&lt;div&gt;/usr/bin/cpupower frequency-set -u 2600MHz&lt;/div&gt;&lt;div&gt;# down limit&lt;/div&gt;&lt;div&gt;/usr/bin/cpupower frequency-set -d 2600MHz&lt;/div&gt;&lt;div&gt;&lt;br&gt;&lt;/div&gt;&lt;div&gt;systemctl stop netdata bluetooth &quot;acpid*&quot; &quot;anacron*&quot; wpa_supplicant rsync hciuart systemd-timesyncd dbus.socket dbus &quot;systemd-journald*&quot; rsyslog syslog.socket fail2ban containerd whoopsie libvirtd unattended-upgrades cups-browsed atopacct atop cups &quot;avahi-daemon*&quot; lxcfs nfs-idmapd nfs-mountd nfs-blkmap &quot;rpcbind*&quot; libvirtd systemd-resolved kerneloops &quot;lvm2-lvmetad*&quot; &quot;dbus*&quot; &quot;pulseaudio*&quot; ; killall dnsmasq dbus-daemon pulseaudio irqbalance&lt;/div&gt;&lt;div&gt;ps axu | egrep &#39;^gdm&#39; | awk &#39;{print $2}&#39; | xargs kill&lt;/div&gt;&lt;div&gt;&lt;br&gt;&lt;/div&gt;&lt;div&gt;/sbin/sysctl fs.inotify.max_user_watches=2000000&lt;/div&gt;&lt;div&gt;&lt;br&gt;&lt;/div&gt;&lt;div&gt;iptables -P INPUT ACCEPT ; iptables -F INPUT ; iptables -F FORWARD&lt;/div&gt;&lt;div&gt;iptables -P OUTUT ACCEPT ; iptables -F OUTPUT&lt;/div&gt;&lt;div&gt;iptables -F LOG_DROP ; iptables -X LOG_DROP&lt;/div&gt;&lt;div&gt;iptables -F POSTROUTING -t nat&lt;/div&gt;&lt;div&gt;iptables -F POSTROUTING -t mangle&lt;/div&gt;&lt;div&gt;&lt;br&gt;&lt;/div&gt;&lt;div&gt;sudo mount -o remount,size=128M /dev/shm&lt;/div&gt;&lt;div&gt;&lt;br&gt;&lt;/div&gt;&lt;div&gt;# inject nameserver at beginning of resolv.conf:&lt;/div&gt;&lt;div&gt;echo &#39;nameserver 192.168.0.1&#39; | cat - /etc/resolv.conf &amp;gt; temp &amp;amp;&amp;amp; mv temp /etc/resolv.conf&lt;/div&gt;&lt;div&gt;&lt;br&gt;&lt;/div&gt;&lt;div&gt;systemctl stop roonserver&lt;/div&gt;&lt;div&gt;&lt;br&gt;&lt;/div&gt;&lt;div&gt;for F in /opt/RoonServer/Appliance/RAATServer /opt/RoonServer/Appliance/RoonAppliance /opt/RoonServer/Server/RoonServer ; do&lt;/div&gt;&lt;div&gt;&amp;nbsp; sed -i &#39;s/ --debug//&#39; &quot;$F&quot;&lt;/div&gt;&lt;div&gt;done&lt;/div&gt;&lt;div&gt;&lt;br&gt;&lt;/div&gt;&lt;div&gt;systemctl start roonserver&lt;/div&gt;&lt;div&gt;sleep 5&lt;/div&gt;&lt;div&gt;&lt;br&gt;&lt;/div&gt;&lt;div&gt;./tweaks.sh&lt;/div&gt;&lt;div&gt;&lt;br&gt;&lt;/div&gt;&lt;div&gt;&lt;br&gt;&lt;/div&gt;&lt;div&gt;-------------&lt;/div&gt;&lt;div&gt;&lt;br&gt;&lt;/div&gt;&lt;div&gt;cat tweaks.sh&lt;/div&gt;&lt;div&gt;&lt;div&gt;#!/bin/sh&lt;/div&gt;&lt;div&gt;&lt;br&gt;&lt;/div&gt;&lt;div&gt;echo -n performance &amp;gt; /sys/devices/system/cpu/cpu0/cpufreq/scaling_governor&lt;/div&gt;&lt;div&gt;echo 0 &amp;gt; /proc/sys/vm/swappiness&lt;/div&gt;&lt;div&gt;#/usr/bin/taskset -c -p 3 $(pidof mpd)&lt;/div&gt;&lt;div&gt;#/usr/bin/taskset -c -p 2 $(pidof upmpdcli)&lt;/div&gt;&lt;div&gt;#/usr/bin/taskset -c -p 3 $(pidof RAATServer)&lt;/div&gt;&lt;div&gt;#/usr/bin/taskset -c -p 2 $(pidof RoonBridgeHelper)&lt;/div&gt;&lt;div&gt;#/usr/bin/renice -19 -p $(pidof mpd)&lt;/div&gt;&lt;div&gt;/usr/bin/renice -19 -p $(pidof RAATServer)&lt;/div&gt;&lt;div&gt;/usr/bin/renice -19 -p $(pidof RoonAppliance)&lt;/div&gt;&lt;div&gt;/usr/bin/renice -19 -p $(pidof RoonServer)&lt;/div&gt;&lt;div&gt;#/usr/bin/renice -18 -p $(pidof upmpdcli)&lt;/div&gt;&lt;div&gt;&lt;br&gt;&lt;/div&gt;&lt;div&gt;# bridge&lt;/div&gt;&lt;div&gt;#./roon-realtime.sh -p 99 -m FIFO -b y -r y&lt;/div&gt;&lt;div&gt;# roon server appliance raat&lt;/div&gt;&lt;div&gt;./roon-realtime.sh -p 99 -m FIFO -s y -a y -r y&lt;/div&gt;&lt;div&gt;&lt;br&gt;&lt;/div&gt;&lt;div&gt;renice +15 `pidof dhclient`&lt;/div&gt;&lt;div&gt;&lt;br&gt;&lt;/div&gt;&lt;div&gt;echo 1 &amp;gt; /proc/sys/kernel/hung_task_check_count&lt;/div&gt;&lt;div&gt;echo 20 &amp;gt; /proc/sys/vm/stat_interval&lt;/div&gt;&lt;div&gt;echo 3 &amp;gt; /proc/sys/vm/dirty_background_ratio&lt;/div&gt;&lt;div&gt;echo 10 &amp;gt; /proc/sys/vm/dirty_ratio&lt;/div&gt;&lt;div&gt;echo 225000 &amp;gt; /proc/sys/kernel/sched_min_granularity_ns&lt;/div&gt;&lt;div&gt;echo 5000000 &amp;gt; /proc/sys/kernel/sched_migration_cost_ns&lt;/div&gt;&lt;div&gt;echo 1 &amp;gt; /sys/bus/workqueue/devices/writeback/cpumask&lt;/div&gt;&lt;div&gt;#killall crond squeezelite busybox-httpd&lt;/div&gt;&lt;div&gt;#sleep 10&lt;/div&gt;&lt;div&gt;#/usr/bin/taskset -c -p 1 $(pidof RAATServer)&lt;/div&gt;&lt;div&gt;#/usr/bin/renice -19 -p $(pidof RAATServer)&lt;/div&gt;&lt;div&gt;#echo noop &amp;gt; /sys/block/mmcblk0/queue/scheduler&lt;/div&gt;&lt;div&gt;echo 0 &amp;gt; /proc/sys/vm/swappiness&lt;/div&gt;&lt;div&gt;echo 1000000 &amp;gt; /proc/sys/kernel/sched_latency_ns&lt;/div&gt;&lt;div&gt;echo 100000 &amp;gt; /proc/sys/kernel/sched_min_granularity_ns&lt;/div&gt;&lt;div&gt;echo 25000 &amp;gt; /proc/sys/kernel/sched_wakeup_granularity_ns&lt;/div&gt;&lt;div&gt;echo 1 &amp;gt; /proc/sys/kernel/hung_task_check_count&lt;/div&gt;&lt;div&gt;echo 20 &amp;gt; /proc/sys/vm/stat_interval&lt;/div&gt;&lt;div&gt;echo -1 &amp;gt; /proc/sys/kernel/sched_rt_runtime_us&lt;/div&gt;&lt;div&gt;echo 5 &amp;gt; /proc/sys/vm/dirty_background_ratio&lt;/div&gt;&lt;div&gt;for C in `ls /sys/devices/system/cpu/cpu*/cpufreq/scaling_governor` ; do&lt;/div&gt;&lt;div&gt;&amp;nbsp; echo -n performance &amp;gt; &quot;$C&quot;&lt;/div&gt;&lt;div&gt;done&lt;/div&gt;&lt;div&gt;&lt;br&gt;&lt;/div&gt;&lt;div&gt;echo -n &quot;Removing unused kernel modules:&quot;&lt;/div&gt;&lt;div&gt;R=1&lt;/div&gt;&lt;div&gt;while [ &quot;$R&quot; -eq 1 ] ; do&lt;/div&gt;&lt;div&gt;&amp;nbsp; MODS=$(/sbin/lsmod | grep &#39; &amp;nbsp;0&#39; | egrep -v &#39;^ipv6|e1000e|nvme&#39; | awk &#39;{print $1}&#39;)&lt;/div&gt;&lt;div&gt;&amp;nbsp; if [ -n &quot;$MODS&quot; ] ; then&lt;/div&gt;&lt;div&gt;&amp;nbsp; &amp;nbsp; echo &quot;Modules to remove: $MODS&quot;&lt;/div&gt;&lt;div&gt;&amp;nbsp; &amp;nbsp; echo &quot;$MODS&quot; | xargs /sbin/rmmod&lt;/div&gt;&lt;div&gt;&amp;nbsp; else&lt;/div&gt;&lt;div&gt;&amp;nbsp; &amp;nbsp; R=0&lt;/div&gt;&lt;div&gt;&amp;nbsp; fi&lt;/div&gt;&lt;div&gt;&amp;nbsp; echo -n &quot;$MODS.&quot;&lt;/div&gt;&lt;div&gt;done&lt;/div&gt;&lt;div&gt;echo &quot;&quot;&lt;/div&gt;&lt;/div&gt;&lt;/font&gt;&lt;/div&gt;&lt;p&gt;&lt;/p&gt;" style="shape=note;whiteSpace=wrap;html=1;backgroundOutline=1;darkOpacity=0.05;align=left;" parent="1" vertex="1">
          <mxGeometry x="2650" y="10" width="850" height="1850" as="geometry" />
        </mxCell>
        <mxCell id="OBH05SYVjdOEQUbnL4dN-22" value="&lt;font color=&quot;#97d077&quot;&gt;&lt;b&gt;ANALOG&lt;/b&gt;&lt;/font&gt;" style="shape=callout;whiteSpace=wrap;html=1;perimeter=calloutPerimeter;fillColor=#fff2cc;size=19;position=0.48;base=10;position2=0.15;strokeWidth=2;" parent="1" vertex="1">
          <mxGeometry x="896" y="130" width="61" height="40" as="geometry" />
        </mxCell>
        <mxCell id="OBH05SYVjdOEQUbnL4dN-25" value="" style="endArrow=none;html=1;strokeWidth=4;entryX=0.5;entryY=1;entryDx=0;entryDy=0;exitX=0;exitY=0.75;exitDx=0;exitDy=0;strokeColor=#97D077;dashed=1;dashPattern=1 1;" parent="1" source="jf7ATLeE-LSNP4t4z8-3-5" target="76j5sk3wCB9ZU_lOgHT8-39" edge="1">
          <mxGeometry width="50" height="50" relative="1" as="geometry">
            <mxPoint x="920" y="187.5625" as="sourcePoint" />
            <mxPoint x="867" y="135" as="targetPoint" />
            <Array as="points">
              <mxPoint x="900" y="170" />
              <mxPoint x="601" y="170" />
            </Array>
          </mxGeometry>
        </mxCell>
        <mxCell id="OBH05SYVjdOEQUbnL4dN-29" value="" style="endArrow=none;html=1;fillColor=#f8cecc;strokeColor=#B85450;strokeWidth=5;endSize=5;startSize=5;entryX=0;entryY=0.5;entryDx=0;entryDy=0;" parent="1" target="M235wbPJO0eQFkBtWyqc-12" edge="1">
          <mxGeometry width="50" height="50" relative="1" as="geometry">
            <mxPoint x="83" y="594" as="sourcePoint" />
            <mxPoint x="153" y="594" as="targetPoint" />
          </mxGeometry>
        </mxCell>
        <mxCell id="OBH05SYVjdOEQUbnL4dN-38" style="edgeStyle=orthogonalEdgeStyle;curved=1;orthogonalLoop=1;jettySize=auto;html=1;exitX=0.24;exitY=0.448;exitDx=0;exitDy=0;endArrow=none;endFill=0;strokeWidth=4;exitPerimeter=0;strokeColor=#B85450;" parent="1" source="iOKNTZCO_xFBOmE4Wzjg-25" target="OBH05SYVjdOEQUbnL4dN-39" edge="1">
          <mxGeometry relative="1" as="geometry">
            <mxPoint x="86" y="184.0526315789475" as="targetPoint" />
            <mxPoint x="167" y="175" as="sourcePoint" />
          </mxGeometry>
        </mxCell>
        <mxCell id="OBH05SYVjdOEQUbnL4dN-39" value="SHD Breaker" style="shape=document;whiteSpace=wrap;html=1;boundedLbl=1;" parent="1" vertex="1">
          <mxGeometry x="16" y="155" width="50" height="39.95" as="geometry" />
        </mxCell>
        <mxCell id="iOKNTZCO_xFBOmE4Wzjg-2" value="" style="rounded=1;whiteSpace=wrap;html=1;strokeColor=#666666;fontColor=#333333;fillColor=#CCCCCC;" parent="1" vertex="1">
          <mxGeometry x="19" y="890" width="490" height="280" as="geometry" />
        </mxCell>
        <mxCell id="iOKNTZCO_xFBOmE4Wzjg-3" value="P10 &amp;nbsp;Back Side" style="text;html=1;strokeColor=none;fillColor=none;align=center;verticalAlign=middle;whiteSpace=wrap;rounded=0;" parent="1" vertex="1">
          <mxGeometry x="221" y="905" width="120" height="20" as="geometry" />
        </mxCell>
        <mxCell id="iOKNTZCO_xFBOmE4Wzjg-4" value="" style="ellipse;whiteSpace=wrap;html=1;aspect=fixed;" parent="1" vertex="1">
          <mxGeometry x="146" y="950" width="70" height="70" as="geometry" />
        </mxCell>
        <mxCell id="iOKNTZCO_xFBOmE4Wzjg-14" value="LAN" style="rounded=0;whiteSpace=wrap;html=1;strokeColor=#007FFF;" parent="1" vertex="1">
          <mxGeometry x="120.5" y="895" width="33" height="20" as="geometry" />
        </mxCell>
        <mxCell id="iOKNTZCO_xFBOmE4Wzjg-16" value="PRE" style="ellipse;whiteSpace=wrap;html=1;aspect=fixed;" parent="1" vertex="1">
          <mxGeometry x="237" y="950" width="70" height="70" as="geometry" />
        </mxCell>
        <mxCell id="iOKNTZCO_xFBOmE4Wzjg-17" value="" style="ellipse;whiteSpace=wrap;html=1;aspect=fixed;" parent="1" vertex="1">
          <mxGeometry x="327" y="950" width="70" height="70" as="geometry" />
        </mxCell>
        <mxCell id="iOKNTZCO_xFBOmE4Wzjg-18" value="" style="ellipse;whiteSpace=wrap;html=1;aspect=fixed;" parent="1" vertex="1">
          <mxGeometry x="417" y="950" width="70" height="70" as="geometry" />
        </mxCell>
        <mxCell id="iOKNTZCO_xFBOmE4Wzjg-19" value="ECP" style="ellipse;whiteSpace=wrap;html=1;aspect=fixed;" parent="1" vertex="1">
          <mxGeometry x="119" y="1050" width="70" height="70" as="geometry" />
        </mxCell>
        <mxCell id="iOKNTZCO_xFBOmE4Wzjg-20" value="SUPRA" style="ellipse;whiteSpace=wrap;html=1;aspect=fixed;" parent="1" vertex="1">
          <mxGeometry x="210" y="1050" width="70" height="70" as="geometry" />
        </mxCell>
        <mxCell id="iOKNTZCO_xFBOmE4Wzjg-21" value="AMP-R" style="ellipse;whiteSpace=wrap;html=1;aspect=fixed;" parent="1" vertex="1">
          <mxGeometry x="300" y="1050" width="70" height="70" as="geometry" />
        </mxCell>
        <mxCell id="iOKNTZCO_xFBOmE4Wzjg-22" value="AMP L" style="ellipse;whiteSpace=wrap;html=1;aspect=fixed;" parent="1" vertex="1">
          <mxGeometry x="390" y="1050" width="70" height="70" as="geometry" />
        </mxCell>
        <mxCell id="iOKNTZCO_xFBOmE4Wzjg-24" value="POWER" style="shape=parallelogram;perimeter=parallelogramPerimeter;whiteSpace=wrap;html=1;fixedSize=1;" parent="1" vertex="1">
          <mxGeometry x="26.5" y="1070" width="83" height="30" as="geometry" />
        </mxCell>
        <mxCell id="iOKNTZCO_xFBOmE4Wzjg-25" value="" style="shape=parallelogram;perimeter=parallelogramPerimeter;whiteSpace=wrap;html=1;fixedSize=1;" parent="1" vertex="1">
          <mxGeometry x="157" y="166" width="50" height="19.97" as="geometry" />
        </mxCell>
        <mxCell id="iOKNTZCO_xFBOmE4Wzjg-26" value="DAC" style="ellipse;whiteSpace=wrap;html=1;aspect=fixed;" parent="1" vertex="1">
          <mxGeometry x="64" y="950" width="70" height="70" as="geometry" />
        </mxCell>
        <mxCell id="iOKNTZCO_xFBOmE4Wzjg-27" value="" style="endArrow=none;html=1;shadow=0;entryX=0.5;entryY=1;entryDx=0;entryDy=0;exitX=0.7;exitY=0.057;exitDx=0;exitDy=0;exitPerimeter=0;strokeWidth=3;" parent="1" source="iOKNTZCO_xFBOmE4Wzjg-22" target="iOKNTZCO_xFBOmE4Wzjg-18" edge="1">
          <mxGeometry width="50" height="50" relative="1" as="geometry">
            <mxPoint x="299" y="990" as="sourcePoint" />
            <mxPoint x="349" y="940" as="targetPoint" />
          </mxGeometry>
        </mxCell>
        <mxCell id="iOKNTZCO_xFBOmE4Wzjg-31" value="A" style="edgeLabel;html=1;align=center;verticalAlign=middle;resizable=0;points=[];labelBackgroundColor=none;fontSize=16;" parent="iOKNTZCO_xFBOmE4Wzjg-27" vertex="1" connectable="0">
          <mxGeometry x="0.1002" y="-2" relative="1" as="geometry">
            <mxPoint x="6.99" as="offset" />
          </mxGeometry>
        </mxCell>
        <mxCell id="iOKNTZCO_xFBOmE4Wzjg-28" value="" style="endArrow=none;html=1;shadow=0;entryX=0.5;entryY=1;entryDx=0;entryDy=0;exitX=0.743;exitY=0.029;exitDx=0;exitDy=0;exitPerimeter=0;strokeWidth=3;" parent="1" source="iOKNTZCO_xFBOmE4Wzjg-21" target="iOKNTZCO_xFBOmE4Wzjg-17" edge="1">
          <mxGeometry width="50" height="50" relative="1" as="geometry">
            <mxPoint x="449" y="1063.9899999999998" as="sourcePoint" />
            <mxPoint x="462" y="1030" as="targetPoint" />
          </mxGeometry>
        </mxCell>
        <mxCell id="iOKNTZCO_xFBOmE4Wzjg-29" value="" style="endArrow=none;html=1;shadow=0;entryX=0.5;entryY=1;entryDx=0;entryDy=0;strokeWidth=3;" parent="1" source="iOKNTZCO_xFBOmE4Wzjg-20" target="iOKNTZCO_xFBOmE4Wzjg-16" edge="1">
          <mxGeometry width="50" height="50" relative="1" as="geometry">
            <mxPoint x="459" y="1073.9899999999998" as="sourcePoint" />
            <mxPoint x="472" y="1040" as="targetPoint" />
          </mxGeometry>
        </mxCell>
        <mxCell id="iOKNTZCO_xFBOmE4Wzjg-30" value="" style="endArrow=none;html=1;shadow=0;entryX=0.5;entryY=1;entryDx=0;entryDy=0;exitX=0.657;exitY=0.029;exitDx=0;exitDy=0;exitPerimeter=0;strokeWidth=3;" parent="1" source="iOKNTZCO_xFBOmE4Wzjg-19" target="iOKNTZCO_xFBOmE4Wzjg-4" edge="1">
          <mxGeometry width="50" height="50" relative="1" as="geometry">
            <mxPoint x="469" y="1083.9899999999998" as="sourcePoint" />
            <mxPoint x="482" y="1050" as="targetPoint" />
          </mxGeometry>
        </mxCell>
        <mxCell id="iOKNTZCO_xFBOmE4Wzjg-33" value="B" style="edgeLabel;html=1;align=center;verticalAlign=middle;resizable=0;points=[];labelBackgroundColor=none;fontSize=16;" parent="1" vertex="1" connectable="0">
          <mxGeometry x="461.00261618071045" y="1050.0041226326352" as="geometry">
            <mxPoint x="-93" y="-15" as="offset" />
          </mxGeometry>
        </mxCell>
        <mxCell id="iOKNTZCO_xFBOmE4Wzjg-34" value="C" style="edgeLabel;html=1;align=center;verticalAlign=middle;resizable=0;points=[];labelBackgroundColor=none;fontSize=16;" parent="1" vertex="1" connectable="0">
          <mxGeometry x="471.00261618071045" y="1050.0041226326352" as="geometry">
            <mxPoint x="-196" y="-14" as="offset" />
          </mxGeometry>
        </mxCell>
        <mxCell id="iOKNTZCO_xFBOmE4Wzjg-35" value="D" style="edgeLabel;html=1;align=center;verticalAlign=middle;resizable=0;points=[];labelBackgroundColor=none;fontSize=16;" parent="1" vertex="1" connectable="0">
          <mxGeometry x="186.00261618071045" y="1030.0041226326352" as="geometry">
            <mxPoint x="-2" y="5" as="offset" />
          </mxGeometry>
        </mxCell>
        <mxCell id="iOKNTZCO_xFBOmE4Wzjg-36" value="E" style="edgeLabel;html=1;align=center;verticalAlign=middle;resizable=0;points=[];labelBackgroundColor=none;fontSize=16;" parent="1" vertex="1" connectable="0">
          <mxGeometry x="495.00261618071045" y="1080.0041226326352" as="geometry">
            <mxPoint x="-398" y="-46" as="offset" />
          </mxGeometry>
        </mxCell>
        <mxCell id="iOKNTZCO_xFBOmE4Wzjg-37" value="High Current&lt;br&gt;&lt;br&gt;&lt;br&gt;&lt;br&gt;" style="rounded=1;whiteSpace=wrap;html=1;labelBackgroundColor=none;fontSize=16;fillColor=none;" parent="1" vertex="1">
          <mxGeometry x="59" y="923" width="160" height="100" as="geometry" />
        </mxCell>
        <mxCell id="iOKNTZCO_xFBOmE4Wzjg-38" value="" style="rounded=1;whiteSpace=wrap;html=1;strokeColor=#666666;fontColor=#333333;fillColor=#CCCCCC;" parent="1" vertex="1">
          <mxGeometry x="579" y="895" width="490" height="280" as="geometry" />
        </mxCell>
        <mxCell id="iOKNTZCO_xFBOmE4Wzjg-39" value="P10 &amp;nbsp;Back Side" style="text;html=1;strokeColor=none;fillColor=none;align=center;verticalAlign=middle;whiteSpace=wrap;rounded=0;" parent="1" vertex="1">
          <mxGeometry x="781" y="910" width="120" height="20" as="geometry" />
        </mxCell>
        <mxCell id="iOKNTZCO_xFBOmE4Wzjg-40" value="AMP-L" style="ellipse;whiteSpace=wrap;html=1;aspect=fixed;" parent="1" vertex="1">
          <mxGeometry x="706" y="955" width="70" height="70" as="geometry" />
        </mxCell>
        <mxCell id="iOKNTZCO_xFBOmE4Wzjg-41" value="LAN" style="rounded=0;whiteSpace=wrap;html=1;strokeColor=#007FFF;" parent="1" vertex="1">
          <mxGeometry x="680.5" y="900" width="33" height="20" as="geometry" />
        </mxCell>
        <mxCell id="iOKNTZCO_xFBOmE4Wzjg-42" value="PRE" style="ellipse;whiteSpace=wrap;html=1;aspect=fixed;" parent="1" vertex="1">
          <mxGeometry x="797" y="955" width="70" height="70" as="geometry" />
        </mxCell>
        <mxCell id="iOKNTZCO_xFBOmE4Wzjg-43" value="Sbooster&lt;br&gt;1,5m" style="ellipse;whiteSpace=wrap;html=1;aspect=fixed;fillColor=#fff2cc;strokeColor=#d6b656;" parent="1" vertex="1">
          <mxGeometry x="887" y="955" width="70" height="70" as="geometry" />
        </mxCell>
        <mxCell id="iOKNTZCO_xFBOmE4Wzjg-44" value="Farad3" style="ellipse;whiteSpace=wrap;html=1;aspect=fixed;fillColor=#fff2cc;strokeColor=#d6b656;" parent="1" vertex="1">
          <mxGeometry x="977" y="955" width="70" height="70" as="geometry" />
        </mxCell>
        <mxCell id="iOKNTZCO_xFBOmE4Wzjg-45" value="" style="ellipse;whiteSpace=wrap;html=1;aspect=fixed;" parent="1" vertex="1">
          <mxGeometry x="679" y="1055" width="70" height="70" as="geometry" />
        </mxCell>
        <mxCell id="iOKNTZCO_xFBOmE4Wzjg-46" value="DAC" style="ellipse;whiteSpace=wrap;html=1;aspect=fixed;" parent="1" vertex="1">
          <mxGeometry x="770" y="1055" width="70" height="70" as="geometry" />
        </mxCell>
        <mxCell id="iOKNTZCO_xFBOmE4Wzjg-47" value="&lt;span&gt;ECP&lt;br&gt;1,5m&lt;br&gt;&lt;/span&gt;" style="ellipse;whiteSpace=wrap;html=1;aspect=fixed;fillColor=#fff2cc;strokeColor=#d6b656;" parent="1" vertex="1">
          <mxGeometry x="860" y="1055" width="70" height="70" as="geometry" />
        </mxCell>
        <mxCell id="iOKNTZCO_xFBOmE4Wzjg-48" value="&lt;span&gt;SUPRA + opto&lt;/span&gt;" style="ellipse;whiteSpace=wrap;html=1;aspect=fixed;" parent="1" vertex="1">
          <mxGeometry x="950" y="1055" width="70" height="70" as="geometry" />
        </mxCell>
        <mxCell id="iOKNTZCO_xFBOmE4Wzjg-49" value="POWER" style="shape=parallelogram;perimeter=parallelogramPerimeter;whiteSpace=wrap;html=1;fixedSize=1;" parent="1" vertex="1">
          <mxGeometry x="586.5" y="1075" width="83" height="30" as="geometry" />
        </mxCell>
        <mxCell id="iOKNTZCO_xFBOmE4Wzjg-50" value="AMP-R" style="ellipse;whiteSpace=wrap;html=1;aspect=fixed;" parent="1" vertex="1">
          <mxGeometry x="624" y="955" width="70" height="70" as="geometry" />
        </mxCell>
        <mxCell id="iOKNTZCO_xFBOmE4Wzjg-51" value="" style="endArrow=none;html=1;shadow=0;entryX=0.5;entryY=1;entryDx=0;entryDy=0;exitX=0.7;exitY=0.057;exitDx=0;exitDy=0;exitPerimeter=0;strokeWidth=3;" parent="1" source="iOKNTZCO_xFBOmE4Wzjg-48" target="iOKNTZCO_xFBOmE4Wzjg-44" edge="1">
          <mxGeometry width="50" height="50" relative="1" as="geometry">
            <mxPoint x="859" y="995" as="sourcePoint" />
            <mxPoint x="909" y="945" as="targetPoint" />
          </mxGeometry>
        </mxCell>
        <mxCell id="iOKNTZCO_xFBOmE4Wzjg-52" value="A" style="edgeLabel;html=1;align=center;verticalAlign=middle;resizable=0;points=[];labelBackgroundColor=none;fontSize=16;" parent="iOKNTZCO_xFBOmE4Wzjg-51" vertex="1" connectable="0">
          <mxGeometry x="0.1002" y="-2" relative="1" as="geometry">
            <mxPoint x="6.99" as="offset" />
          </mxGeometry>
        </mxCell>
        <mxCell id="iOKNTZCO_xFBOmE4Wzjg-53" value="" style="endArrow=none;html=1;shadow=0;entryX=0.5;entryY=1;entryDx=0;entryDy=0;exitX=0.743;exitY=0.029;exitDx=0;exitDy=0;exitPerimeter=0;strokeWidth=3;" parent="1" source="iOKNTZCO_xFBOmE4Wzjg-47" target="iOKNTZCO_xFBOmE4Wzjg-43" edge="1">
          <mxGeometry width="50" height="50" relative="1" as="geometry">
            <mxPoint x="1009" y="1068.9899999999998" as="sourcePoint" />
            <mxPoint x="1022" y="1035" as="targetPoint" />
          </mxGeometry>
        </mxCell>
        <mxCell id="iOKNTZCO_xFBOmE4Wzjg-54" value="" style="endArrow=none;html=1;shadow=0;entryX=0.5;entryY=1;entryDx=0;entryDy=0;strokeWidth=3;" parent="1" source="iOKNTZCO_xFBOmE4Wzjg-46" target="iOKNTZCO_xFBOmE4Wzjg-42" edge="1">
          <mxGeometry width="50" height="50" relative="1" as="geometry">
            <mxPoint x="1019" y="1078.9899999999998" as="sourcePoint" />
            <mxPoint x="1032" y="1045" as="targetPoint" />
          </mxGeometry>
        </mxCell>
        <mxCell id="iOKNTZCO_xFBOmE4Wzjg-55" value="" style="endArrow=none;html=1;shadow=0;entryX=0.5;entryY=1;entryDx=0;entryDy=0;exitX=0.657;exitY=0.029;exitDx=0;exitDy=0;exitPerimeter=0;strokeWidth=3;" parent="1" source="iOKNTZCO_xFBOmE4Wzjg-45" target="iOKNTZCO_xFBOmE4Wzjg-40" edge="1">
          <mxGeometry width="50" height="50" relative="1" as="geometry">
            <mxPoint x="1029" y="1088.9899999999998" as="sourcePoint" />
            <mxPoint x="1042" y="1055" as="targetPoint" />
          </mxGeometry>
        </mxCell>
        <mxCell id="iOKNTZCO_xFBOmE4Wzjg-56" value="B" style="edgeLabel;html=1;align=center;verticalAlign=middle;resizable=0;points=[];labelBackgroundColor=none;fontSize=16;" parent="1" vertex="1" connectable="0">
          <mxGeometry x="1021.0026161807104" y="1055.0041226326352" as="geometry">
            <mxPoint x="-93" y="-15" as="offset" />
          </mxGeometry>
        </mxCell>
        <mxCell id="iOKNTZCO_xFBOmE4Wzjg-57" value="C" style="edgeLabel;html=1;align=center;verticalAlign=middle;resizable=0;points=[];labelBackgroundColor=none;fontSize=16;" parent="1" vertex="1" connectable="0">
          <mxGeometry x="1031.0026161807104" y="1055.0041226326352" as="geometry">
            <mxPoint x="-196" y="-14" as="offset" />
          </mxGeometry>
        </mxCell>
        <mxCell id="iOKNTZCO_xFBOmE4Wzjg-58" value="D" style="edgeLabel;html=1;align=center;verticalAlign=middle;resizable=0;points=[];labelBackgroundColor=none;fontSize=16;" parent="1" vertex="1" connectable="0">
          <mxGeometry x="746.0026161807104" y="1035.0041226326352" as="geometry">
            <mxPoint x="-2" y="5" as="offset" />
          </mxGeometry>
        </mxCell>
        <mxCell id="iOKNTZCO_xFBOmE4Wzjg-59" value="E" style="edgeLabel;html=1;align=center;verticalAlign=middle;resizable=0;points=[];labelBackgroundColor=none;fontSize=16;" parent="1" vertex="1" connectable="0">
          <mxGeometry x="1055.0026161807104" y="1085.0041226326352" as="geometry">
            <mxPoint x="-398" y="-46" as="offset" />
          </mxGeometry>
        </mxCell>
        <mxCell id="iOKNTZCO_xFBOmE4Wzjg-60" value="High Current&lt;br&gt;&lt;br&gt;&lt;br&gt;&lt;br&gt;" style="rounded=1;whiteSpace=wrap;html=1;labelBackgroundColor=none;fontSize=16;fillColor=none;" parent="1" vertex="1">
          <mxGeometry x="621" y="927" width="160" height="100" as="geometry" />
        </mxCell>
        <mxCell id="iOKNTZCO_xFBOmE4Wzjg-62" value="LPS1.2 SuperCap" style="ellipse;whiteSpace=wrap;html=1;aspect=fixed;fillColor=#fff2cc;strokeColor=#d6b656;" parent="1" vertex="1">
          <mxGeometry x="706" y="1230" width="70" height="70" as="geometry" />
        </mxCell>
        <mxCell id="iOKNTZCO_xFBOmE4Wzjg-63" value="Fuses to upgrade:&lt;br&gt;1. Farad3 -&amp;gt; 0,5~0,8A &amp;nbsp;T&lt;br&gt;2. Mackenzie -&amp;gt; 1A T&lt;br&gt;3. ECP1 -&amp;gt; 0,5A / T" style="shape=document;whiteSpace=wrap;html=1;boundedLbl=1;labelBackgroundColor=none;fillColor=#FFE599;fontSize=16;" parent="1" vertex="1">
          <mxGeometry x="377" y="1213" width="289.5" height="125" as="geometry" />
        </mxCell>
        <mxCell id="VHM7Qlexj8Ra0WAUJ4W9-10" value="EtherRegen" style="group;fontSize=11;verticalAlign=bottom;" parent="1" vertex="1" connectable="0">
          <mxGeometry x="453" y="499.5" width="112" height="31" as="geometry" />
        </mxCell>
        <mxCell id="VHM7Qlexj8Ra0WAUJ4W9-1" value="&lt;font style=&quot;font-size: 10px&quot;&gt;&lt;br&gt;&lt;/font&gt;&lt;div style=&quot;font-size: 10px&quot;&gt;&lt;div&gt;&lt;font style=&quot;font-size: 10px&quot;&gt;&amp;nbsp; &amp;nbsp; &amp;nbsp; &amp;nbsp; &amp;nbsp; &amp;nbsp; EtherRegen&lt;/font&gt;&lt;/div&gt;&lt;/div&gt;" style="rounded=1;whiteSpace=wrap;html=1;align=left;" parent="VHM7Qlexj8Ra0WAUJ4W9-10" vertex="1">
          <mxGeometry width="112" height="31" as="geometry" />
        </mxCell>
        <mxCell id="VHM7Qlexj8Ra0WAUJ4W9-3" value="A" style="rounded=0;whiteSpace=wrap;html=1;strokeColor=#007FFF;fillColor=#00FF00;" parent="VHM7Qlexj8Ra0WAUJ4W9-10" vertex="1">
          <mxGeometry x="51.85185185185185" y="3" width="10.37037037037037" height="10" as="geometry" />
        </mxCell>
        <mxCell id="VHM7Qlexj8Ra0WAUJ4W9-5" value="A" style="rounded=0;whiteSpace=wrap;html=1;strokeColor=#007FFF;fillColor=#00FF00;" parent="VHM7Qlexj8Ra0WAUJ4W9-10" vertex="1">
          <mxGeometry x="35.25925925925926" y="3" width="10.37037037037037" height="10" as="geometry" />
        </mxCell>
        <mxCell id="VHM7Qlexj8Ra0WAUJ4W9-6" value="A" style="rounded=0;whiteSpace=wrap;html=1;strokeColor=#007FFF;fillColor=#00FF00;" parent="VHM7Qlexj8Ra0WAUJ4W9-10" vertex="1">
          <mxGeometry x="19.703703703703702" y="3" width="10.37037037037037" height="10" as="geometry" />
        </mxCell>
        <mxCell id="VHM7Qlexj8Ra0WAUJ4W9-7" value="A" style="rounded=0;whiteSpace=wrap;html=1;strokeColor=#007FFF;" parent="VHM7Qlexj8Ra0WAUJ4W9-10" vertex="1">
          <mxGeometry x="4.148148148148148" y="3" width="10.37037037037037" height="10" as="geometry" />
        </mxCell>
        <mxCell id="VHM7Qlexj8Ra0WAUJ4W9-9" value="&lt;font style=&quot;font-size: 11px&quot;&gt;B&lt;/font&gt;" style="rounded=0;whiteSpace=wrap;html=1;strokeColor=#007FFF;" parent="VHM7Qlexj8Ra0WAUJ4W9-10" vertex="1">
          <mxGeometry x="96.44444444444444" y="3" width="10.37037037037037" height="10" as="geometry" />
        </mxCell>
        <mxCell id="VHM7Qlexj8Ra0WAUJ4W9-2" value="" style="ellipse;whiteSpace=wrap;html=1;aspect=fixed;" parent="VHM7Qlexj8Ra0WAUJ4W9-10" vertex="1">
          <mxGeometry x="89.18518518518518" y="17" width="10" height="10" as="geometry" />
        </mxCell>
        <mxCell id="73kRBJL7OHnVRC0ZUZlv-2" value="&lt;font style=&quot;font-size: 8px&quot;&gt;GND&lt;/font&gt;" style="ellipse;whiteSpace=wrap;html=1;aspect=fixed;" parent="VHM7Qlexj8Ra0WAUJ4W9-10" vertex="1">
          <mxGeometry x="66.19" width="19" height="19" as="geometry" />
        </mxCell>
        <mxCell id="VHM7Qlexj8Ra0WAUJ4W9-12" value="" style="endArrow=none;html=1;strokeWidth=2;strokeColor=#007FFF;jumpStyle=arc;jumpSize=8;exitX=0.5;exitY=0;exitDx=0;exitDy=0;" parent="1" source="VHM7Qlexj8Ra0WAUJ4W9-9" target="M235wbPJO0eQFkBtWyqc-55" edge="1">
          <mxGeometry width="50" height="50" relative="1" as="geometry">
            <mxPoint x="351" y="528.75" as="sourcePoint" />
            <mxPoint x="363" y="528.75" as="targetPoint" />
          </mxGeometry>
        </mxCell>
        <mxCell id="VHM7Qlexj8Ra0WAUJ4W9-13" value="Farad Super 3&lt;br&gt;7V / 3A&lt;br&gt;&lt;font style=&quot;font-size: 8px&quot;&gt;+ 1m level 2DC cable&lt;br&gt;SUPRA 1m cable&lt;/font&gt;" style="rounded=1;whiteSpace=wrap;html=1;arcSize=50;gradientColor=#ffd966;fillColor=#fff2cc;strokeColor=#d6b656;" parent="1" vertex="1">
          <mxGeometry x="453" y="549" width="119" height="53" as="geometry" />
        </mxCell>
        <mxCell id="VHM7Qlexj8Ra0WAUJ4W9-14" value="" style="endArrow=none;html=1;fillColor=#f8cecc;strokeColor=#B85450;strokeWidth=2;entryX=0.5;entryY=1;entryDx=0;entryDy=0;" parent="1" target="VHM7Qlexj8Ra0WAUJ4W9-2" edge="1">
          <mxGeometry width="50" height="50" relative="1" as="geometry">
            <mxPoint x="547" y="549" as="sourcePoint" />
            <mxPoint x="692.5" y="526.1999999999998" as="targetPoint" />
          </mxGeometry>
        </mxCell>
        <mxCell id="VHM7Qlexj8Ra0WAUJ4W9-15" value="" style="endArrow=none;html=1;fillColor=#f8cecc;strokeColor=#B85450;exitX=0;exitY=0.5;exitDx=0;exitDy=0;strokeWidth=3;entryX=0.55;entryY=0.95;entryDx=0;entryDy=0;entryPerimeter=0;" parent="1" source="M235wbPJO0eQFkBtWyqc-27" target="Hf-usB7I5xMmd8kvtAqm-4" edge="1">
          <mxGeometry width="50" height="50" relative="1" as="geometry">
            <mxPoint x="722" y="675" as="sourcePoint" />
            <mxPoint x="538" y="630" as="targetPoint" />
          </mxGeometry>
        </mxCell>
        <mxCell id="VHM7Qlexj8Ra0WAUJ4W9-8" value="&lt;font style=&quot;font-size: 9px&quot;&gt;SFP-A&lt;/font&gt;" style="rounded=0;whiteSpace=wrap;html=1;horizontal=1;align=right;verticalAlign=middle;fillColor=#ffe6cc;strokeColor=#d79b00;" parent="1" vertex="1">
          <mxGeometry x="457" y="515.5" width="30" height="12" as="geometry" />
        </mxCell>
        <mxCell id="_tXeU-_P2e6HH1YEGhMK-1" value="Farad Super 3&lt;br&gt;7V / 3A&lt;br&gt;+ 1m level 1DC cable" style="rounded=1;whiteSpace=wrap;html=1;arcSize=50;gradientColor=#ffd966;fillColor=#fff2cc;strokeColor=#d6b656;" parent="1" vertex="1">
          <mxGeometry x="298" y="549" width="134" height="53" as="geometry" />
        </mxCell>
        <mxCell id="OBH05SYVjdOEQUbnL4dN-11" value="" style="endArrow=none;html=1;fillColor=#e3c800;rounded=1;strokeWidth=3;endFill=0;entryX=1;entryY=0.5;entryDx=0;entryDy=0;exitX=0;exitY=0.5;exitDx=0;exitDy=0;shadow=0;sketch=0;strokeColor=#FF9933;" parent="1" source="VHM7Qlexj8Ra0WAUJ4W9-8" target="OBH05SYVjdOEQUbnL4dN-9" edge="1">
          <mxGeometry width="50" height="50" relative="1" as="geometry">
            <mxPoint x="389" y="508.75" as="sourcePoint" />
            <mxPoint x="383" y="506" as="targetPoint" />
            <Array as="points" />
          </mxGeometry>
        </mxCell>
        <mxCell id="_tXeU-_P2e6HH1YEGhMK-3" value="" style="ellipse;whiteSpace=wrap;html=1;aspect=fixed;" parent="1" vertex="1">
          <mxGeometry x="398.9951851851852" y="528.5" width="10" height="10" as="geometry" />
        </mxCell>
        <mxCell id="_tXeU-_P2e6HH1YEGhMK-4" value="" style="endArrow=none;html=1;fillColor=#f8cecc;strokeColor=#B85450;strokeWidth=2;entryX=0.5;entryY=1;entryDx=0;entryDy=0;exitX=0.795;exitY=0.009;exitDx=0;exitDy=0;exitPerimeter=0;" parent="1" source="_tXeU-_P2e6HH1YEGhMK-1" target="_tXeU-_P2e6HH1YEGhMK-3" edge="1">
          <mxGeometry width="50" height="50" relative="1" as="geometry">
            <mxPoint x="557" y="559.0000000000002" as="sourcePoint" />
            <mxPoint x="702.5" y="536.1999999999998" as="targetPoint" />
          </mxGeometry>
        </mxCell>
        <mxCell id="Hf-usB7I5xMmd8kvtAqm-4" value="P10?" style="ellipse;shape=cloud;whiteSpace=wrap;html=1;fillColor=#FFFF66;dashed=1;opacity=50;textOpacity=25;" parent="1" vertex="1">
          <mxGeometry x="504" y="609" width="63" height="25" as="geometry" />
        </mxCell>
        <mxCell id="Hf-usB7I5xMmd8kvtAqm-6" value="" style="endArrow=none;html=1;fillColor=#f8cecc;strokeColor=#B85450;strokeWidth=5;entryX=0.25;entryY=1;entryDx=0;entryDy=0;" parent="1" target="_tXeU-_P2e6HH1YEGhMK-1" edge="1">
          <mxGeometry width="50" height="50" relative="1" as="geometry">
            <mxPoint x="83" y="632" as="sourcePoint" />
            <mxPoint x="332" y="610" as="targetPoint" />
            <Array as="points">
              <mxPoint x="332" y="632" />
            </Array>
          </mxGeometry>
        </mxCell>
        <mxCell id="Hf-usB7I5xMmd8kvtAqm-7" value="" style="endArrow=none;html=1;fillColor=#f8cecc;strokeColor=#B85450;strokeWidth=3;exitX=0.542;exitY=0.196;exitDx=0;exitDy=0;exitPerimeter=0;entryX=0.714;entryY=1.013;entryDx=0;entryDy=0;entryPerimeter=0;" parent="1" source="Hf-usB7I5xMmd8kvtAqm-4" target="VHM7Qlexj8Ra0WAUJ4W9-13" edge="1">
          <mxGeometry width="50" height="50" relative="1" as="geometry">
            <mxPoint x="352" y="685" as="sourcePoint" />
            <mxPoint x="538" y="600" as="targetPoint" />
          </mxGeometry>
        </mxCell>
        <mxCell id="Hf-usB7I5xMmd8kvtAqm-8" value="pf Eth Isol" style="rounded=1;whiteSpace=wrap;html=1;fillColor=#90BEFF;" parent="1" vertex="1">
          <mxGeometry x="285" y="511.5" width="58" height="18.5" as="geometry" />
        </mxCell>
        <mxCell id="Hf-usB7I5xMmd8kvtAqm-9" value="" style="endArrow=none;html=1;strokeWidth=2;strokeColor=#007FFF;jumpStyle=arc;jumpSize=8;exitX=1;exitY=0.5;exitDx=0;exitDy=0;entryX=0;entryY=0.5;entryDx=0;entryDy=0;" parent="1" source="M235wbPJO0eQFkBtWyqc-1" target="Hf-usB7I5xMmd8kvtAqm-8" edge="1">
          <mxGeometry width="50" height="50" relative="1" as="geometry">
            <mxPoint x="334.9999999999998" y="530.75" as="sourcePoint" />
            <mxPoint x="263" y="522" as="targetPoint" />
          </mxGeometry>
        </mxCell>
        <mxCell id="aX2-kF78zCho-L2iL_NG-1" value="tplink MC" style="rounded=1;whiteSpace=wrap;html=1;fillColor=#FFFFFF;" parent="1" vertex="1">
          <mxGeometry x="1632" y="125" width="58" height="18.5" as="geometry" />
        </mxCell>
        <mxCell id="aX2-kF78zCho-L2iL_NG-2" value="tplink MC" style="rounded=1;whiteSpace=wrap;html=1;fillColor=#FFFF00;" parent="1" vertex="1">
          <mxGeometry x="1559" y="125" width="58" height="18.5" as="geometry" />
        </mxCell>
        <mxCell id="aX2-kF78zCho-L2iL_NG-3" value="" style="endArrow=none;html=1;fillColor=#e3c800;rounded=1;strokeWidth=3;endFill=0;entryX=1;entryY=0.5;entryDx=0;entryDy=0;exitX=0;exitY=0.5;exitDx=0;exitDy=0;shadow=0;sketch=0;strokeColor=#FF9933;" parent="1" source="aX2-kF78zCho-L2iL_NG-1" target="aX2-kF78zCho-L2iL_NG-2" edge="1">
          <mxGeometry width="50" height="50" relative="1" as="geometry">
            <mxPoint x="1930" y="202" as="sourcePoint" />
            <mxPoint x="1889" y="200.5" as="targetPoint" />
            <Array as="points" />
          </mxGeometry>
        </mxCell>
        <mxCell id="aX2-kF78zCho-L2iL_NG-4" value="" style="endArrow=none;html=1;strokeWidth=2;strokeColor=#007FFF;jumpStyle=arc;jumpSize=8;exitX=0.5;exitY=0;exitDx=0;exitDy=0;entryX=0.75;entryY=1;entryDx=0;entryDy=0;" parent="1" target="aX2-kF78zCho-L2iL_NG-1" edge="1">
          <mxGeometry width="50" height="50" relative="1" as="geometry">
            <mxPoint x="1675" y="210" as="sourcePoint" />
            <mxPoint x="1740" y="232.25" as="targetPoint" />
          </mxGeometry>
        </mxCell>
        <mxCell id="aX2-kF78zCho-L2iL_NG-6" value="" style="endArrow=none;html=1;fillColor=#f8cecc;strokeColor=#FF0000;strokeWidth=2;entryX=0.342;entryY=0.977;entryDx=0;entryDy=0;entryPerimeter=0;startArrow=none;exitX=0.75;exitY=0;exitDx=0;exitDy=0;" parent="1" source="aX2-kF78zCho-L2iL_NG-7" target="aX2-kF78zCho-L2iL_NG-1" edge="1">
          <mxGeometry width="50" height="50" relative="1" as="geometry">
            <mxPoint x="1546" y="192.5" as="sourcePoint" />
            <mxPoint x="1579.2420000000002" y="201.27850000000012" as="targetPoint" />
            <Array as="points" />
          </mxGeometry>
        </mxCell>
        <mxCell id="aX2-kF78zCho-L2iL_NG-8" value="" style="endArrow=none;html=1;strokeWidth=2;strokeColor=#007FFF;jumpStyle=arc;jumpSize=8;exitX=0;exitY=0.5;exitDx=0;exitDy=0;" parent="1" source="M235wbPJO0eQFkBtWyqc-1" edge="1">
          <mxGeometry width="50" height="50" relative="1" as="geometry">
            <mxPoint x="222" y="517.5" as="sourcePoint" />
            <mxPoint x="83" y="521" as="targetPoint" />
          </mxGeometry>
        </mxCell>
        <mxCell id="aX2-kF78zCho-L2iL_NG-7" value="&lt;font style=&quot;font-size: 9px&quot;&gt;SMSL Sanskrit&lt;/font&gt;&lt;br&gt;9V&amp;nbsp;1,2A" style="rounded=1;whiteSpace=wrap;html=1;fillColor=#f8cecc;strokeColor=#b85450;" parent="1" vertex="1">
          <mxGeometry x="1595" y="156" width="71" height="33" as="geometry" />
        </mxCell>
        <mxCell id="aX2-kF78zCho-L2iL_NG-10" value="" style="endArrow=none;html=1;fillColor=#f8cecc;strokeColor=#FF0000;strokeWidth=2;entryX=0.75;entryY=1;entryDx=0;entryDy=0;startArrow=none;exitX=0.173;exitY=-0.011;exitDx=0;exitDy=0;exitPerimeter=0;" parent="1" source="aX2-kF78zCho-L2iL_NG-7" target="aX2-kF78zCho-L2iL_NG-2" edge="1">
          <mxGeometry width="50" height="50" relative="1" as="geometry">
            <mxPoint x="1643.231334429397" y="166" as="sourcePoint" />
            <mxPoint x="1651.6860000000001" y="153.0005000000001" as="targetPoint" />
            <Array as="points" />
          </mxGeometry>
        </mxCell>
        <mxCell id="aX2-kF78zCho-L2iL_NG-11" value="pf Eth Isol" style="rounded=1;whiteSpace=wrap;html=1;fillColor=#90BEFF;" parent="1" vertex="1">
          <mxGeometry x="185" y="44" width="58" height="18.5" as="geometry" />
        </mxCell>
        <mxCell id="Gv2O5mrMbRiNB_CN_VDk-3" value="" style="endArrow=none;html=1;fillColor=#f8cecc;strokeColor=#B85450;strokeWidth=5;endSize=5;startSize=5;entryX=0;entryY=0.5;entryDx=0;entryDy=0;" parent="1" target="aX2-kF78zCho-L2iL_NG-7" edge="1">
          <mxGeometry width="50" height="50" relative="1" as="geometry">
            <mxPoint x="1546" y="172.5" as="sourcePoint" />
            <mxPoint x="1576" y="173.5" as="targetPoint" />
          </mxGeometry>
        </mxCell>
        <mxCell id="Gv2O5mrMbRiNB_CN_VDk-4" value="" style="verticalLabelPosition=bottom;verticalAlign=top;html=1;shape=mxgraph.basic.flash;fontSize=9;fillColor=#CC0000;" parent="1" vertex="1">
          <mxGeometry x="60" y="593.5" width="18" height="39.25" as="geometry" />
        </mxCell>
        <mxCell id="Gv2O5mrMbRiNB_CN_VDk-5" value="" style="verticalLabelPosition=bottom;verticalAlign=top;html=1;shape=mxgraph.basic.flash;fontSize=9;fillColor=#CC0000;" parent="1" vertex="1">
          <mxGeometry x="1519" y="156" width="18" height="39.25" as="geometry" />
        </mxCell>
        <mxCell id="Gv2O5mrMbRiNB_CN_VDk-6" value="" style="verticalLabelPosition=bottom;verticalAlign=top;html=1;shape=mxgraph.basic.flash;fontSize=9;fillColor=#CC0000;" parent="1" vertex="1">
          <mxGeometry x="64" y="273.37" width="18" height="39.25" as="geometry" />
        </mxCell>
        <mxCell id="Gv2O5mrMbRiNB_CN_VDk-7" value="" style="verticalLabelPosition=bottom;verticalAlign=top;html=1;shape=mxgraph.basic.flash;fontSize=9;fillColor=#CC0000;" parent="1" vertex="1">
          <mxGeometry x="75" y="152.72000000000003" width="18" height="39.25" as="geometry" />
        </mxCell>
        <mxCell id="1vYL_yL3oIqOqnxIpEOk-1" value="" style="endArrow=none;html=1;rounded=0;strokeWidth=2;strokeColor=#007FFF;dashed=1;" parent="1" edge="1">
          <mxGeometry width="50" height="50" relative="1" as="geometry">
            <mxPoint x="440" y="644" as="sourcePoint" />
            <mxPoint x="440" y="390" as="targetPoint" />
          </mxGeometry>
        </mxCell>
        <mxCell id="4km1vffhdAZKjgbEBgEC-3" value="&lt;font style=&quot;font-size: 8px&quot;&gt;&lt;font color=&quot;#000000&quot; style=&quot;font-size: 8px&quot;&gt;W4W S&lt;/font&gt;&lt;span style=&quot;color: rgb(0 , 0 , 0)&quot;&gt;S&lt;/span&gt;&lt;/font&gt;" style="edgeLabel;html=1;align=center;verticalAlign=middle;resizable=0;points=[];fontColor=#A8A8A8;fontSize=10;" parent="1" vertex="1" connectable="0">
          <mxGeometry x="781.9989816402746" y="441.9990821526052" as="geometry">
            <mxPoint x="-13" y="-1" as="offset" />
          </mxGeometry>
        </mxCell>
        <mxCell id="_X-WQwoRXDPAYax9laIT-1" value="Farad Super 3&lt;br&gt;5V / 3A&lt;br&gt;+ 0,8m level 1DC Y cable" style="rounded=1;whiteSpace=wrap;html=1;arcSize=50;gradientColor=#ffd966;fillColor=#fff2cc;strokeColor=#d6b656;" parent="1" vertex="1">
          <mxGeometry x="577" y="549" width="150" height="53" as="geometry" />
        </mxCell>
        <mxCell id="o-9JROk-u79lZK3xoA-8-1" value="" style="endArrow=none;html=1;fillColor=#dae8fc;curved=1;entryX=0;entryY=0.5;entryDx=0;entryDy=0;strokeWidth=4;strokeColor=#007FFF;dashed=1;dashPattern=1 1;exitX=0.5;exitY=0;exitDx=0;exitDy=0;startArrow=none;" parent="1" source="VHM7Qlexj8Ra0WAUJ4W9-7" target="aX2-kF78zCho-L2iL_NG-11" edge="1">
          <mxGeometry width="50" height="50" relative="1" as="geometry">
            <mxPoint x="114.5" y="441.25" as="sourcePoint" />
            <mxPoint x="155" y="173" as="targetPoint" />
            <Array as="points">
              <mxPoint x="470" y="386" />
              <mxPoint x="120" y="406" />
              <mxPoint x="120" y="60" />
            </Array>
          </mxGeometry>
        </mxCell>
        <mxCell id="CZCP9_VWLVhTebHqIC7H-1" value="" style="endArrow=none;html=1;rounded=1;strokeWidth=4;entryX=0.5;entryY=1;entryDx=0;entryDy=0;dashed=1;dashPattern=1 1;fillColor=#f8cecc;strokeColor=#b85450;" parent="1" target="-6cQfzMzyGC51tP0Eqjj-2" edge="1">
          <mxGeometry width="50" height="50" relative="1" as="geometry">
            <mxPoint x="850" y="660" as="sourcePoint" />
            <mxPoint x="690" y="460" as="targetPoint" />
            <Array as="points">
              <mxPoint x="975" y="660" />
            </Array>
          </mxGeometry>
        </mxCell>
        <mxCell id="73kRBJL7OHnVRC0ZUZlv-1" value="" style="endArrow=none;dashed=1;html=1;dashPattern=1 1;strokeWidth=2;rounded=0;exitX=0.047;exitY=0.287;exitDx=0;exitDy=0;exitPerimeter=0;entryX=0.633;entryY=0.006;entryDx=0;entryDy=0;entryPerimeter=0;" parent="1" source="M235wbPJO0eQFkBtWyqc-27" target="73kRBJL7OHnVRC0ZUZlv-2" edge="1">
          <mxGeometry width="50" height="50" relative="1" as="geometry">
            <mxPoint x="600" y="320" as="sourcePoint" />
            <mxPoint x="650" y="270" as="targetPoint" />
            <Array as="points">
              <mxPoint x="575" y="641" />
              <mxPoint x="573" y="493" />
              <mxPoint x="535" y="493" />
            </Array>
          </mxGeometry>
        </mxCell>
        <mxCell id="73kRBJL7OHnVRC0ZUZlv-4" value="&lt;font style=&quot;font-size: 8px&quot;&gt;SPDIF&lt;/font&gt;" style="rounded=0;whiteSpace=wrap;html=1;fillColor=#00FF00;" parent="1" vertex="1">
          <mxGeometry x="789" y="417" width="26.75" height="16" as="geometry" />
        </mxCell>
        <mxCell id="73kRBJL7OHnVRC0ZUZlv-6" value="&lt;font style=&quot;font-size: 8px&quot; face=&quot;Tahoma&quot;&gt;USB&lt;/font&gt;" style="rounded=0;whiteSpace=wrap;html=1;strokeColor=#4D4D4D;align=center;" parent="1" vertex="1">
          <mxGeometry x="578" y="444" width="17" height="10" as="geometry" />
        </mxCell>
        <mxCell id="73kRBJL7OHnVRC0ZUZlv-7" value="&lt;font style=&quot;font-size: 8px&quot; face=&quot;Tahoma&quot;&gt;USB&lt;/font&gt;" style="rounded=0;whiteSpace=wrap;html=1;strokeColor=#4D4D4D;align=center;fillColor=#00FF00;" parent="1" vertex="1">
          <mxGeometry x="578" y="457" width="17" height="10" as="geometry" />
        </mxCell>
        <mxCell id="73kRBJL7OHnVRC0ZUZlv-8" value="&lt;font style=&quot;font-size: 8px&quot; face=&quot;Tahoma&quot;&gt;USB&lt;/font&gt;" style="rounded=0;whiteSpace=wrap;html=1;strokeColor=#4D4D4D;align=center;fillColor=#00FF00;" parent="1" vertex="1">
          <mxGeometry x="559" y="444" width="17" height="10" as="geometry" />
        </mxCell>
        <mxCell id="73kRBJL7OHnVRC0ZUZlv-9" value="&lt;font style=&quot;font-size: 8px&quot; face=&quot;Tahoma&quot;&gt;USB&lt;/font&gt;" style="rounded=0;whiteSpace=wrap;html=1;strokeColor=#4D4D4D;align=center;fillColor=#00FF00;" parent="1" vertex="1">
          <mxGeometry x="559" y="457" width="17" height="10" as="geometry" />
        </mxCell>
        <mxCell id="73kRBJL7OHnVRC0ZUZlv-10" value="&lt;font style=&quot;font-size: 8px&quot; face=&quot;Tahoma&quot;&gt;USB3&lt;/font&gt;" style="rounded=0;whiteSpace=wrap;html=1;strokeColor=#4D4D4D;align=center;fillColor=#00FF00;" parent="1" vertex="1">
          <mxGeometry x="529" y="457" width="25" height="10" as="geometry" />
        </mxCell>
        <mxCell id="76j5sk3wCB9ZU_lOgHT8-12" value="" style="ellipse;whiteSpace=wrap;html=1;aspect=fixed;" parent="1" vertex="1">
          <mxGeometry x="285" y="70" width="40" height="40" as="geometry" />
        </mxCell>
        <mxCell id="76j5sk3wCB9ZU_lOgHT8-13" value="" style="ellipse;whiteSpace=wrap;html=1;aspect=fixed;" parent="1" vertex="1">
          <mxGeometry x="330" y="70" width="40" height="40" as="geometry" />
        </mxCell>
        <mxCell id="76j5sk3wCB9ZU_lOgHT8-14" value="" style="ellipse;whiteSpace=wrap;html=1;aspect=fixed;" parent="1" vertex="1">
          <mxGeometry x="375" y="70" width="40" height="40" as="geometry" />
        </mxCell>
        <mxCell id="73kRBJL7OHnVRC0ZUZlv-11" value="TU" style="ellipse;whiteSpace=wrap;html=1;aspect=fixed;" parent="1" vertex="1">
          <mxGeometry x="526" y="120" width="20" height="20" as="geometry" />
        </mxCell>
        <mxCell id="73kRBJL7OHnVRC0ZUZlv-13" value="TU" style="ellipse;whiteSpace=wrap;html=1;aspect=fixed;" parent="1" vertex="1">
          <mxGeometry x="834" y="121" width="20" height="20" as="geometry" />
        </mxCell>
        <mxCell id="73kRBJL7OHnVRC0ZUZlv-14" value="" style="ellipse;whiteSpace=wrap;html=1;aspect=fixed;" parent="1" vertex="1">
          <mxGeometry x="641" y="92" width="20" height="20" as="geometry" />
        </mxCell>
        <mxCell id="73kRBJL7OHnVRC0ZUZlv-15" value="" style="ellipse;whiteSpace=wrap;html=1;aspect=fixed;" parent="1" vertex="1">
          <mxGeometry x="714" y="93" width="20" height="20" as="geometry" />
        </mxCell>
        <mxCell id="73kRBJL7OHnVRC0ZUZlv-18" value="" style="ellipse;whiteSpace=wrap;html=1;aspect=fixed;" parent="1" vertex="1">
          <mxGeometry x="571" y="120" width="20" height="20" as="geometry" />
        </mxCell>
        <mxCell id="73kRBJL7OHnVRC0ZUZlv-19" value="" style="ellipse;whiteSpace=wrap;html=1;aspect=fixed;" parent="1" vertex="1">
          <mxGeometry x="595" y="120" width="20" height="20" as="geometry" />
        </mxCell>
        <mxCell id="73kRBJL7OHnVRC0ZUZlv-20" value="" style="ellipse;whiteSpace=wrap;html=1;aspect=fixed;" parent="1" vertex="1">
          <mxGeometry x="786" y="120" width="20" height="20" as="geometry" />
        </mxCell>
        <mxCell id="73kRBJL7OHnVRC0ZUZlv-21" value="" style="ellipse;whiteSpace=wrap;html=1;aspect=fixed;" parent="1" vertex="1">
          <mxGeometry x="761" y="120" width="20" height="20" as="geometry" />
        </mxCell>
        <mxCell id="73kRBJL7OHnVRC0ZUZlv-22" value="" style="ellipse;whiteSpace=wrap;html=1;aspect=fixed;" parent="1" vertex="1">
          <mxGeometry x="618" y="120" width="20" height="20" as="geometry" />
        </mxCell>
        <mxCell id="73kRBJL7OHnVRC0ZUZlv-23" value="" style="ellipse;whiteSpace=wrap;html=1;aspect=fixed;" parent="1" vertex="1">
          <mxGeometry x="737" y="121" width="20" height="20" as="geometry" />
        </mxCell>
        <mxCell id="73kRBJL7OHnVRC0ZUZlv-24" value="" style="ellipse;whiteSpace=wrap;html=1;aspect=fixed;" parent="1" vertex="1">
          <mxGeometry x="713.5" y="121" width="20" height="20" as="geometry" />
        </mxCell>
        <mxCell id="73kRBJL7OHnVRC0ZUZlv-25" value="" style="ellipse;whiteSpace=wrap;html=1;aspect=fixed;" parent="1" vertex="1">
          <mxGeometry x="642" y="120" width="20" height="20" as="geometry" />
        </mxCell>
        <mxCell id="73kRBJL7OHnVRC0ZUZlv-26" value="" style="ellipse;whiteSpace=wrap;html=1;aspect=fixed;" parent="1" vertex="1">
          <mxGeometry x="666" y="92" width="20" height="20" as="geometry" />
        </mxCell>
        <mxCell id="73kRBJL7OHnVRC0ZUZlv-27" value="" style="ellipse;whiteSpace=wrap;html=1;aspect=fixed;" parent="1" vertex="1">
          <mxGeometry x="691" y="93" width="20" height="20" as="geometry" />
        </mxCell>
        <mxCell id="73kRBJL7OHnVRC0ZUZlv-28" value="" style="ellipse;whiteSpace=wrap;html=1;aspect=fixed;" parent="1" vertex="1">
          <mxGeometry x="615" y="92" width="20" height="20" as="geometry" />
        </mxCell>
        <mxCell id="73kRBJL7OHnVRC0ZUZlv-29" value="" style="ellipse;whiteSpace=wrap;html=1;aspect=fixed;" parent="1" vertex="1">
          <mxGeometry x="738" y="93" width="20" height="20" as="geometry" />
        </mxCell>
        <mxCell id="73kRBJL7OHnVRC0ZUZlv-30" value="" style="triangle;whiteSpace=wrap;html=1;fontFamily=Tahoma;fontSize=8;strokeColor=#4D4D4D;strokeWidth=2;fillColor=none;rotation=-180;" parent="1" vertex="1">
          <mxGeometry x="287" y="279" width="22" height="25.25" as="geometry" />
        </mxCell>
        <mxCell id="73kRBJL7OHnVRC0ZUZlv-31" value="" style="triangle;whiteSpace=wrap;html=1;fontFamily=Tahoma;fontSize=8;strokeColor=#4D4D4D;strokeWidth=2;fillColor=none;rotation=-180;" parent="1" vertex="1">
          <mxGeometry x="287" y="279.37" width="22" height="25.25" as="geometry" />
        </mxCell>
        <mxCell id="73kRBJL7OHnVRC0ZUZlv-33" value="" style="shape=mxgraph.signs.nature.sun_2;html=1;pointerEvents=1;fillColor=#000000;strokeColor=none;verticalLabelPosition=bottom;verticalAlign=top;align=center;fontFamily=Tahoma;fontSize=8;" parent="1" vertex="1">
          <mxGeometry x="300" y="282.12" width="20" height="19" as="geometry" />
        </mxCell>
        <mxCell id="73kRBJL7OHnVRC0ZUZlv-34" value="" style="ellipse;whiteSpace=wrap;html=1;aspect=fixed;" parent="1" vertex="1">
          <mxGeometry x="615" y="6" width="20" height="20" as="geometry" />
        </mxCell>
        <mxCell id="73kRBJL7OHnVRC0ZUZlv-35" value="" style="ellipse;whiteSpace=wrap;html=1;aspect=fixed;" parent="1" vertex="1">
          <mxGeometry x="738" y="5" width="20" height="20" as="geometry" />
        </mxCell>
        <mxCell id="XdRA2iNh4uvHcI7RJy0W-1" value="&lt;font style=&quot;font-size: 8px&quot;&gt;IN&lt;/font&gt;" style="rounded=0;whiteSpace=wrap;html=1;fontSize=10;" parent="1" vertex="1">
          <mxGeometry x="670.66" y="443.25" width="20" height="12.25" as="geometry" />
        </mxCell>
        <mxCell id="XdRA2iNh4uvHcI7RJy0W-2" value="&lt;font style=&quot;font-size: 8px&quot;&gt;OUT&lt;/font&gt;" style="rounded=0;whiteSpace=wrap;html=1;fontSize=10;" parent="1" vertex="1">
          <mxGeometry x="729.66" y="443.25" width="20" height="12" as="geometry" />
        </mxCell>
        <mxCell id="XdRA2iNh4uvHcI7RJy0W-4" value="" style="endArrow=none;html=1;rounded=0;fontSize=10;exitX=1;exitY=0.5;exitDx=0;exitDy=0;entryX=0;entryY=0.5;entryDx=0;entryDy=0;strokeWidth=3;" parent="1" source="XdRA2iNh4uvHcI7RJy0W-2" edge="1" target="M235wbPJO0eQFkBtWyqc-67">
          <mxGeometry width="50" height="50" relative="1" as="geometry">
            <mxPoint x="762.66" y="446.41" as="sourcePoint" />
            <mxPoint x="797.66" y="449.25" as="targetPoint" />
          </mxGeometry>
        </mxCell>
        <mxCell id="fSwyVRZga3z8psDrk2Eh-1" value="" style="ellipse;whiteSpace=wrap;html=1;aspect=fixed;fontSize=8;fontColor=#4D4D4D;strokeColor=default;fillColor=default;" vertex="1" parent="1">
          <mxGeometry x="705.16" y="454" width="10" height="10" as="geometry" />
        </mxCell>
        <mxCell id="fSwyVRZga3z8psDrk2Eh-2" value="" style="endArrow=none;dashed=1;html=1;rounded=0;fontSize=8;fontColor=#4D4D4D;strokeWidth=1.5;entryX=0.308;entryY=0.007;entryDx=0;entryDy=0;entryPerimeter=0;exitX=0.315;exitY=0.986;exitDx=0;exitDy=0;exitPerimeter=0;dashPattern=1 1;" edge="1" parent="1" source="M235wbPJO0eQFkBtWyqc-65" target="M235wbPJO0eQFkBtWyqc-65">
          <mxGeometry width="50" height="50" relative="1" as="geometry">
            <mxPoint x="730" y="520" as="sourcePoint" />
            <mxPoint x="780" y="470" as="targetPoint" />
          </mxGeometry>
        </mxCell>
        <mxCell id="fSwyVRZga3z8psDrk2Eh-3" value="" style="endArrow=none;dashed=1;html=1;rounded=0;fontSize=8;fontColor=#4D4D4D;strokeWidth=1.5;entryX=0.855;entryY=-0.053;entryDx=0;entryDy=0;exitX=0.855;exitY=0.987;exitDx=0;exitDy=0;entryPerimeter=0;exitPerimeter=0;dashPattern=1 1;" edge="1" parent="1" source="jf7ATLeE-LSNP4t4z8-3-1" target="jf7ATLeE-LSNP4t4z8-3-1">
          <mxGeometry width="50" height="50" relative="1" as="geometry">
            <mxPoint x="833.9649999999999" y="498.80999999999995" as="sourcePoint" />
            <mxPoint x="833.1879999999999" y="415.595" as="targetPoint" />
          </mxGeometry>
        </mxCell>
        <mxCell id="fSwyVRZga3z8psDrk2Eh-4" value="" style="endArrow=none;dashed=1;html=1;rounded=0;fontSize=8;fontColor=#4D4D4D;strokeWidth=1.5;entryX=0.5;entryY=0;entryDx=0;entryDy=0;exitX=0.5;exitY=0;exitDx=0;exitDy=0;dashPattern=1 1;" edge="1" parent="1" source="fSwyVRZga3z8psDrk2Eh-1" target="mm1vFh-hCThWvfkdCHbw-6">
          <mxGeometry width="50" height="50" relative="1" as="geometry">
            <mxPoint x="843.9649999999999" y="508.80999999999995" as="sourcePoint" />
            <mxPoint x="843.1879999999999" y="425.595" as="targetPoint" />
          </mxGeometry>
        </mxCell>
        <mxCell id="fSwyVRZga3z8psDrk2Eh-5" value="" style="endArrow=none;dashed=1;html=1;rounded=0;fontSize=8;fontColor=#4D4D4D;strokeWidth=1.5;dashPattern=1 1;" edge="1" parent="1">
          <mxGeometry width="50" height="50" relative="1" as="geometry">
            <mxPoint x="547" y="530" as="sourcePoint" />
            <mxPoint x="547" y="500" as="targetPoint" />
          </mxGeometry>
        </mxCell>
        <mxCell id="e_pCMJFblcvT9HseUp_T-1" value="Untitled Layer" parent="0" />
      </root>
    </mxGraphModel>
  </diagram>
  <diagram name="Copy of Page-1" id="jlYJPJaqCakpYTrDQ5b5">
    <mxGraphModel dx="1364" dy="652" grid="1" gridSize="10" guides="1" tooltips="1" connect="1" arrows="1" fold="1" page="1" pageScale="1" pageWidth="1100" pageHeight="850" math="0" shadow="0">
      <root>
        <mxCell id="vtj6tQ1HlajmRAL2FLAo-0" />
        <mxCell id="vtj6tQ1HlajmRAL2FLAo-1" parent="vtj6tQ1HlajmRAL2FLAo-0" />
        <mxCell id="vtj6tQ1HlajmRAL2FLAo-2" value="" style="rounded=1;whiteSpace=wrap;html=1;" vertex="1" parent="vtj6tQ1HlajmRAL2FLAo-1">
          <mxGeometry x="67" y="285" width="60" height="25" as="geometry" />
        </mxCell>
        <mxCell id="vtj6tQ1HlajmRAL2FLAo-3" value="" style="rounded=1;whiteSpace=wrap;html=1;arcSize=50;" vertex="1" parent="vtj6tQ1HlajmRAL2FLAo-1">
          <mxGeometry x="462" y="170" width="400" height="60" as="geometry" />
        </mxCell>
        <mxCell id="vtj6tQ1HlajmRAL2FLAo-4" value="" style="shape=parallelogram;perimeter=parallelogramPerimeter;whiteSpace=wrap;html=1;" vertex="1" parent="vtj6tQ1HlajmRAL2FLAo-1">
          <mxGeometry x="707" y="190" width="50" height="20" as="geometry" />
        </mxCell>
        <mxCell id="vtj6tQ1HlajmRAL2FLAo-5" value="" style="rounded=1;whiteSpace=wrap;html=1;" vertex="1" parent="vtj6tQ1HlajmRAL2FLAo-1">
          <mxGeometry x="859.5" y="285" width="105" height="60" as="geometry" />
        </mxCell>
        <mxCell id="vtj6tQ1HlajmRAL2FLAo-6" value="USB Regen" style="rounded=1;whiteSpace=wrap;html=1;" vertex="1" parent="vtj6tQ1HlajmRAL2FLAo-1">
          <mxGeometry x="761" y="285" width="60" height="50" as="geometry" />
        </mxCell>
        <mxCell id="vtj6tQ1HlajmRAL2FLAo-7" value="" style="rounded=1;whiteSpace=wrap;html=1;" vertex="1" parent="vtj6tQ1HlajmRAL2FLAo-1">
          <mxGeometry x="317" y="365" width="50" height="20" as="geometry" />
        </mxCell>
        <mxCell id="vtj6tQ1HlajmRAL2FLAo-8" value="" style="rounded=1;whiteSpace=wrap;html=1;opacity=50;fillColor=#FFFF00;arcSize=33;fillOpacity=50;strokeOpacity=50;textOpacity=50;strokeColor=#A8A8A8;fontColor=#A8A8A8;" vertex="1" parent="vtj6tQ1HlajmRAL2FLAo-1">
          <mxGeometry x="837" y="492.5" width="140" height="140" as="geometry" />
        </mxCell>
        <mxCell id="vtj6tQ1HlajmRAL2FLAo-9" value="7V" style="ellipse;whiteSpace=wrap;html=1;aspect=fixed;fillColor=none;fillOpacity=50;strokeColor=#A8A8A8;fontColor=#A8A8A8;" vertex="1" parent="vtj6tQ1HlajmRAL2FLAo-1">
          <mxGeometry x="851" y="562" width="25" height="25" as="geometry" />
        </mxCell>
        <mxCell id="vtj6tQ1HlajmRAL2FLAo-10" value="15V" style="ellipse;whiteSpace=wrap;html=1;aspect=fixed;fillColor=none;fillOpacity=50;strokeColor=#A8A8A8;fontColor=#A8A8A8;" vertex="1" parent="vtj6tQ1HlajmRAL2FLAo-1">
          <mxGeometry x="945" y="561" width="25" height="25" as="geometry" />
        </mxCell>
        <mxCell id="vtj6tQ1HlajmRAL2FLAo-11" value="" style="rounded=1;whiteSpace=wrap;html=1;" vertex="1" parent="vtj6tQ1HlajmRAL2FLAo-1">
          <mxGeometry x="210" y="453.5" width="120" height="26.5" as="geometry" />
        </mxCell>
        <mxCell id="vtj6tQ1HlajmRAL2FLAo-12" value="Switch" style="text;html=1;strokeColor=none;fillColor=none;align=center;verticalAlign=middle;whiteSpace=wrap;rounded=0;" vertex="1" parent="vtj6tQ1HlajmRAL2FLAo-1">
          <mxGeometry x="225" y="455.5" width="40" height="20" as="geometry" />
        </mxCell>
        <mxCell id="vtj6tQ1HlajmRAL2FLAo-13" value="" style="rounded=1;whiteSpace=wrap;html=1;" vertex="1" parent="vtj6tQ1HlajmRAL2FLAo-1">
          <mxGeometry x="247" y="530" width="120" height="60" as="geometry" />
        </mxCell>
        <mxCell id="vtj6tQ1HlajmRAL2FLAo-14" value="LPS&lt;br&gt;1,5A" style="text;html=1;strokeColor=none;fillColor=none;align=center;verticalAlign=middle;whiteSpace=wrap;rounded=0;" vertex="1" parent="vtj6tQ1HlajmRAL2FLAo-1">
          <mxGeometry x="287" y="550" width="40" height="20" as="geometry" />
        </mxCell>
        <mxCell id="vtj6tQ1HlajmRAL2FLAo-15" value="12V" style="ellipse;whiteSpace=wrap;html=1;aspect=fixed;" vertex="1" parent="vtj6tQ1HlajmRAL2FLAo-1">
          <mxGeometry x="257" y="545" width="30" height="30" as="geometry" />
        </mxCell>
        <mxCell id="vtj6tQ1HlajmRAL2FLAo-16" value="5V" style="ellipse;whiteSpace=wrap;html=1;aspect=fixed;fillColor=none;" vertex="1" parent="vtj6tQ1HlajmRAL2FLAo-1">
          <mxGeometry x="327" y="545" width="30" height="30" as="geometry" />
        </mxCell>
        <mxCell id="vtj6tQ1HlajmRAL2FLAo-17" value="" style="endArrow=none;html=1;exitX=0.5;exitY=0;exitDx=0;exitDy=0;entryX=0.5;entryY=1;entryDx=0;entryDy=0;" edge="1" parent="vtj6tQ1HlajmRAL2FLAo-1" source="vtj6tQ1HlajmRAL2FLAo-15" target="vtj6tQ1HlajmRAL2FLAo-11">
          <mxGeometry width="50" height="50" relative="1" as="geometry">
            <mxPoint x="287" y="480" as="sourcePoint" />
            <mxPoint x="272" y="490" as="targetPoint" />
          </mxGeometry>
        </mxCell>
        <mxCell id="vtj6tQ1HlajmRAL2FLAo-18" value="" style="rounded=1;whiteSpace=wrap;html=1;fillColor=#99FF99;" vertex="1" parent="vtj6tQ1HlajmRAL2FLAo-1">
          <mxGeometry x="387" y="530" width="120" height="60" as="geometry" />
        </mxCell>
        <mxCell id="vtj6tQ1HlajmRAL2FLAo-19" value="LPS&lt;br&gt;1,5A" style="text;html=1;strokeColor=none;fillColor=none;align=center;verticalAlign=middle;whiteSpace=wrap;rounded=0;" vertex="1" parent="vtj6tQ1HlajmRAL2FLAo-1">
          <mxGeometry x="422" y="545" width="50" height="30" as="geometry" />
        </mxCell>
        <mxCell id="vtj6tQ1HlajmRAL2FLAo-20" value="5V" style="ellipse;whiteSpace=wrap;html=1;aspect=fixed;" vertex="1" parent="vtj6tQ1HlajmRAL2FLAo-1">
          <mxGeometry x="392" y="545" width="30" height="30" as="geometry" />
        </mxCell>
        <mxCell id="vtj6tQ1HlajmRAL2FLAo-21" value="5V" style="ellipse;whiteSpace=wrap;html=1;aspect=fixed;" vertex="1" parent="vtj6tQ1HlajmRAL2FLAo-1">
          <mxGeometry x="467" y="545" width="30" height="30" as="geometry" />
        </mxCell>
        <mxCell id="vtj6tQ1HlajmRAL2FLAo-22" value="" style="rounded=1;whiteSpace=wrap;html=1;" vertex="1" parent="vtj6tQ1HlajmRAL2FLAo-1">
          <mxGeometry x="517" y="530" width="120" height="60" as="geometry" />
        </mxCell>
        <mxCell id="vtj6tQ1HlajmRAL2FLAo-23" value="LPS&lt;br&gt;0,6A" style="text;html=1;strokeColor=none;fillColor=none;align=center;verticalAlign=middle;whiteSpace=wrap;rounded=0;" vertex="1" parent="vtj6tQ1HlajmRAL2FLAo-1">
          <mxGeometry x="552" y="545" width="50" height="30" as="geometry" />
        </mxCell>
        <mxCell id="vtj6tQ1HlajmRAL2FLAo-24" value="9V" style="ellipse;whiteSpace=wrap;html=1;aspect=fixed;" vertex="1" parent="vtj6tQ1HlajmRAL2FLAo-1">
          <mxGeometry x="522" y="545" width="30" height="30" as="geometry" />
        </mxCell>
        <mxCell id="vtj6tQ1HlajmRAL2FLAo-25" value="9V" style="ellipse;whiteSpace=wrap;html=1;aspect=fixed;" vertex="1" parent="vtj6tQ1HlajmRAL2FLAo-1">
          <mxGeometry x="597" y="545" width="30" height="30" as="geometry" />
        </mxCell>
        <mxCell id="vtj6tQ1HlajmRAL2FLAo-26" value="" style="rounded=1;whiteSpace=wrap;html=1;" vertex="1" parent="vtj6tQ1HlajmRAL2FLAo-1">
          <mxGeometry x="647" y="530" width="130" height="60" as="geometry" />
        </mxCell>
        <mxCell id="vtj6tQ1HlajmRAL2FLAo-27" value="LPS&lt;br&gt;3,5A" style="text;html=1;strokeColor=none;fillColor=none;align=center;verticalAlign=middle;whiteSpace=wrap;rounded=0;" vertex="1" parent="vtj6tQ1HlajmRAL2FLAo-1">
          <mxGeometry x="692" y="545" width="50" height="30" as="geometry" />
        </mxCell>
        <mxCell id="vtj6tQ1HlajmRAL2FLAo-28" value="5V" style="ellipse;whiteSpace=wrap;html=1;aspect=fixed;" vertex="1" parent="vtj6tQ1HlajmRAL2FLAo-1">
          <mxGeometry x="652" y="545" width="30" height="30" as="geometry" />
        </mxCell>
        <mxCell id="vtj6tQ1HlajmRAL2FLAo-29" value="5V" style="ellipse;whiteSpace=wrap;html=1;aspect=fixed;strokeColor=#82b366;fillColor=#00FF00;" vertex="1" parent="vtj6tQ1HlajmRAL2FLAo-1">
          <mxGeometry x="737" y="545" width="30" height="30" as="geometry" />
        </mxCell>
        <mxCell id="vtj6tQ1HlajmRAL2FLAo-30" value="" style="rounded=1;whiteSpace=wrap;html=1;" vertex="1" parent="vtj6tQ1HlajmRAL2FLAo-1">
          <mxGeometry x="257" y="690" width="740" height="70" as="geometry" />
        </mxCell>
        <mxCell id="vtj6tQ1HlajmRAL2FLAo-31" value="" style="ellipse;whiteSpace=wrap;html=1;aspect=fixed;rotation=0;direction=south;" vertex="1" parent="vtj6tQ1HlajmRAL2FLAo-1">
          <mxGeometry x="282" y="700" width="50" height="50" as="geometry" />
        </mxCell>
        <mxCell id="vtj6tQ1HlajmRAL2FLAo-32" value="" style="ellipse;whiteSpace=wrap;html=1;aspect=fixed;rotation=0;direction=south;" vertex="1" parent="vtj6tQ1HlajmRAL2FLAo-1">
          <mxGeometry x="422" y="700" width="50" height="50" as="geometry" />
        </mxCell>
        <mxCell id="vtj6tQ1HlajmRAL2FLAo-33" value="" style="ellipse;whiteSpace=wrap;html=1;aspect=fixed;rotation=0;direction=south;" vertex="1" parent="vtj6tQ1HlajmRAL2FLAo-1">
          <mxGeometry x="552" y="700" width="50" height="50" as="geometry" />
        </mxCell>
        <mxCell id="vtj6tQ1HlajmRAL2FLAo-34" value="" style="ellipse;whiteSpace=wrap;html=1;aspect=fixed;rotation=0;direction=south;" vertex="1" parent="vtj6tQ1HlajmRAL2FLAo-1">
          <mxGeometry x="687" y="700" width="50" height="50" as="geometry" />
        </mxCell>
        <mxCell id="vtj6tQ1HlajmRAL2FLAo-35" value="" style="ellipse;whiteSpace=wrap;html=1;aspect=fixed;rotation=0;direction=south;" vertex="1" parent="vtj6tQ1HlajmRAL2FLAo-1">
          <mxGeometry x="767" y="700" width="50" height="50" as="geometry" />
        </mxCell>
        <mxCell id="vtj6tQ1HlajmRAL2FLAo-36" value="" style="ellipse;whiteSpace=wrap;html=1;aspect=fixed;rotation=0;direction=south;" vertex="1" parent="vtj6tQ1HlajmRAL2FLAo-1">
          <mxGeometry x="852" y="700" width="50" height="50" as="geometry" />
        </mxCell>
        <mxCell id="vtj6tQ1HlajmRAL2FLAo-37" value="" style="endArrow=none;html=1;fillColor=#f8cecc;strokeColor=#B85450;exitX=0;exitY=0.5;exitDx=0;exitDy=0;entryX=0.5;entryY=1;entryDx=0;entryDy=0;" edge="1" parent="vtj6tQ1HlajmRAL2FLAo-1" source="vtj6tQ1HlajmRAL2FLAo-31" target="vtj6tQ1HlajmRAL2FLAo-13">
          <mxGeometry width="50" height="50" relative="1" as="geometry">
            <mxPoint x="477" y="670" as="sourcePoint" />
            <mxPoint x="527" y="620" as="targetPoint" />
          </mxGeometry>
        </mxCell>
        <mxCell id="vtj6tQ1HlajmRAL2FLAo-38" value="" style="endArrow=none;html=1;fillColor=#f8cecc;strokeColor=#B85450;exitX=0;exitY=0.5;exitDx=0;exitDy=0;entryX=0.5;entryY=1;entryDx=0;entryDy=0;" edge="1" parent="vtj6tQ1HlajmRAL2FLAo-1" source="vtj6tQ1HlajmRAL2FLAo-32" target="vtj6tQ1HlajmRAL2FLAo-18">
          <mxGeometry width="50" height="50" relative="1" as="geometry">
            <mxPoint x="322" y="710" as="sourcePoint" />
            <mxPoint x="317" y="600" as="targetPoint" />
          </mxGeometry>
        </mxCell>
        <mxCell id="vtj6tQ1HlajmRAL2FLAo-39" value="" style="endArrow=none;html=1;fillColor=#f8cecc;strokeColor=#B85450;exitX=0;exitY=0.5;exitDx=0;exitDy=0;entryX=0.5;entryY=1;entryDx=0;entryDy=0;" edge="1" parent="vtj6tQ1HlajmRAL2FLAo-1" source="vtj6tQ1HlajmRAL2FLAo-33" target="vtj6tQ1HlajmRAL2FLAo-22">
          <mxGeometry width="50" height="50" relative="1" as="geometry">
            <mxPoint x="392" y="710" as="sourcePoint" />
            <mxPoint x="457" y="600" as="targetPoint" />
          </mxGeometry>
        </mxCell>
        <mxCell id="vtj6tQ1HlajmRAL2FLAo-40" value="" style="endArrow=none;html=1;fillColor=#f8cecc;strokeColor=#B85450;entryX=0.5;entryY=1;entryDx=0;entryDy=0;" edge="1" parent="vtj6tQ1HlajmRAL2FLAo-1" target="vtj6tQ1HlajmRAL2FLAo-26">
          <mxGeometry width="50" height="50" relative="1" as="geometry">
            <mxPoint x="712" y="645" as="sourcePoint" />
            <mxPoint x="587" y="600" as="targetPoint" />
          </mxGeometry>
        </mxCell>
        <mxCell id="vtj6tQ1HlajmRAL2FLAo-41" style="edgeStyle=orthogonalEdgeStyle;rounded=0;orthogonalLoop=1;jettySize=auto;html=1;exitX=0.75;exitY=1;exitDx=0;exitDy=0;entryX=1;entryY=0.75;entryDx=0;entryDy=0;strokeColor=#7EA6E0;" edge="1" parent="vtj6tQ1HlajmRAL2FLAo-1" source="vtj6tQ1HlajmRAL2FLAo-42" target="vtj6tQ1HlajmRAL2FLAo-51">
          <mxGeometry relative="1" as="geometry" />
        </mxCell>
        <mxCell id="vtj6tQ1HlajmRAL2FLAo-42" value="" style="rounded=1;whiteSpace=wrap;html=1;arcSize=50;" vertex="1" parent="vtj6tQ1HlajmRAL2FLAo-1">
          <mxGeometry x="497" y="440" width="100" height="40" as="geometry" />
        </mxCell>
        <mxCell id="vtj6tQ1HlajmRAL2FLAo-43" value="" style="rounded=1;whiteSpace=wrap;html=1;arcSize=50;" vertex="1" parent="vtj6tQ1HlajmRAL2FLAo-1">
          <mxGeometry x="537" y="380" width="95" height="40" as="geometry" />
        </mxCell>
        <mxCell id="vtj6tQ1HlajmRAL2FLAo-44" value="" style="ellipse;whiteSpace=wrap;html=1;aspect=fixed;" vertex="1" parent="vtj6tQ1HlajmRAL2FLAo-1">
          <mxGeometry x="529.5" y="457.5" width="15" height="15" as="geometry" />
        </mxCell>
        <mxCell id="vtj6tQ1HlajmRAL2FLAo-45" value="" style="ellipse;whiteSpace=wrap;html=1;aspect=fixed;" vertex="1" parent="vtj6tQ1HlajmRAL2FLAo-1">
          <mxGeometry x="602" y="397.5" width="15" height="15" as="geometry" />
        </mxCell>
        <mxCell id="vtj6tQ1HlajmRAL2FLAo-46" value="" style="endArrow=none;html=1;fillColor=#f8cecc;strokeColor=#B85450;exitX=0.5;exitY=0;exitDx=0;exitDy=0;" edge="1" parent="vtj6tQ1HlajmRAL2FLAo-1" source="vtj6tQ1HlajmRAL2FLAo-24">
          <mxGeometry width="50" height="50" relative="1" as="geometry">
            <mxPoint x="762" y="555" as="sourcePoint" />
            <mxPoint x="537" y="470" as="targetPoint" />
          </mxGeometry>
        </mxCell>
        <mxCell id="vtj6tQ1HlajmRAL2FLAo-47" value="" style="endArrow=none;html=1;fillColor=#f8cecc;strokeColor=#B85450;exitX=0.625;exitY=0.2;exitDx=0;exitDy=0;entryX=0.5;entryY=1;entryDx=0;entryDy=0;exitPerimeter=0;" edge="1" parent="vtj6tQ1HlajmRAL2FLAo-1" source="vtj6tQ1HlajmRAL2FLAo-125" target="vtj6tQ1HlajmRAL2FLAo-45">
          <mxGeometry width="50" height="50" relative="1" as="geometry">
            <mxPoint x="547" y="555" as="sourcePoint" />
            <mxPoint x="547" y="480" as="targetPoint" />
          </mxGeometry>
        </mxCell>
        <mxCell id="vtj6tQ1HlajmRAL2FLAo-48" value="" style="rhombus;whiteSpace=wrap;html=1;rotation=-180;" vertex="1" parent="vtj6tQ1HlajmRAL2FLAo-1">
          <mxGeometry x="567" y="457.5" width="20" height="17.5" as="geometry" />
        </mxCell>
        <mxCell id="vtj6tQ1HlajmRAL2FLAo-49" value="" style="rhombus;whiteSpace=wrap;html=1;rotation=-180;" vertex="1" parent="vtj6tQ1HlajmRAL2FLAo-1">
          <mxGeometry x="567" y="397.5" width="20" height="17.5" as="geometry" />
        </mxCell>
        <mxCell id="vtj6tQ1HlajmRAL2FLAo-50" value="" style="endArrow=none;html=1;fillColor=#f8cecc;entryX=0.5;entryY=0;entryDx=0;entryDy=0;strokeColor=#FFD966;strokeWidth=3;" edge="1" parent="vtj6tQ1HlajmRAL2FLAo-1" target="vtj6tQ1HlajmRAL2FLAo-49">
          <mxGeometry width="50" height="50" relative="1" as="geometry">
            <mxPoint x="577" y="460" as="sourcePoint" />
            <mxPoint x="619.5" y="422.5" as="targetPoint" />
          </mxGeometry>
        </mxCell>
        <mxCell id="vtj6tQ1HlajmRAL2FLAo-51" value="OPT" style="text;html=1;strokeColor=none;fillColor=none;align=center;verticalAlign=middle;whiteSpace=wrap;rounded=0;rotation=0;" vertex="1" parent="vtj6tQ1HlajmRAL2FLAo-1">
          <mxGeometry x="532" y="440" width="50" height="30" as="geometry" />
        </mxCell>
        <mxCell id="vtj6tQ1HlajmRAL2FLAo-52" value="OPT" style="text;html=1;strokeColor=none;fillColor=none;align=center;verticalAlign=middle;whiteSpace=wrap;rounded=0;" vertex="1" parent="vtj6tQ1HlajmRAL2FLAo-1">
          <mxGeometry x="567" y="375" width="50" height="30" as="geometry" />
        </mxCell>
        <mxCell id="vtj6tQ1HlajmRAL2FLAo-53" value="" style="rounded=1;whiteSpace=wrap;html=1;" vertex="1" parent="vtj6tQ1HlajmRAL2FLAo-1">
          <mxGeometry x="542" y="280" width="135" height="60" as="geometry" />
        </mxCell>
        <mxCell id="vtj6tQ1HlajmRAL2FLAo-54" value="RPI" style="text;html=1;strokeColor=none;fillColor=none;align=center;verticalAlign=middle;whiteSpace=wrap;rounded=0;" vertex="1" parent="vtj6tQ1HlajmRAL2FLAo-1">
          <mxGeometry x="592" y="285" width="40" height="20" as="geometry" />
        </mxCell>
        <mxCell id="vtj6tQ1HlajmRAL2FLAo-55" value="" style="ellipse;whiteSpace=wrap;html=1;aspect=fixed;" vertex="1" parent="vtj6tQ1HlajmRAL2FLAo-1">
          <mxGeometry x="662" y="320" width="10" height="10" as="geometry" />
        </mxCell>
        <mxCell id="vtj6tQ1HlajmRAL2FLAo-56" value="" style="endArrow=none;html=1;fillColor=#f8cecc;strokeColor=#B85450;entryX=0.5;entryY=1;entryDx=0;entryDy=0;exitX=0.5;exitY=0;exitDx=0;exitDy=0;strokeWidth=2;" edge="1" parent="vtj6tQ1HlajmRAL2FLAo-1" source="vtj6tQ1HlajmRAL2FLAo-123" target="vtj6tQ1HlajmRAL2FLAo-55">
          <mxGeometry width="50" height="50" relative="1" as="geometry">
            <mxPoint x="707" y="470" as="sourcePoint" />
            <mxPoint x="662" y="160" as="targetPoint" />
          </mxGeometry>
        </mxCell>
        <mxCell id="vtj6tQ1HlajmRAL2FLAo-57" value="" style="rounded=0;whiteSpace=wrap;html=1;" vertex="1" parent="vtj6tQ1HlajmRAL2FLAo-1">
          <mxGeometry x="552" y="320" width="10" height="10" as="geometry" />
        </mxCell>
        <mxCell id="vtj6tQ1HlajmRAL2FLAo-58" value="" style="rounded=0;whiteSpace=wrap;html=1;" vertex="1" parent="vtj6tQ1HlajmRAL2FLAo-1">
          <mxGeometry x="547" y="397.5" width="10" height="10" as="geometry" />
        </mxCell>
        <mxCell id="vtj6tQ1HlajmRAL2FLAo-59" value="" style="endArrow=none;html=1;fillColor=#dae8fc;exitX=0.5;exitY=0;exitDx=0;exitDy=0;entryX=0.25;entryY=1;entryDx=0;entryDy=0;strokeWidth=3;strokeColor=#7EA6E0;" edge="1" parent="vtj6tQ1HlajmRAL2FLAo-1" source="vtj6tQ1HlajmRAL2FLAo-58" target="vtj6tQ1HlajmRAL2FLAo-57">
          <mxGeometry width="50" height="50" relative="1" as="geometry">
            <mxPoint x="477" y="450" as="sourcePoint" />
            <mxPoint x="507" y="250" as="targetPoint" />
          </mxGeometry>
        </mxCell>
        <mxCell id="vtj6tQ1HlajmRAL2FLAo-60" value="" style="rounded=0;whiteSpace=wrap;html=1;" vertex="1" parent="vtj6tQ1HlajmRAL2FLAo-1">
          <mxGeometry x="507" y="457.5" width="10" height="12.5" as="geometry" />
        </mxCell>
        <mxCell id="vtj6tQ1HlajmRAL2FLAo-61" value="" style="endArrow=none;html=1;strokeColor=#7EA6E0;entryX=0;entryY=0.75;entryDx=0;entryDy=0;exitX=1;exitY=0.5;exitDx=0;exitDy=0;strokeWidth=3;" edge="1" parent="vtj6tQ1HlajmRAL2FLAo-1" source="vtj6tQ1HlajmRAL2FLAo-11" target="vtj6tQ1HlajmRAL2FLAo-60">
          <mxGeometry width="50" height="50" relative="1" as="geometry">
            <mxPoint x="477" y="450" as="sourcePoint" />
            <mxPoint x="527" y="400" as="targetPoint" />
          </mxGeometry>
        </mxCell>
        <mxCell id="vtj6tQ1HlajmRAL2FLAo-62" value="" style="rounded=0;whiteSpace=wrap;html=1;" vertex="1" parent="vtj6tQ1HlajmRAL2FLAo-1">
          <mxGeometry x="863.25" y="300" width="10" height="10" as="geometry" />
        </mxCell>
        <mxCell id="vtj6tQ1HlajmRAL2FLAo-63" value="" style="rounded=0;whiteSpace=wrap;html=1;" vertex="1" parent="vtj6tQ1HlajmRAL2FLAo-1">
          <mxGeometry x="652" y="295" width="10" height="10" as="geometry" />
        </mxCell>
        <mxCell id="vtj6tQ1HlajmRAL2FLAo-64" value="" style="endArrow=none;html=1;entryX=0;entryY=0.5;entryDx=0;entryDy=0;fillColor=#e1d5e7;exitX=0;exitY=0.75;exitDx=0;exitDy=0;strokeWidth=4;" edge="1" parent="vtj6tQ1HlajmRAL2FLAo-1" source="vtj6tQ1HlajmRAL2FLAo-130" target="vtj6tQ1HlajmRAL2FLAo-62">
          <mxGeometry width="50" height="50" relative="1" as="geometry">
            <mxPoint x="682" y="305" as="sourcePoint" />
            <mxPoint x="597" y="370" as="targetPoint" />
          </mxGeometry>
        </mxCell>
        <mxCell id="vtj6tQ1HlajmRAL2FLAo-65" value="&lt;font color=&quot;#000000&quot; style=&quot;font-size: 8px;&quot;&gt;Data only&lt;/font&gt;" style="edgeLabel;html=1;align=center;verticalAlign=middle;resizable=0;points=[];fontColor=#A8A8A8;fontSize=8;" vertex="1" connectable="0" parent="vtj6tQ1HlajmRAL2FLAo-64">
          <mxGeometry x="0.4016" y="-3" relative="1" as="geometry">
            <mxPoint x="-6.83" y="-13.24" as="offset" />
          </mxGeometry>
        </mxCell>
        <mxCell id="vtj6tQ1HlajmRAL2FLAo-66" value="Supra" style="text;html=1;strokeColor=none;fillColor=none;align=center;verticalAlign=middle;whiteSpace=wrap;rounded=0;" vertex="1" parent="vtj6tQ1HlajmRAL2FLAo-1">
          <mxGeometry x="927" y="720" width="40" height="10" as="geometry" />
        </mxCell>
        <mxCell id="vtj6tQ1HlajmRAL2FLAo-67" value="12V" style="ellipse;whiteSpace=wrap;html=1;aspect=fixed;fillColor=none;fillOpacity=50;strokeColor=#A8A8A8;fontColor=#A8A8A8;" vertex="1" parent="vtj6tQ1HlajmRAL2FLAo-1">
          <mxGeometry x="943" y="531" width="30" height="30" as="geometry" />
        </mxCell>
        <mxCell id="vtj6tQ1HlajmRAL2FLAo-68" value="" style="rounded=1;whiteSpace=wrap;html=1;arcSize=50;opacity=50;fillColor=none;" vertex="1" parent="vtj6tQ1HlajmRAL2FLAo-1">
          <mxGeometry x="847" y="401" width="127.5" height="50" as="geometry" />
        </mxCell>
        <mxCell id="vtj6tQ1HlajmRAL2FLAo-69" value="UpTone LPS1.2" style="text;html=1;strokeColor=none;fillColor=none;align=center;verticalAlign=middle;whiteSpace=wrap;rounded=0;rotation=0;" vertex="1" parent="vtj6tQ1HlajmRAL2FLAo-1">
          <mxGeometry x="884.5" y="407" width="40" height="25" as="geometry" />
        </mxCell>
        <mxCell id="vtj6tQ1HlajmRAL2FLAo-70" value="" style="endArrow=none;html=1;fillColor=#f8cecc;strokeColor=#B85450;exitX=0.625;exitY=0.2;exitDx=0;exitDy=0;entryX=0.5;entryY=1;entryDx=0;entryDy=0;strokeWidth=4;exitPerimeter=0;" edge="1" parent="vtj6tQ1HlajmRAL2FLAo-1" source="vtj6tQ1HlajmRAL2FLAo-150" target="vtj6tQ1HlajmRAL2FLAo-68">
          <mxGeometry width="50" height="50" relative="1" as="geometry">
            <mxPoint x="802" y="555" as="sourcePoint" />
            <mxPoint x="837" y="500" as="targetPoint" />
          </mxGeometry>
        </mxCell>
        <mxCell id="vtj6tQ1HlajmRAL2FLAo-71" value="7V" style="ellipse;whiteSpace=wrap;html=1;aspect=fixed;" vertex="1" parent="vtj6tQ1HlajmRAL2FLAo-1">
          <mxGeometry x="849.5" y="409.5" width="30" height="30" as="geometry" />
        </mxCell>
        <mxCell id="vtj6tQ1HlajmRAL2FLAo-72" value="LPS&lt;br&gt;&lt;span style=&quot;font-family: helvetica, arial, sans-serif; font-size: 13px; text-align: left; background-color: rgb(255, 255, 255);&quot;&gt;7.5V/4.8A, 9V/4A, 12V/3A, &lt;b&gt;18V/2A, 24V/1.5A&lt;/b&gt;&lt;/span&gt;" style="text;html=1;fillColor=none;align=center;verticalAlign=middle;whiteSpace=wrap;rounded=0;fillOpacity=50;strokeColor=#A8A8A8;fontColor=#A8A8A8;" vertex="1" parent="vtj6tQ1HlajmRAL2FLAo-1">
          <mxGeometry x="892" y="535" width="40" height="15" as="geometry" />
        </mxCell>
        <mxCell id="vtj6tQ1HlajmRAL2FLAo-73" value="16V" style="ellipse;whiteSpace=wrap;html=1;aspect=fixed;fillColor=none;fillOpacity=50;strokeColor=#A8A8A8;fontColor=#A8A8A8;" vertex="1" parent="vtj6tQ1HlajmRAL2FLAo-1">
          <mxGeometry x="943" y="586" width="25" height="25" as="geometry" />
        </mxCell>
        <mxCell id="vtj6tQ1HlajmRAL2FLAo-74" value="5V" style="ellipse;whiteSpace=wrap;html=1;aspect=fixed;fillColor=none;fillOpacity=50;strokeColor=#A8A8A8;fontColor=#A8A8A8;" vertex="1" parent="vtj6tQ1HlajmRAL2FLAo-1">
          <mxGeometry x="849" y="530.5" width="29.5" height="29.5" as="geometry" />
        </mxCell>
        <mxCell id="vtj6tQ1HlajmRAL2FLAo-75" value="9V" style="ellipse;whiteSpace=wrap;html=1;aspect=fixed;fillColor=none;fillOpacity=50;strokeColor=#A8A8A8;fontColor=#A8A8A8;" vertex="1" parent="vtj6tQ1HlajmRAL2FLAo-1">
          <mxGeometry x="849" y="588" width="25" height="25" as="geometry" />
        </mxCell>
        <mxCell id="vtj6tQ1HlajmRAL2FLAo-76" value="" style="shape=parallelogram;perimeter=parallelogramPerimeter;whiteSpace=wrap;html=1;" vertex="1" parent="vtj6tQ1HlajmRAL2FLAo-1">
          <mxGeometry x="892" y="295" width="50" height="20" as="geometry" />
        </mxCell>
        <mxCell id="vtj6tQ1HlajmRAL2FLAo-77" value="I2S" style="text;html=1;strokeColor=none;fillColor=none;align=center;verticalAlign=middle;whiteSpace=wrap;rounded=0;" vertex="1" parent="vtj6tQ1HlajmRAL2FLAo-1">
          <mxGeometry x="892" y="290" width="50" height="30" as="geometry" />
        </mxCell>
        <mxCell id="vtj6tQ1HlajmRAL2FLAo-78" value="Matrix" style="text;html=1;strokeColor=none;fillColor=none;align=center;verticalAlign=middle;whiteSpace=wrap;rounded=0;" vertex="1" parent="vtj6tQ1HlajmRAL2FLAo-1">
          <mxGeometry x="882" y="315" width="40" height="30" as="geometry" />
        </mxCell>
        <mxCell id="vtj6tQ1HlajmRAL2FLAo-79" value="" style="ellipse;whiteSpace=wrap;html=1;aspect=fixed;" vertex="1" parent="vtj6tQ1HlajmRAL2FLAo-1">
          <mxGeometry x="869.5" y="325" width="10" height="10" as="geometry" />
        </mxCell>
        <mxCell id="vtj6tQ1HlajmRAL2FLAo-80" value="" style="endArrow=none;html=1;fillColor=#f8cecc;strokeColor=#B85450;exitX=0.5;exitY=0;exitDx=0;exitDy=0;strokeWidth=2;" edge="1" parent="vtj6tQ1HlajmRAL2FLAo-1" source="vtj6tQ1HlajmRAL2FLAo-71" target="vtj6tQ1HlajmRAL2FLAo-79">
          <mxGeometry width="50" height="50" relative="1" as="geometry">
            <mxPoint x="832" y="375" as="sourcePoint" />
            <mxPoint x="832" y="300" as="targetPoint" />
          </mxGeometry>
        </mxCell>
        <mxCell id="vtj6tQ1HlajmRAL2FLAo-81" value="DirectStream DAC" style="text;html=1;strokeColor=none;fillColor=none;align=center;verticalAlign=middle;whiteSpace=wrap;rounded=0;" vertex="1" parent="vtj6tQ1HlajmRAL2FLAo-1">
          <mxGeometry x="597" y="180" width="100" height="20" as="geometry" />
        </mxCell>
        <mxCell id="vtj6tQ1HlajmRAL2FLAo-82" value="" style="endArrow=none;html=1;entryX=1;entryY=0.75;entryDx=0;entryDy=0;strokeColor=#FF33FF;strokeWidth=5;exitX=0;exitY=0.25;exitDx=0;exitDy=0;" edge="1" parent="vtj6tQ1HlajmRAL2FLAo-1" source="vtj6tQ1HlajmRAL2FLAo-76" target="vtj6tQ1HlajmRAL2FLAo-4">
          <mxGeometry width="50" height="50" relative="1" as="geometry">
            <mxPoint x="657" y="430" as="sourcePoint" />
            <mxPoint x="707" y="380" as="targetPoint" />
          </mxGeometry>
        </mxCell>
        <mxCell id="vtj6tQ1HlajmRAL2FLAo-83" value="&lt;font color=&quot;#ff0000&quot;&gt;7 - 24V&lt;br&gt;35W&lt;/font&gt;" style="text;html=1;strokeColor=none;fillColor=none;align=center;verticalAlign=middle;whiteSpace=wrap;rounded=0;fontStyle=1" vertex="1" parent="vtj6tQ1HlajmRAL2FLAo-1">
          <mxGeometry x="924.5" y="417" width="50" height="30" as="geometry" />
        </mxCell>
        <mxCell id="vtj6tQ1HlajmRAL2FLAo-84" value="0,45A?" style="text;html=1;strokeColor=none;fillColor=none;align=center;verticalAlign=middle;whiteSpace=wrap;rounded=0;" vertex="1" parent="vtj6tQ1HlajmRAL2FLAo-1">
          <mxGeometry x="279" y="456" width="40" height="20" as="geometry" />
        </mxCell>
        <mxCell id="vtj6tQ1HlajmRAL2FLAo-85" value="" style="endArrow=none;html=1;fillColor=#f8cecc;strokeColor=#B85450;exitX=0.5;exitY=1;exitDx=0;exitDy=0;entryX=0.625;entryY=0.2;entryDx=0;entryDy=0;entryPerimeter=0;" edge="1" parent="vtj6tQ1HlajmRAL2FLAo-1" source="vtj6tQ1HlajmRAL2FLAo-8" target="vtj6tQ1HlajmRAL2FLAo-150">
          <mxGeometry width="50" height="50" relative="1" as="geometry">
            <mxPoint x="823" y="658" as="sourcePoint" />
            <mxPoint x="877" y="660" as="targetPoint" />
          </mxGeometry>
        </mxCell>
        <mxCell id="vtj6tQ1HlajmRAL2FLAo-86" value="" style="rounded=1;whiteSpace=wrap;html=1;" vertex="1" parent="vtj6tQ1HlajmRAL2FLAo-1">
          <mxGeometry x="77" y="10" width="300" height="180" as="geometry" />
        </mxCell>
        <mxCell id="vtj6tQ1HlajmRAL2FLAo-87" value="P10" style="text;html=1;strokeColor=none;fillColor=none;align=center;verticalAlign=middle;whiteSpace=wrap;rounded=0;" vertex="1" parent="vtj6tQ1HlajmRAL2FLAo-1">
          <mxGeometry x="187" width="40" height="60" as="geometry" />
        </mxCell>
        <mxCell id="vtj6tQ1HlajmRAL2FLAo-88" value="" style="ellipse;whiteSpace=wrap;html=1;aspect=fixed;" vertex="1" parent="vtj6tQ1HlajmRAL2FLAo-1">
          <mxGeometry x="87" y="70" width="40" height="40" as="geometry" />
        </mxCell>
        <mxCell id="vtj6tQ1HlajmRAL2FLAo-89" value="" style="ellipse;whiteSpace=wrap;html=1;aspect=fixed;" vertex="1" parent="vtj6tQ1HlajmRAL2FLAo-1">
          <mxGeometry x="147" y="70" width="40" height="40" as="geometry" />
        </mxCell>
        <mxCell id="vtj6tQ1HlajmRAL2FLAo-90" value="" style="ellipse;whiteSpace=wrap;html=1;aspect=fixed;" vertex="1" parent="vtj6tQ1HlajmRAL2FLAo-1">
          <mxGeometry x="207" y="70" width="40" height="40" as="geometry" />
        </mxCell>
        <mxCell id="vtj6tQ1HlajmRAL2FLAo-91" value="" style="ellipse;whiteSpace=wrap;html=1;aspect=fixed;" vertex="1" parent="vtj6tQ1HlajmRAL2FLAo-1">
          <mxGeometry x="257" y="70" width="40" height="40" as="geometry" />
        </mxCell>
        <mxCell id="vtj6tQ1HlajmRAL2FLAo-92" value="" style="ellipse;whiteSpace=wrap;html=1;aspect=fixed;" vertex="1" parent="vtj6tQ1HlajmRAL2FLAo-1">
          <mxGeometry x="317" y="70" width="40" height="40" as="geometry" />
        </mxCell>
        <mxCell id="vtj6tQ1HlajmRAL2FLAo-93" value="" style="ellipse;whiteSpace=wrap;html=1;aspect=fixed;" vertex="1" parent="vtj6tQ1HlajmRAL2FLAo-1">
          <mxGeometry x="107" y="130" width="40" height="40" as="geometry" />
        </mxCell>
        <mxCell id="vtj6tQ1HlajmRAL2FLAo-94" value="" style="ellipse;whiteSpace=wrap;html=1;aspect=fixed;" vertex="1" parent="vtj6tQ1HlajmRAL2FLAo-1">
          <mxGeometry x="167" y="130" width="40" height="40" as="geometry" />
        </mxCell>
        <mxCell id="vtj6tQ1HlajmRAL2FLAo-95" value="" style="ellipse;whiteSpace=wrap;html=1;aspect=fixed;" vertex="1" parent="vtj6tQ1HlajmRAL2FLAo-1">
          <mxGeometry x="227" y="130" width="40" height="40" as="geometry" />
        </mxCell>
        <mxCell id="vtj6tQ1HlajmRAL2FLAo-96" value="" style="ellipse;whiteSpace=wrap;html=1;aspect=fixed;" vertex="1" parent="vtj6tQ1HlajmRAL2FLAo-1">
          <mxGeometry x="277" y="130" width="40" height="40" as="geometry" />
        </mxCell>
        <mxCell id="vtj6tQ1HlajmRAL2FLAo-97" value="" style="ellipse;whiteSpace=wrap;html=1;aspect=fixed;" vertex="1" parent="vtj6tQ1HlajmRAL2FLAo-1">
          <mxGeometry x="327" y="130" width="40" height="40" as="geometry" />
        </mxCell>
        <mxCell id="vtj6tQ1HlajmRAL2FLAo-98" value="" style="endArrow=none;html=1;strokeWidth=2;entryX=1;entryY=1;entryDx=0;entryDy=0;strokeColor=#FF3333;" edge="1" parent="vtj6tQ1HlajmRAL2FLAo-1" target="vtj6tQ1HlajmRAL2FLAo-97">
          <mxGeometry width="50" height="50" relative="1" as="geometry">
            <mxPoint x="462" y="200" as="sourcePoint" />
            <mxPoint x="447" y="390" as="targetPoint" />
          </mxGeometry>
        </mxCell>
        <mxCell id="vtj6tQ1HlajmRAL2FLAo-99" value="AW400" style="rounded=1;whiteSpace=wrap;html=1;fillColor=#e1d5e7;strokeColor=#9673a6;" vertex="1" parent="vtj6tQ1HlajmRAL2FLAo-1">
          <mxGeometry x="497" width="120" height="60" as="geometry" />
        </mxCell>
        <mxCell id="vtj6tQ1HlajmRAL2FLAo-100" value="AW400" style="rounded=1;whiteSpace=wrap;html=1;fillColor=#e1d5e7;strokeColor=#9673a6;" vertex="1" parent="vtj6tQ1HlajmRAL2FLAo-1">
          <mxGeometry x="682" width="120" height="60" as="geometry" />
        </mxCell>
        <mxCell id="vtj6tQ1HlajmRAL2FLAo-101" value="Ref5SE" style="rounded=1;whiteSpace=wrap;html=1;arcSize=50;fillColor=#e1d5e7;strokeColor=#9673a6;" vertex="1" parent="vtj6tQ1HlajmRAL2FLAo-1">
          <mxGeometry x="457" y="80" width="400" height="60" as="geometry" />
        </mxCell>
        <mxCell id="vtj6tQ1HlajmRAL2FLAo-102" value="" style="endArrow=none;html=1;strokeColor=#FF3333;strokeWidth=2;entryX=0;entryY=0.75;entryDx=0;entryDy=0;exitX=0.5;exitY=0;exitDx=0;exitDy=0;" edge="1" parent="vtj6tQ1HlajmRAL2FLAo-1" source="vtj6tQ1HlajmRAL2FLAo-91" target="vtj6tQ1HlajmRAL2FLAo-99">
          <mxGeometry width="50" height="50" relative="1" as="geometry">
            <mxPoint x="517" y="400" as="sourcePoint" />
            <mxPoint x="567" y="350" as="targetPoint" />
          </mxGeometry>
        </mxCell>
        <mxCell id="vtj6tQ1HlajmRAL2FLAo-103" value="" style="endArrow=none;html=1;strokeColor=#FF3333;strokeWidth=2;entryX=0.5;entryY=1;entryDx=0;entryDy=0;exitX=0.75;exitY=0.25;exitDx=0;exitDy=0;exitPerimeter=0;" edge="1" parent="vtj6tQ1HlajmRAL2FLAo-1" source="vtj6tQ1HlajmRAL2FLAo-92" target="vtj6tQ1HlajmRAL2FLAo-100">
          <mxGeometry width="50" height="50" relative="1" as="geometry">
            <mxPoint x="347" y="100" as="sourcePoint" />
            <mxPoint x="507" y="55" as="targetPoint" />
          </mxGeometry>
        </mxCell>
        <mxCell id="vtj6tQ1HlajmRAL2FLAo-104" value="" style="endArrow=none;html=1;strokeColor=#FF3333;strokeWidth=2;entryX=0;entryY=0.5;entryDx=0;entryDy=0;exitX=0.5;exitY=0;exitDx=0;exitDy=0;" edge="1" parent="vtj6tQ1HlajmRAL2FLAo-1" source="vtj6tQ1HlajmRAL2FLAo-96" target="vtj6tQ1HlajmRAL2FLAo-101">
          <mxGeometry width="50" height="50" relative="1" as="geometry">
            <mxPoint x="357" y="90" as="sourcePoint" />
            <mxPoint x="752" y="70" as="targetPoint" />
          </mxGeometry>
        </mxCell>
        <mxCell id="vtj6tQ1HlajmRAL2FLAo-105" value="" style="endArrow=none;html=1;strokeWidth=2;entryX=0.5;entryY=1;entryDx=0;entryDy=0;exitX=0.5;exitY=0;exitDx=0;exitDy=0;fillColor=#b0e3e6;strokeColor=#97D077;" edge="1" parent="vtj6tQ1HlajmRAL2FLAo-1" source="vtj6tQ1HlajmRAL2FLAo-107" target="vtj6tQ1HlajmRAL2FLAo-106">
          <mxGeometry width="50" height="50" relative="1" as="geometry">
            <mxPoint x="527" y="180" as="sourcePoint" />
            <mxPoint x="527" y="150" as="targetPoint" />
          </mxGeometry>
        </mxCell>
        <mxCell id="vtj6tQ1HlajmRAL2FLAo-106" value="" style="ellipse;whiteSpace=wrap;html=1;aspect=fixed;" vertex="1" parent="vtj6tQ1HlajmRAL2FLAo-1">
          <mxGeometry x="517" y="100" width="20" height="20" as="geometry" />
        </mxCell>
        <mxCell id="vtj6tQ1HlajmRAL2FLAo-107" value="" style="ellipse;whiteSpace=wrap;html=1;aspect=fixed;" vertex="1" parent="vtj6tQ1HlajmRAL2FLAo-1">
          <mxGeometry x="517" y="190" width="20" height="20" as="geometry" />
        </mxCell>
        <mxCell id="vtj6tQ1HlajmRAL2FLAo-108" value="" style="ellipse;whiteSpace=wrap;html=1;aspect=fixed;" vertex="1" parent="vtj6tQ1HlajmRAL2FLAo-1">
          <mxGeometry x="782" y="190" width="20" height="20" as="geometry" />
        </mxCell>
        <mxCell id="vtj6tQ1HlajmRAL2FLAo-109" value="" style="ellipse;whiteSpace=wrap;html=1;aspect=fixed;" vertex="1" parent="vtj6tQ1HlajmRAL2FLAo-1">
          <mxGeometry x="782" y="100" width="20" height="20" as="geometry" />
        </mxCell>
        <mxCell id="vtj6tQ1HlajmRAL2FLAo-110" value="" style="endArrow=none;html=1;strokeWidth=2;entryX=0.5;entryY=1;entryDx=0;entryDy=0;exitX=0.5;exitY=0;exitDx=0;exitDy=0;strokeColor=#97D077;" edge="1" parent="vtj6tQ1HlajmRAL2FLAo-1" source="vtj6tQ1HlajmRAL2FLAo-108" target="vtj6tQ1HlajmRAL2FLAo-109">
          <mxGeometry width="50" height="50" relative="1" as="geometry">
            <mxPoint x="537" y="200" as="sourcePoint" />
            <mxPoint x="537" y="130" as="targetPoint" />
          </mxGeometry>
        </mxCell>
        <mxCell id="vtj6tQ1HlajmRAL2FLAo-111" value="" style="endArrow=none;html=1;strokeWidth=2;entryX=0.5;entryY=1;entryDx=0;entryDy=0;fillColor=#b0e3e6;strokeColor=#97D077;exitX=0.5;exitY=0;exitDx=0;exitDy=0;entryPerimeter=0;" edge="1" parent="vtj6tQ1HlajmRAL2FLAo-1" source="vtj6tQ1HlajmRAL2FLAo-114" target="vtj6tQ1HlajmRAL2FLAo-112">
          <mxGeometry width="50" height="50" relative="1" as="geometry">
            <mxPoint x="527" y="100" as="sourcePoint" />
            <mxPoint x="537" y="130" as="targetPoint" />
          </mxGeometry>
        </mxCell>
        <mxCell id="vtj6tQ1HlajmRAL2FLAo-112" value="" style="ellipse;whiteSpace=wrap;html=1;aspect=fixed;" vertex="1" parent="vtj6tQ1HlajmRAL2FLAo-1">
          <mxGeometry x="512" y="30" width="20" height="20" as="geometry" />
        </mxCell>
        <mxCell id="vtj6tQ1HlajmRAL2FLAo-113" value="" style="ellipse;whiteSpace=wrap;html=1;aspect=fixed;" vertex="1" parent="vtj6tQ1HlajmRAL2FLAo-1">
          <mxGeometry x="762" y="30" width="20" height="20" as="geometry" />
        </mxCell>
        <mxCell id="vtj6tQ1HlajmRAL2FLAo-114" value="" style="ellipse;whiteSpace=wrap;html=1;aspect=fixed;" vertex="1" parent="vtj6tQ1HlajmRAL2FLAo-1">
          <mxGeometry x="547" y="100" width="20" height="20" as="geometry" />
        </mxCell>
        <mxCell id="vtj6tQ1HlajmRAL2FLAo-115" value="" style="ellipse;whiteSpace=wrap;html=1;aspect=fixed;" vertex="1" parent="vtj6tQ1HlajmRAL2FLAo-1">
          <mxGeometry x="747" y="100" width="20" height="20" as="geometry" />
        </mxCell>
        <mxCell id="vtj6tQ1HlajmRAL2FLAo-116" value="" style="endArrow=none;html=1;strokeWidth=2;fillColor=#b0e3e6;strokeColor=#97D077;exitX=0;exitY=0;exitDx=0;exitDy=0;" edge="1" parent="vtj6tQ1HlajmRAL2FLAo-1" source="vtj6tQ1HlajmRAL2FLAo-115">
          <mxGeometry width="50" height="50" relative="1" as="geometry">
            <mxPoint x="567" y="110" as="sourcePoint" />
            <mxPoint x="767" y="50" as="targetPoint" />
          </mxGeometry>
        </mxCell>
        <mxCell id="vtj6tQ1HlajmRAL2FLAo-117" value="" style="endArrow=none;html=1;fillColor=#f8cecc;strokeColor=#B85450;exitX=0.5;exitY=1;exitDx=0;exitDy=0;entryX=0.5;entryY=0;entryDx=0;entryDy=0;" edge="1" parent="vtj6tQ1HlajmRAL2FLAo-1" source="vtj6tQ1HlajmRAL2FLAo-118" target="vtj6tQ1HlajmRAL2FLAo-16">
          <mxGeometry width="50" height="50" relative="1" as="geometry">
            <mxPoint x="342" y="545" as="sourcePoint" />
            <mxPoint x="337" y="400" as="targetPoint" />
          </mxGeometry>
        </mxCell>
        <mxCell id="vtj6tQ1HlajmRAL2FLAo-118" value="Vero4k" style="text;html=1;strokeColor=none;fillColor=none;align=center;verticalAlign=middle;whiteSpace=wrap;rounded=0;" vertex="1" parent="vtj6tQ1HlajmRAL2FLAo-1">
          <mxGeometry x="322" y="365" width="40" height="20" as="geometry" />
        </mxCell>
        <mxCell id="vtj6tQ1HlajmRAL2FLAo-119" value="HDMI SWITCH" style="rounded=1;whiteSpace=wrap;html=1;arcSize=50;" vertex="1" parent="vtj6tQ1HlajmRAL2FLAo-1">
          <mxGeometry x="137" y="270" width="120" height="60" as="geometry" />
        </mxCell>
        <mxCell id="vtj6tQ1HlajmRAL2FLAo-120" value="" style="endArrow=none;html=1;strokeWidth=1;exitX=1;exitY=0.75;exitDx=0;exitDy=0;entryX=0;entryY=0;entryDx=0;entryDy=0;" edge="1" parent="vtj6tQ1HlajmRAL2FLAo-1" source="vtj6tQ1HlajmRAL2FLAo-119" target="vtj6tQ1HlajmRAL2FLAo-118">
          <mxGeometry width="50" height="50" relative="1" as="geometry">
            <mxPoint x="527" y="460" as="sourcePoint" />
            <mxPoint x="322" y="370" as="targetPoint" />
          </mxGeometry>
        </mxCell>
        <mxCell id="vtj6tQ1HlajmRAL2FLAo-121" value="PJ" style="rounded=1;whiteSpace=wrap;html=1;fillColor=#b1ddf0;arcSize=50;strokeColor=#10739e;" vertex="1" parent="vtj6tQ1HlajmRAL2FLAo-1">
          <mxGeometry x="137" y="345" width="120" height="60" as="geometry" />
        </mxCell>
        <mxCell id="vtj6tQ1HlajmRAL2FLAo-122" value="" style="endArrow=none;html=1;strokeWidth=2;strokeColor=#FF3333;exitX=0;exitY=0.5;exitDx=0;exitDy=0;" edge="1" parent="vtj6tQ1HlajmRAL2FLAo-1" source="vtj6tQ1HlajmRAL2FLAo-121">
          <mxGeometry width="50" height="50" relative="1" as="geometry">
            <mxPoint x="472" y="210" as="sourcePoint" />
            <mxPoint x="57" y="375" as="targetPoint" />
          </mxGeometry>
        </mxCell>
        <mxCell id="vtj6tQ1HlajmRAL2FLAo-123" value="SuperCap?" style="ellipse;shape=cloud;whiteSpace=wrap;html=1;fillColor=#FFFF66;dashed=1;opacity=25;textOpacity=25;" vertex="1" parent="vtj6tQ1HlajmRAL2FLAo-1">
          <mxGeometry x="622" y="422.5" width="90" height="50" as="geometry" />
        </mxCell>
        <mxCell id="vtj6tQ1HlajmRAL2FLAo-124" value="" style="endArrow=none;html=1;fillColor=#f8cecc;strokeColor=#B85450;entryX=0.5;entryY=1;entryDx=0;entryDy=0;exitX=0.5;exitY=0;exitDx=0;exitDy=0;strokeWidth=2;" edge="1" parent="vtj6tQ1HlajmRAL2FLAo-1" source="vtj6tQ1HlajmRAL2FLAo-28" target="vtj6tQ1HlajmRAL2FLAo-123">
          <mxGeometry width="50" height="50" relative="1" as="geometry">
            <mxPoint x="667" y="545" as="sourcePoint" />
            <mxPoint x="667" y="330" as="targetPoint" />
          </mxGeometry>
        </mxCell>
        <mxCell id="vtj6tQ1HlajmRAL2FLAo-125" value="SuperCap?" style="ellipse;shape=cloud;whiteSpace=wrap;html=1;fillColor=#FFFF66;dashed=1;opacity=25;textOpacity=25;" vertex="1" parent="vtj6tQ1HlajmRAL2FLAo-1">
          <mxGeometry x="564.5" y="472.5" width="90" height="50" as="geometry" />
        </mxCell>
        <mxCell id="vtj6tQ1HlajmRAL2FLAo-126" value="" style="endArrow=none;html=1;fillColor=#f8cecc;strokeColor=#B85450;exitX=0.75;exitY=0;exitDx=0;exitDy=0;entryX=0.5;entryY=1;entryDx=0;entryDy=0;" edge="1" parent="vtj6tQ1HlajmRAL2FLAo-1" source="vtj6tQ1HlajmRAL2FLAo-22" target="vtj6tQ1HlajmRAL2FLAo-125">
          <mxGeometry width="50" height="50" relative="1" as="geometry">
            <mxPoint x="607" y="530" as="sourcePoint" />
            <mxPoint x="609.5" y="412.5" as="targetPoint" />
          </mxGeometry>
        </mxCell>
        <mxCell id="vtj6tQ1HlajmRAL2FLAo-127" value="" style="endArrow=none;html=1;strokeColor=#9673a6;fillColor=#e1d5e7;exitX=0;exitY=0.5;exitDx=0;exitDy=0;strokeWidth=4;entryX=1;entryY=0.5;entryDx=0;entryDy=0;" edge="1" parent="vtj6tQ1HlajmRAL2FLAo-1" source="vtj6tQ1HlajmRAL2FLAo-155" target="vtj6tQ1HlajmRAL2FLAo-63">
          <mxGeometry width="50" height="50" relative="1" as="geometry">
            <mxPoint x="797" y="342.5" as="sourcePoint" />
            <mxPoint x="697" y="270" as="targetPoint" />
          </mxGeometry>
        </mxCell>
        <mxCell id="vtj6tQ1HlajmRAL2FLAo-128" value="" style="ellipse;whiteSpace=wrap;html=1;aspect=fixed;" vertex="1" parent="vtj6tQ1HlajmRAL2FLAo-1">
          <mxGeometry x="786" y="325" width="10" height="10" as="geometry" />
        </mxCell>
        <mxCell id="vtj6tQ1HlajmRAL2FLAo-129" value="" style="endArrow=none;html=1;fillColor=#f8cecc;strokeColor=#B85450;exitX=0;exitY=0;exitDx=0;exitDy=0;curved=1;entryX=1;entryY=1;entryDx=0;entryDy=0;strokeWidth=2;" edge="1" parent="vtj6tQ1HlajmRAL2FLAo-1" source="vtj6tQ1HlajmRAL2FLAo-71" target="vtj6tQ1HlajmRAL2FLAo-128">
          <mxGeometry width="50" height="50" relative="1" as="geometry">
            <mxPoint x="792" y="750" as="sourcePoint" />
            <mxPoint x="792" y="350" as="targetPoint" />
            <Array as="points">
              <mxPoint x="810" y="400" />
            </Array>
          </mxGeometry>
        </mxCell>
        <mxCell id="vtj6tQ1HlajmRAL2FLAo-130" value="" style="rounded=0;whiteSpace=wrap;html=1;" vertex="1" parent="vtj6tQ1HlajmRAL2FLAo-1">
          <mxGeometry x="806" y="295" width="10" height="10" as="geometry" />
        </mxCell>
        <mxCell id="vtj6tQ1HlajmRAL2FLAo-131" value="" style="rounded=0;whiteSpace=wrap;html=1;" vertex="1" parent="vtj6tQ1HlajmRAL2FLAo-1">
          <mxGeometry x="766" y="295" width="10" height="10" as="geometry" />
        </mxCell>
        <mxCell id="vtj6tQ1HlajmRAL2FLAo-132" value="" style="rounded=0;whiteSpace=wrap;html=1;" vertex="1" parent="vtj6tQ1HlajmRAL2FLAo-1">
          <mxGeometry x="562" y="195" width="10" height="10" as="geometry" />
        </mxCell>
        <mxCell id="vtj6tQ1HlajmRAL2FLAo-133" value="I2S" style="text;html=1;strokeColor=none;fillColor=none;align=center;verticalAlign=middle;whiteSpace=wrap;rounded=0;" vertex="1" parent="vtj6tQ1HlajmRAL2FLAo-1">
          <mxGeometry x="707" y="180" width="50" height="35" as="geometry" />
        </mxCell>
        <mxCell id="vtj6tQ1HlajmRAL2FLAo-134" value="Toslink" style="text;html=1;strokeColor=none;fillColor=none;align=center;verticalAlign=middle;whiteSpace=wrap;rounded=0;" vertex="1" parent="vtj6tQ1HlajmRAL2FLAo-1">
          <mxGeometry x="542" y="170" width="50" height="35" as="geometry" />
        </mxCell>
        <mxCell id="vtj6tQ1HlajmRAL2FLAo-135" value="" style="endArrow=classic;html=1;entryX=1;entryY=0.5;entryDx=0;entryDy=0;fillColor=#fad7ac;strokeColor=#FFD966;rounded=1;strokeWidth=3;exitX=0.75;exitY=0;exitDx=0;exitDy=0;" edge="1" parent="vtj6tQ1HlajmRAL2FLAo-1" source="vtj6tQ1HlajmRAL2FLAo-118" target="vtj6tQ1HlajmRAL2FLAo-137">
          <mxGeometry width="50" height="50" relative="1" as="geometry">
            <mxPoint x="357" y="318.76" as="sourcePoint" />
            <mxPoint x="572" y="200" as="targetPoint" />
            <Array as="points" />
          </mxGeometry>
        </mxCell>
        <mxCell id="vtj6tQ1HlajmRAL2FLAo-136" value="Optoswitch" style="ellipse;whiteSpace=wrap;html=1;aspect=fixed;opacity=50;" vertex="1" parent="vtj6tQ1HlajmRAL2FLAo-1">
          <mxGeometry x="317" y="240" width="60" height="60" as="geometry" />
        </mxCell>
        <mxCell id="vtj6tQ1HlajmRAL2FLAo-137" value="" style="rounded=0;whiteSpace=wrap;html=1;" vertex="1" parent="vtj6tQ1HlajmRAL2FLAo-1">
          <mxGeometry x="342" y="285" width="10" height="10" as="geometry" />
        </mxCell>
        <mxCell id="vtj6tQ1HlajmRAL2FLAo-138" value="" style="rounded=0;whiteSpace=wrap;html=1;" vertex="1" parent="vtj6tQ1HlajmRAL2FLAo-1">
          <mxGeometry x="342" y="250" width="10" height="10" as="geometry" />
        </mxCell>
        <mxCell id="vtj6tQ1HlajmRAL2FLAo-139" value="" style="endArrow=classic;html=1;entryX=0.5;entryY=1;entryDx=0;entryDy=0;fillColor=#fad7ac;strokeColor=#FFD966;rounded=1;strokeWidth=3;exitX=1;exitY=0.5;exitDx=0;exitDy=0;" edge="1" parent="vtj6tQ1HlajmRAL2FLAo-1" source="vtj6tQ1HlajmRAL2FLAo-136" target="vtj6tQ1HlajmRAL2FLAo-134">
          <mxGeometry width="50" height="50" relative="1" as="geometry">
            <mxPoint x="367" y="328.76" as="sourcePoint" />
            <mxPoint x="362" y="300" as="targetPoint" />
            <Array as="points" />
          </mxGeometry>
        </mxCell>
        <mxCell id="vtj6tQ1HlajmRAL2FLAo-140" value="" style="endArrow=none;html=1;strokeWidth=1;entryX=0.5;entryY=0;entryDx=0;entryDy=0;exitX=0.5;exitY=1;exitDx=0;exitDy=0;" edge="1" parent="vtj6tQ1HlajmRAL2FLAo-1" source="vtj6tQ1HlajmRAL2FLAo-119" target="vtj6tQ1HlajmRAL2FLAo-121">
          <mxGeometry width="50" height="50" relative="1" as="geometry">
            <mxPoint x="267" y="290" as="sourcePoint" />
            <mxPoint x="337" y="330" as="targetPoint" />
          </mxGeometry>
        </mxCell>
        <mxCell id="vtj6tQ1HlajmRAL2FLAo-141" value="TV" style="rounded=1;whiteSpace=wrap;html=1;fillColor=#b1ddf0;arcSize=50;strokeColor=#10739e;" vertex="1" parent="vtj6tQ1HlajmRAL2FLAo-1">
          <mxGeometry x="137" y="200" width="120" height="60" as="geometry" />
        </mxCell>
        <mxCell id="vtj6tQ1HlajmRAL2FLAo-142" value="" style="endArrow=none;html=1;strokeWidth=1;exitX=0.5;exitY=0;exitDx=0;exitDy=0;" edge="1" parent="vtj6tQ1HlajmRAL2FLAo-1" source="vtj6tQ1HlajmRAL2FLAo-119">
          <mxGeometry width="50" height="50" relative="1" as="geometry">
            <mxPoint x="267" y="325" as="sourcePoint" />
            <mxPoint x="197" y="260" as="targetPoint" />
          </mxGeometry>
        </mxCell>
        <mxCell id="vtj6tQ1HlajmRAL2FLAo-143" value="" style="endArrow=none;html=1;strokeWidth=2;strokeColor=#FF3333;exitX=0;exitY=0.5;exitDx=0;exitDy=0;" edge="1" parent="vtj6tQ1HlajmRAL2FLAo-1" source="vtj6tQ1HlajmRAL2FLAo-141">
          <mxGeometry width="50" height="50" relative="1" as="geometry">
            <mxPoint x="147" y="385" as="sourcePoint" />
            <mxPoint x="57" y="230" as="targetPoint" />
          </mxGeometry>
        </mxCell>
        <mxCell id="vtj6tQ1HlajmRAL2FLAo-144" value="" style="endArrow=classic;html=1;entryX=0;entryY=0.75;entryDx=0;entryDy=0;fillColor=#fad7ac;strokeColor=#FFD966;rounded=1;strokeWidth=3;exitX=1;exitY=0.5;exitDx=0;exitDy=0;" edge="1" parent="vtj6tQ1HlajmRAL2FLAo-1" source="vtj6tQ1HlajmRAL2FLAo-141" target="vtj6tQ1HlajmRAL2FLAo-138">
          <mxGeometry width="50" height="50" relative="1" as="geometry">
            <mxPoint x="367" y="328.76" as="sourcePoint" />
            <mxPoint x="362" y="300.0000000000001" as="targetPoint" />
            <Array as="points" />
          </mxGeometry>
        </mxCell>
        <mxCell id="vtj6tQ1HlajmRAL2FLAo-145" value="Retropie" style="text;html=1;strokeColor=none;fillColor=none;align=center;verticalAlign=middle;whiteSpace=wrap;rounded=0;" vertex="1" parent="vtj6tQ1HlajmRAL2FLAo-1">
          <mxGeometry x="77" y="275" width="40" height="45" as="geometry" />
        </mxCell>
        <mxCell id="vtj6tQ1HlajmRAL2FLAo-146" value="" style="endArrow=none;html=1;strokeWidth=1;exitX=1;exitY=0.5;exitDx=0;exitDy=0;" edge="1" parent="vtj6tQ1HlajmRAL2FLAo-1" source="vtj6tQ1HlajmRAL2FLAo-2">
          <mxGeometry width="50" height="50" relative="1" as="geometry">
            <mxPoint x="267" y="325" as="sourcePoint" />
            <mxPoint x="137" y="298" as="targetPoint" />
          </mxGeometry>
        </mxCell>
        <mxCell id="vtj6tQ1HlajmRAL2FLAo-147" value="" style="endArrow=none;html=1;strokeWidth=2;strokeColor=#FF3333;exitX=0;exitY=0.5;exitDx=0;exitDy=0;" edge="1" parent="vtj6tQ1HlajmRAL2FLAo-1" source="vtj6tQ1HlajmRAL2FLAo-2">
          <mxGeometry width="50" height="50" relative="1" as="geometry">
            <mxPoint x="147" y="240" as="sourcePoint" />
            <mxPoint x="57" y="298" as="targetPoint" />
          </mxGeometry>
        </mxCell>
        <mxCell id="vtj6tQ1HlajmRAL2FLAo-148" value="P10?" style="ellipse;shape=cloud;whiteSpace=wrap;html=1;fillColor=#FFFF66;dashed=1;opacity=25;textOpacity=25;" vertex="1" parent="vtj6tQ1HlajmRAL2FLAo-1">
          <mxGeometry x="680" y="640" width="63" height="25" as="geometry" />
        </mxCell>
        <mxCell id="vtj6tQ1HlajmRAL2FLAo-149" value="" style="endArrow=none;html=1;fillColor=#f8cecc;strokeColor=#B85450;entryX=0.5;entryY=1;entryDx=0;entryDy=0;exitX=0;exitY=0.5;exitDx=0;exitDy=0;" edge="1" parent="vtj6tQ1HlajmRAL2FLAo-1" source="vtj6tQ1HlajmRAL2FLAo-34" target="vtj6tQ1HlajmRAL2FLAo-148">
          <mxGeometry width="50" height="50" relative="1" as="geometry">
            <mxPoint x="712" y="700" as="sourcePoint" />
            <mxPoint x="712" y="590" as="targetPoint" />
          </mxGeometry>
        </mxCell>
        <mxCell id="vtj6tQ1HlajmRAL2FLAo-150" value="P10?" style="ellipse;shape=cloud;whiteSpace=wrap;html=1;fillColor=#FFFF66;dashed=1;opacity=25;textOpacity=25;" vertex="1" parent="vtj6tQ1HlajmRAL2FLAo-1">
          <mxGeometry x="850" y="650" width="46.75" height="30" as="geometry" />
        </mxCell>
        <mxCell id="vtj6tQ1HlajmRAL2FLAo-151" value="" style="endArrow=none;html=1;fillColor=#f8cecc;strokeColor=#B85450;exitX=0;exitY=0.5;exitDx=0;exitDy=0;" edge="1" parent="vtj6tQ1HlajmRAL2FLAo-1" source="vtj6tQ1HlajmRAL2FLAo-36" target="vtj6tQ1HlajmRAL2FLAo-150">
          <mxGeometry width="50" height="50" relative="1" as="geometry">
            <mxPoint x="877" y="700" as="sourcePoint" />
            <mxPoint x="877" y="660" as="targetPoint" />
          </mxGeometry>
        </mxCell>
        <mxCell id="vtj6tQ1HlajmRAL2FLAo-152" value="" style="endArrow=none;html=1;fillColor=#f8cecc;strokeColor=#B85450;exitX=0.5;exitY=0;exitDx=0;exitDy=0;strokeWidth=2;dashed=1;dashPattern=1 1;opacity=25;entryX=0;entryY=0.5;entryDx=0;entryDy=0;jumpSize=6;" edge="1" parent="vtj6tQ1HlajmRAL2FLAo-1" source="vtj6tQ1HlajmRAL2FLAo-74" target="vtj6tQ1HlajmRAL2FLAo-128">
          <mxGeometry width="50" height="50" relative="1" as="geometry">
            <mxPoint x="834.5" y="419.5" as="sourcePoint" />
            <mxPoint x="843.8720990679194" y="344.96041736343614" as="targetPoint" />
          </mxGeometry>
        </mxCell>
        <mxCell id="vtj6tQ1HlajmRAL2FLAo-153" value="" style="endArrow=none;html=1;fillColor=#f8cecc;strokeColor=#B85450;exitX=0.5;exitY=0;exitDx=0;exitDy=0;strokeWidth=2;dashed=1;dashPattern=1 1;opacity=25;entryX=1;entryY=1;entryDx=0;entryDy=0;" edge="1" parent="vtj6tQ1HlajmRAL2FLAo-1" target="vtj6tQ1HlajmRAL2FLAo-55">
          <mxGeometry width="50" height="50" relative="1" as="geometry">
            <mxPoint x="833.75" y="540.5" as="sourcePoint" />
            <mxPoint x="757" y="340" as="targetPoint" />
          </mxGeometry>
        </mxCell>
        <mxCell id="vtj6tQ1HlajmRAL2FLAo-154" value="" style="endArrow=none;html=1;fillColor=#f8cecc;strokeColor=#B85450;exitX=0;exitY=0;exitDx=0;exitDy=0;strokeWidth=2;dashed=1;dashPattern=1 1;opacity=25;entryX=1;entryY=1;entryDx=0;entryDy=0;" edge="1" parent="vtj6tQ1HlajmRAL2FLAo-1" source="vtj6tQ1HlajmRAL2FLAo-75" target="vtj6tQ1HlajmRAL2FLAo-52">
          <mxGeometry width="50" height="50" relative="1" as="geometry">
            <mxPoint x="843.75" y="550.5" as="sourcePoint" />
            <mxPoint x="680.5355339059329" y="338.5355339059329" as="targetPoint" />
          </mxGeometry>
        </mxCell>
        <mxCell id="vtj6tQ1HlajmRAL2FLAo-155" value="JTBG" style="rounded=1;whiteSpace=wrap;html=1;" vertex="1" parent="vtj6tQ1HlajmRAL2FLAo-1">
          <mxGeometry x="697" y="292" width="40" height="15" as="geometry" />
        </mxCell>
        <mxCell id="vtj6tQ1HlajmRAL2FLAo-156" value="" style="endArrow=none;html=1;strokeColor=#9673a6;fillColor=#e1d5e7;exitX=0;exitY=0.5;exitDx=0;exitDy=0;strokeWidth=4;entryX=1;entryY=0.5;entryDx=0;entryDy=0;" edge="1" parent="vtj6tQ1HlajmRAL2FLAo-1" source="vtj6tQ1HlajmRAL2FLAo-131" target="vtj6tQ1HlajmRAL2FLAo-155">
          <mxGeometry width="50" height="50" relative="1" as="geometry">
            <mxPoint x="766" y="300" as="sourcePoint" />
            <mxPoint x="662" y="300" as="targetPoint" />
          </mxGeometry>
        </mxCell>
        <mxCell id="vtj6tQ1HlajmRAL2FLAo-157" value="&lt;font color=&quot;#000000&quot;&gt;ECP-1&lt;/font&gt;" style="rounded=1;whiteSpace=wrap;html=1;strokeColor=#A8A8A8;fontColor=#A8A8A8;" vertex="1" parent="vtj6tQ1HlajmRAL2FLAo-1">
          <mxGeometry x="967" y="170" width="60" height="20" as="geometry" />
        </mxCell>
        <mxCell id="vtj6tQ1HlajmRAL2FLAo-158" value="" style="endArrow=none;html=1;fillColor=#f8cecc;strokeColor=#B85450;exitX=1;exitY=0.5;exitDx=0;exitDy=0;curved=1;entryX=0.75;entryY=1;entryDx=0;entryDy=0;strokeWidth=2;dashed=1;dashPattern=1 2;" edge="1" parent="vtj6tQ1HlajmRAL2FLAo-1" source="vtj6tQ1HlajmRAL2FLAo-30" target="vtj6tQ1HlajmRAL2FLAo-157">
          <mxGeometry width="50" height="50" relative="1" as="geometry">
            <mxPoint x="813.25" y="652.5" as="sourcePoint" />
            <mxPoint x="804.5355339059329" y="343.5355339059329" as="targetPoint" />
            <Array as="points">
              <mxPoint x="1117" y="560" />
            </Array>
          </mxGeometry>
        </mxCell>
        <mxCell id="vtj6tQ1HlajmRAL2FLAo-159" value="" style="endArrow=none;html=1;strokeWidth=4;entryX=1;entryY=0.75;entryDx=0;entryDy=0;exitX=0;exitY=0.25;exitDx=0;exitDy=0;strokeColor=#97D077;dashed=1;dashPattern=1 2;" edge="1" parent="vtj6tQ1HlajmRAL2FLAo-1" source="vtj6tQ1HlajmRAL2FLAo-157" target="vtj6tQ1HlajmRAL2FLAo-101">
          <mxGeometry width="50" height="50" relative="1" as="geometry">
            <mxPoint x="802" y="200" as="sourcePoint" />
            <mxPoint x="802" y="130" as="targetPoint" />
          </mxGeometry>
        </mxCell>
        <mxCell id="vtj6tQ1HlajmRAL2FLAo-160" value="" style="endArrow=none;html=1;fillColor=#dae8fc;exitX=0;exitY=0.5;exitDx=0;exitDy=0;curved=1;entryX=0;entryY=0.5;entryDx=0;entryDy=0;strokeWidth=4;dashed=1;dashPattern=1 2;strokeColor=#90BEFF;" edge="1" parent="vtj6tQ1HlajmRAL2FLAo-1" source="vtj6tQ1HlajmRAL2FLAo-11" target="vtj6tQ1HlajmRAL2FLAo-86">
          <mxGeometry width="50" height="50" relative="1" as="geometry">
            <mxPoint x="1007" y="735" as="sourcePoint" />
            <mxPoint x="1037" y="240" as="targetPoint" />
            <Array as="points">
              <mxPoint x="-103" y="410" />
            </Array>
          </mxGeometry>
        </mxCell>
        <mxCell id="vtj6tQ1HlajmRAL2FLAo-161" value="&lt;font color=&quot;#000000&quot;&gt;Xpression-III&lt;br&gt;+&lt;br&gt;Ortofon&lt;br&gt;2M Blue&lt;br&gt;&lt;/font&gt;" style="ellipse;whiteSpace=wrap;html=1;aspect=fixed;strokeColor=#A8A8A8;fontColor=#A8A8A8;" vertex="1" parent="vtj6tQ1HlajmRAL2FLAo-1">
          <mxGeometry x="947" y="40" width="100" height="100" as="geometry" />
        </mxCell>
        <mxCell id="vtj6tQ1HlajmRAL2FLAo-162" value="" style="endArrow=none;html=1;fillColor=#f8cecc;strokeColor=#B85450;exitX=1;exitY=0.5;exitDx=0;exitDy=0;curved=1;entryX=1;entryY=0.5;entryDx=0;entryDy=0;strokeWidth=2;dashed=1;dashPattern=1 2;" edge="1" parent="vtj6tQ1HlajmRAL2FLAo-1" source="vtj6tQ1HlajmRAL2FLAo-30" target="vtj6tQ1HlajmRAL2FLAo-161">
          <mxGeometry width="50" height="50" relative="1" as="geometry">
            <mxPoint x="1007" y="735" as="sourcePoint" />
            <mxPoint x="1037" y="240" as="targetPoint" />
            <Array as="points">
              <mxPoint x="1137" y="560" />
            </Array>
          </mxGeometry>
        </mxCell>
        <mxCell id="vtj6tQ1HlajmRAL2FLAo-163" value="" style="endArrow=none;html=1;strokeWidth=2;entryX=0.5;entryY=1;entryDx=0;entryDy=0;exitX=0.5;exitY=0;exitDx=0;exitDy=0;strokeColor=#97D077;" edge="1" parent="vtj6tQ1HlajmRAL2FLAo-1" source="vtj6tQ1HlajmRAL2FLAo-157" target="vtj6tQ1HlajmRAL2FLAo-161">
          <mxGeometry width="50" height="50" relative="1" as="geometry">
            <mxPoint x="947" y="195" as="sourcePoint" />
            <mxPoint x="867" y="135" as="targetPoint" />
          </mxGeometry>
        </mxCell>
        <mxCell id="vtj6tQ1HlajmRAL2FLAo-164" value="TRY DATA ONLY CABLE" style="shape=callout;whiteSpace=wrap;html=1;perimeter=calloutPerimeter;strokeColor=#d79b00;fillColor=#ffcd28;fontSize=8;gradientColor=#ffa500;" vertex="1" parent="vtj6tQ1HlajmRAL2FLAo-1">
          <mxGeometry x="687" y="250" width="120" height="50" as="geometry" />
        </mxCell>
        <mxCell id="vtj6tQ1HlajmRAL2FLAo-165" value="Untitled Layer" parent="vtj6tQ1HlajmRAL2FLAo-0" />
      </root>
    </mxGraphModel>
  </diagram>
</mxfile>
